<svg xmlns="http://www.w3.org/2000/svg" xmlns:xlink="http://www.w3.org/1999/xlink" viewBox="0 0 94.43 69.17"><defs><style>.cls-1{isolation:isolate;}.cls-10,.cls-18,.cls-19,.cls-2,.cls-20,.cls-21,.cls-22,.cls-23,.cls-24,.cls-25,.cls-26,.cls-29,.cls-3,.cls-30,.cls-31,.cls-32,.cls-33,.cls-34,.cls-35,.cls-36,.cls-37,.cls-38,.cls-39,.cls-4,.cls-40,.cls-41,.cls-5,.cls-6,.cls-7,.cls-8,.cls-9{mix-blend-mode:screen;}.cls-2{fill:url(#radial-gradient);}.cls-3,.cls-46{opacity:0.5;}.cls-3{fill:url(#radial-gradient-2);}.cls-37,.cls-38,.cls-4,.cls-5,.cls-6{opacity:0.3;}.cls-4{fill:url(#radial-gradient-3);}.cls-5{fill:url(#radial-gradient-4);}.cls-6{fill:url(#radial-gradient-5);}.cls-10,.cls-11,.cls-13,.cls-14,.cls-15,.cls-16,.cls-17,.cls-18,.cls-20,.cls-21,.cls-22,.cls-24,.cls-25,.cls-7,.cls-9{opacity:0.4;}.cls-7{fill:url(#radial-gradient-6);}.cls-26,.cls-27,.cls-28,.cls-29,.cls-8{opacity:0.6;}.cls-8{fill:url(#radial-gradient-7);}.cls-9{fill:url(#radial-gradient-8);}.cls-10{fill:url(#radial-gradient-9);}.cls-11,.cls-12,.cls-13,.cls-14,.cls-15,.cls-16,.cls-17,.cls-27,.cls-28,.cls-42,.cls-43,.cls-44,.cls-45,.cls-46,.cls-47,.cls-48,.cls-49,.cls-50,.cls-51,.cls-52,.cls-53,.cls-54,.cls-55,.cls-56,.cls-57,.cls-58,.cls-59,.cls-60,.cls-61,.cls-62{mix-blend-mode:color-dodge;}.cls-11{fill:url(#radial-gradient-10);}.cls-12,.cls-30,.cls-31,.cls-32{opacity:0.2;}.cls-12{fill:url(#radial-gradient-11);}.cls-13{fill:url(#radial-gradient-12);}.cls-14{fill:url(#radial-gradient-13);}.cls-15{fill:url(#radial-gradient-14);}.cls-16{fill:url(#radial-gradient-15);}.cls-17{fill:url(#radial-gradient-16);}.cls-18{fill:url(#radial-gradient-17);}.cls-19{opacity:0.8;fill:url(#radial-gradient-18);}.cls-20{fill:url(#radial-gradient-19);}.cls-21{fill:url(#radial-gradient-20);}.cls-22{fill:url(#radial-gradient-21);}.cls-23{fill:url(#radial-gradient-22);}.cls-24{fill:url(#radial-gradient-23);}.cls-25{fill:url(#radial-gradient-24);}.cls-26{fill:url(#radial-gradient-25);}.cls-27{fill:url(#radial-gradient-26);}.cls-28{fill:url(#radial-gradient-27);}.cls-29{fill:url(#radial-gradient-28);}.cls-30{fill:url(#radial-gradient-29);}.cls-31{fill:url(#radial-gradient-30);}.cls-32{fill:url(#radial-gradient-31);}.cls-33{fill:url(#radial-gradient-32);}.cls-34{fill:url(#radial-gradient-33);}.cls-35{fill:url(#radial-gradient-34);}.cls-36{fill:url(#radial-gradient-35);}.cls-37{fill:url(#radial-gradient-36);}.cls-38{fill:url(#radial-gradient-37);}.cls-39,.cls-40,.cls-41{opacity:0.7;}.cls-39{fill:url(#radial-gradient-38);}.cls-40{fill:url(#radial-gradient-39);}.cls-41{fill:url(#radial-gradient-40);}.cls-42{fill:url(#radial-gradient-41);}.cls-43{fill:url(#radial-gradient-42);}.cls-44{fill:url(#radial-gradient-43);}.cls-45{fill:url(#radial-gradient-44);}.cls-46{fill:url(#radial-gradient-45);}.cls-47{fill:url(#radial-gradient-46);}.cls-48{fill:url(#radial-gradient-47);}.cls-49{fill:url(#radial-gradient-48);}.cls-50{fill:url(#radial-gradient-49);}.cls-51{fill:url(#radial-gradient-50);}.cls-52{fill:url(#radial-gradient-51);}.cls-53{fill:url(#radial-gradient-52);}.cls-54{fill:url(#radial-gradient-53);}.cls-55{fill:url(#radial-gradient-54);}.cls-56{fill:url(#radial-gradient-55);}.cls-57{fill:url(#radial-gradient-56);}.cls-58{fill:url(#radial-gradient-57);}.cls-59{fill:url(#radial-gradient-58);}.cls-60{fill:url(#radial-gradient-59);}.cls-61{fill:url(#radial-gradient-60);}.cls-62{fill:url(#radial-gradient-61);}</style><radialGradient id="radial-gradient" cx="-6329.01" cy="-2707.55" r="34.08" gradientTransform="matrix(0, 0.12, -0.42, 0.2, -1085.94, 1316.85)" gradientUnits="userSpaceOnUse"><stop offset="0.15" stop-color="#ffdc85"/><stop offset="0.21" stop-color="#d9bc71"/><stop offset="0.35" stop-color="#8d7a4a"/><stop offset="0.48" stop-color="#51452a"/><stop offset="0.59" stop-color="#252013"/><stop offset="0.67" stop-color="#0a0905"/><stop offset="0.72"/></radialGradient><radialGradient id="radial-gradient-2" cx="-2138.82" cy="1267.06" r="52.26" gradientTransform="matrix(0.08, -0.33, 0.64, -0.26, -590.28, -355.74)" gradientUnits="userSpaceOnUse"><stop offset="0" stop-color="#ffdc85"/><stop offset="0.09" stop-color="#edcd7c"/><stop offset="0.28" stop-color="#bea463"/><stop offset="0.54" stop-color="#73633c"/><stop offset="0.86" stop-color="#0c0b06"/><stop offset="0.9"/></radialGradient><radialGradient id="radial-gradient-3" cx="-2516.29" cy="1448.29" r="45.04" gradientTransform="matrix(0.06, -0.27, 0.54, -0.22, -563.29, -339.88)" gradientUnits="userSpaceOnUse"><stop offset="0" stop-color="#ff9000"/><stop offset="0.09" stop-color="#ed8600"/><stop offset="0.28" stop-color="#be6b00"/><stop offset="0.54" stop-color="#734100"/><stop offset="0.86" stop-color="#0c0700"/><stop offset="0.9"/></radialGradient><radialGradient id="radial-gradient-4" cx="-2185.32" cy="1159.19" r="33.98" gradientTransform="matrix(0.08, -0.33, 0.69, -0.28, -579.87, -360.12)" xlink:href="#radial-gradient-3"/><radialGradient id="radial-gradient-5" cx="-2131.44" cy="1136.04" r="20.47" gradientTransform="matrix(0.08, -0.33, 0.69, -0.28, -579.87, -360.12)" xlink:href="#radial-gradient-3"/><radialGradient id="radial-gradient-6" cx="-6999.49" cy="-3012.14" r="23.56" gradientTransform="matrix(0.01, 0.14, -0.32, 0.15, -830.29, 1432.87)" gradientUnits="userSpaceOnUse"><stop offset="0" stop-color="#d45800"/><stop offset="0.27" stop-color="#8d3b00"/><stop offset="0.52" stop-color="#502100"/><stop offset="0.74" stop-color="#250f00"/><stop offset="0.9" stop-color="#0a0400"/><stop offset="1"/></radialGradient><radialGradient id="radial-gradient-7" cx="-6983.41" cy="-3116.63" r="13.05" xlink:href="#radial-gradient-6"/><radialGradient id="radial-gradient-8" cx="-6946.93" cy="-3070.49" r="13.05" gradientTransform="matrix(0.01, 0.14, -0.32, 0.15, -830.29, 1432.87)" gradientUnits="userSpaceOnUse"><stop offset="0" stop-color="#ffdc85"/><stop offset="0.11" stop-color="#d9bc71"/><stop offset="0.36" stop-color="#8d7a4a"/><stop offset="0.58" stop-color="#51452a"/><stop offset="0.77" stop-color="#252013"/><stop offset="0.91" stop-color="#0a0905"/><stop offset="1"/></radialGradient><radialGradient id="radial-gradient-9" cx="-7041.76" cy="-3027.9" r="13.05" xlink:href="#radial-gradient-8"/><radialGradient id="radial-gradient-10" cx="-7021.08" cy="-3141.18" r="13.05" xlink:href="#radial-gradient-8"/><radialGradient id="radial-gradient-11" cx="-7056.45" cy="-3168.86" r="13.05" xlink:href="#radial-gradient-8"/><radialGradient id="radial-gradient-12" cx="-6922.7" cy="-3096.97" r="22.01" xlink:href="#radial-gradient-8"/><radialGradient id="radial-gradient-13" cx="-7078.37" cy="-3059.59" r="18.15" xlink:href="#radial-gradient-8"/><radialGradient id="radial-gradient-14" cx="-5250.68" cy="-3228" r="13.05" gradientTransform="matrix(-0.01, 0.09, -0.32, 0.14, -1008.42, 934.97)" xlink:href="#radial-gradient-8"/><radialGradient id="radial-gradient-15" cx="-4988.24" cy="-2406.91" r="13.05" gradientTransform="matrix(-0.03, 0.1, -0.67, 0.33, -1712.3, 1332.11)" xlink:href="#radial-gradient-8"/><radialGradient id="radial-gradient-16" cx="-4881.55" cy="-2432.86" r="8.78" gradientTransform="matrix(-0.03, 0.1, -0.67, 0.33, -1712.3, 1332.11)" xlink:href="#radial-gradient-8"/><radialGradient id="radial-gradient-17" cx="-6957.87" cy="-3112.42" r="34.07" gradientTransform="matrix(0.01, 0.14, -0.32, 0.15, -830.29, 1432.87)" gradientUnits="userSpaceOnUse"><stop offset="0" stop-color="#ffdc85"/><stop offset="0.08" stop-color="#d9bc71"/><stop offset="0.26" stop-color="#8d7a4a"/><stop offset="0.42" stop-color="#51452a"/><stop offset="0.56" stop-color="#252013"/><stop offset="0.66" stop-color="#0a0905"/><stop offset="0.72"/></radialGradient><radialGradient id="radial-gradient-18" cx="-6289.17" cy="-3139.12" r="26.08" gradientTransform="matrix(0, 0.11, -0.32, 0.14, -918.53, 1184.96)" xlink:href="#radial-gradient-17"/><radialGradient id="radial-gradient-19" cx="-6395.69" cy="-3215.69" r="34.07" gradientTransform="matrix(0, 0.11, -0.32, 0.14, -909.89, 1211.88)" xlink:href="#radial-gradient-17"/><radialGradient id="radial-gradient-20" cx="-6884" cy="-3048.4" r="34.07" xlink:href="#radial-gradient-17"/><radialGradient id="radial-gradient-21" cx="-6906.19" cy="-3037.64" r="57.78" xlink:href="#radial-gradient-17"/><radialGradient id="radial-gradient-22" cx="-6943.71" cy="-3048.25" r="34.08" gradientTransform="matrix(0.01, 0.14, -0.32, 0.15, -830.29, 1432.87)" gradientUnits="userSpaceOnUse"><stop offset="0" stop-color="#ba4d00"/><stop offset="0.19" stop-color="#8c3a00"/><stop offset="0.47" stop-color="#502100"/><stop offset="0.71" stop-color="#250f00"/><stop offset="0.89" stop-color="#0a0400"/><stop offset="1"/></radialGradient><radialGradient id="radial-gradient-23" cx="-7007.44" cy="-3029.51" r="18.11" xlink:href="#radial-gradient-8"/><radialGradient id="radial-gradient-24" cx="-6960.13" cy="-3026.75" r="18.1" xlink:href="#radial-gradient-8"/><radialGradient id="radial-gradient-25" cx="-5081.2" cy="-4711.44" r="15.02" gradientTransform="matrix(0.01, 0.09, -0.19, 0.09, -832.15, 936.94)" xlink:href="#radial-gradient-8"/><radialGradient id="radial-gradient-26" cx="-5069.55" cy="-4737.13" r="25.47" gradientTransform="matrix(0.01, 0.09, -0.19, 0.09, -832.15, 936.94)" xlink:href="#radial-gradient-6"/><radialGradient id="radial-gradient-27" cx="-5073.09" cy="-4807.91" r="25.47" gradientTransform="matrix(0.01, 0.09, -0.19, 0.09, -832.15, 936.94)" xlink:href="#radial-gradient-6"/><radialGradient id="radial-gradient-28" cx="-5010.99" cy="-4649.22" r="15.03" gradientTransform="matrix(0.01, 0.09, -0.19, 0.09, -832.15, 936.94)" xlink:href="#radial-gradient-8"/><radialGradient id="radial-gradient-29" cx="786.6" cy="190.95" r="32.58" gradientTransform="matrix(0.44, 0.07, -0.07, 0.44, -312.97, -85.85)" gradientUnits="userSpaceOnUse"><stop offset="0.34" stop-color="#40210d"/><stop offset="0.37" stop-color="#46240e"/><stop offset="0.41" stop-color="#572d12"/><stop offset="0.45" stop-color="#723c18"/><stop offset="0.49" stop-color="#985020"/><stop offset="0.53" stop-color="#bf6428"/><stop offset="0.57" stop-color="#9c5221"/><stop offset="0.64" stop-color="#653515"/><stop offset="0.71" stop-color="#391e0c"/><stop offset="0.77" stop-color="#1a0e05"/><stop offset="0.82" stop-color="#070401"/><stop offset="0.85"/></radialGradient><radialGradient id="radial-gradient-30" cx="772.75" cy="202.89" r="18.05" xlink:href="#radial-gradient-29"/><radialGradient id="radial-gradient-31" cx="786.08" cy="319.05" r="27.47" gradientTransform="translate(-308.7 -114.79) rotate(1.64) scale(0.44)" xlink:href="#radial-gradient-29"/><radialGradient id="radial-gradient-32" cx="777.94" cy="329" r="37.41" gradientTransform="translate(-308.7 -114.79) rotate(1.64) scale(0.44)" gradientUnits="userSpaceOnUse"><stop offset="0" stop-color="#fff"/><stop offset="0.01" stop-color="#fffef8"/><stop offset="0.1" stop-color="#fcf6ca"/><stop offset="0.17" stop-color="#fbf2ad"/><stop offset="0.21" stop-color="#faf0a2"/><stop offset="0.22" stop-color="#f5e498"/><stop offset="0.27" stop-color="#e5bd76"/><stop offset="0.31" stop-color="#d79d59"/><stop offset="0.36" stop-color="#cc8444"/><stop offset="0.41" stop-color="#c57234"/><stop offset="0.47" stop-color="#c0672b"/><stop offset="0.53" stop-color="#bf6428"/><stop offset="0.58" stop-color="#a05421"/><stop offset="0.71" stop-color="#4a2710"/><stop offset="0.81" stop-color="#150b04"/><stop offset="0.85"/></radialGradient><radialGradient id="radial-gradient-33" cx="146.6" cy="2123.64" r="25.36" gradientTransform="matrix(0.02, -0.87, 0.09, 0, -152.42, 163.61)" gradientUnits="userSpaceOnUse"><stop offset="0" stop-color="#faf0a2"/><stop offset="0.01" stop-color="#f6e599"/><stop offset="0.1" stop-color="#deae69"/><stop offset="0.17" stop-color="#cd8645"/><stop offset="0.22" stop-color="#c36d30"/><stop offset="0.25" stop-color="#bf6428"/><stop offset="0.26" stop-color="#be6328"/><stop offset="0.42" stop-color="#733c18"/><stop offset="0.47" stop-color="#623314"/><stop offset="0.65" stop-color="#2d1809"/><stop offset="0.78" stop-color="#0c0603"/><stop offset="0.85"/></radialGradient><radialGradient id="radial-gradient-34" cx="510.44" cy="2495.84" r="25.37" gradientTransform="matrix(0.84, -0.2, 0.02, 0.08, -446.67, -64.19)" xlink:href="#radial-gradient-33"/><radialGradient id="radial-gradient-35" cx="202" cy="-3598.49" r="25.36" gradientTransform="matrix(-1.27, -0.04, 0, -0.05, 293.25, -132.28)" xlink:href="#radial-gradient-33"/><radialGradient id="radial-gradient-36" cx="147.32" cy="-33.16" r="25.37" gradientTransform="matrix(-0.89, -0.91, 0.04, -0.04, 164.14, 173.96)" xlink:href="#radial-gradient-33"/><radialGradient id="radial-gradient-37" cx="331.47" cy="-1568.06" r="20.54" gradientTransform="matrix(-0.98, 0.8, -0.11, -0.14, 181.97, -438.68)" xlink:href="#radial-gradient-33"/><radialGradient id="radial-gradient-38" cx="537.68" cy="-713.39" r="23.05" gradientTransform="matrix(0.45, 1.19, -0.17, 0.06, -327.3, -551.02)" xlink:href="#radial-gradient-33"/><radialGradient id="radial-gradient-39" cx="422.44" cy="-1479.09" r="12.91" gradientTransform="matrix(-0.52, 1.15, -0.16, -0.07, 16.23, -553.74)" xlink:href="#radial-gradient-33"/><radialGradient id="radial-gradient-40" cx="555.01" cy="22.15" r="17.92" gradientTransform="matrix(0.97, 0.82, -0.11, 0.14, -503.86, -414.19)" xlink:href="#radial-gradient-33"/><radialGradient id="radial-gradient-41" cx="-5285.1" cy="-3222.18" r="34.09" gradientTransform="matrix(0, 0.09, -0.32, 0.14, -997.49, 964.55)" gradientUnits="userSpaceOnUse"><stop offset="0" stop-color="#ba8f00"/><stop offset="0.19" stop-color="#8c6c00"/><stop offset="0.47" stop-color="#503e00"/><stop offset="0.71" stop-color="#251c00"/><stop offset="0.89" stop-color="#0a0800"/><stop offset="1"/></radialGradient><radialGradient id="radial-gradient-42" cx="-5337.5" cy="-3192.57" r="41.64" xlink:href="#radial-gradient-41"/><radialGradient id="radial-gradient-43" cx="-5424.42" cy="-3193.95" r="37.74" xlink:href="#radial-gradient-41"/><radialGradient id="radial-gradient-44" cx="-5389.47" cy="-3192.49" r="37.74" xlink:href="#radial-gradient-41"/><radialGradient id="radial-gradient-45" cx="-5494.58" cy="-3247.4" r="28.73" gradientTransform="matrix(0, 0.09, -0.32, 0.14, -997.49, 964.55)" xlink:href="#radial-gradient-22"/><radialGradient id="radial-gradient-46" cx="-180.37" cy="11722.2" r="18.49" gradientTransform="matrix(0.55, -0.28, 0.03, 0.05, -153.53, -610.66)" gradientUnits="userSpaceOnUse"><stop offset="0" stop-color="#ffefce"/><stop offset="0.02" stop-color="#efe0c1"/><stop offset="0.13" stop-color="#a89d87"/><stop offset="0.24" stop-color="#6c6557"/><stop offset="0.33" stop-color="#3d3932"/><stop offset="0.41" stop-color="#1c1a16"/><stop offset="0.48" stop-color="#070706"/><stop offset="0.53"/></radialGradient><radialGradient id="radial-gradient-47" cx="-165.39" cy="11718.91" r="13.1" xlink:href="#radial-gradient-46"/><radialGradient id="radial-gradient-48" cx="805.86" cy="11700.66" r="13.1" gradientTransform="matrix(0.28, -0.14, 0.03, 0.05, -462.34, -452.59)" xlink:href="#radial-gradient-46"/><radialGradient id="radial-gradient-49" cx="798.68" cy="11707.81" r="13.1" gradientTransform="matrix(0.28, -0.14, 0.03, 0.05, -462.34, -452.59)" xlink:href="#radial-gradient-46"/><radialGradient id="radial-gradient-50" cx="822.88" cy="11702.72" r="8.79" gradientTransform="matrix(0.28, -0.14, 0.03, 0.05, -462.34, -452.59)" xlink:href="#radial-gradient-46"/><radialGradient id="radial-gradient-51" cx="-185.83" cy="12385.43" r="9.26" gradientTransform="matrix(0.53, -0.31, 0.03, 0.05, -185.3, -638.9)" xlink:href="#radial-gradient-46"/><radialGradient id="radial-gradient-52" cx="-104.83" cy="10898.65" r="13.12" gradientTransform="matrix(0.58, -0.22, 0.02, 0.05, -103.66, -561.62)" xlink:href="#radial-gradient-46"/><radialGradient id="radial-gradient-53" cx="672.47" cy="12216.85" r="13.12" gradientTransform="matrix(0.27, -0.16, 0.03, 0.05, -483.41, -460.69)" xlink:href="#radial-gradient-46"/><radialGradient id="radial-gradient-54" cx="802.94" cy="11841.46" r="13.1" gradientTransform="matrix(0.28, -0.14, 0.03, 0.05, -462.2, -453.12)" xlink:href="#radial-gradient-46"/><radialGradient id="radial-gradient-55" cx="150.09" cy="5918.64" r="13.11" gradientTransform="matrix(0.51, -0.19, 0.08, 0.2, -489.86, -1145.65)" xlink:href="#radial-gradient-46"/><radialGradient id="radial-gradient-56" cx="176.58" cy="5882.55" r="8.46" gradientTransform="matrix(0.51, -0.19, 0.08, 0.2, -489.86, -1145.65)" xlink:href="#radial-gradient-46"/><radialGradient id="radial-gradient-57" cx="178.27" cy="5919.66" r="8.46" gradientTransform="matrix(0.51, -0.19, 0.08, 0.2, -489.86, -1145.65)" xlink:href="#radial-gradient-46"/><radialGradient id="radial-gradient-58" cx="205.91" cy="5897.44" r="8.46" gradientTransform="matrix(0.51, -0.19, 0.08, 0.2, -489.86, -1145.65)" xlink:href="#radial-gradient-46"/><radialGradient id="radial-gradient-59" cx="42.26" cy="6171.59" r="8.46" gradientTransform="matrix(0.48, -0.26, 0.1, 0.19, -622.67, -1150.94)" xlink:href="#radial-gradient-46"/><radialGradient id="radial-gradient-60" cx="193.28" cy="5907.6" r="8.46" gradientTransform="matrix(0.51, -0.19, 0.08, 0.2, -489.86, -1145.65)" xlink:href="#radial-gradient-46"/><radialGradient id="radial-gradient-61" cx="689.49" cy="12218.9" r="8.8" gradientTransform="matrix(0.27, -0.16, 0.03, 0.05, -483.41, -460.69)" xlink:href="#radial-gradient-46"/></defs><title>Comet6</title><g class="cls-1"><g id="Calque_2" data-name="Calque 2"><g id="Layer_1" data-name="Layer 1"><path class="cls-2" d="M47.42,31c-7.83,3.75-14.16,5-14.14,2.76S39.67,26.68,47.49,23s14.17-5,14.15-2.77S55.25,27.26,47.42,31Z"/><path class="cls-3" d="M64.55,5.78C83.15-1.7,96.42,0,94.18,9.51S75,32.86,56.44,40.34,24.57,46.14,26.8,36.6,45.94,13.26,64.55,5.78Z"/><path class="cls-4" d="M76,2.36c14-5.77,19.26,0,17.73,7S84.53,21.89,70.53,27.66s-24.11,4.79-22.59-2.2S62,8.13,76,2.36Z"/><path class="cls-5" d="M55.12,28.74c13-5.22,22.32-4.42,20.87,1.79S62.83,46,49.84,51.21,27.52,55.63,29,49.43,42.14,34,55.12,28.74Z"/><path class="cls-6" d="M42.23,21.84c7.82-3.15,13.45-2.67,12.57,1.07s-7.92,9.32-15.74,12.46S25.61,38,26.48,34.3,34.41,25,42.23,21.84Z"/><path class="cls-7" d="M37.72,37.81c-4.1,1.95-7.56,2.13-7.71.34s3.05-4.78,7.16-6.71,7.56-2.11,7.72-.35S41.83,35.86,37.72,37.81Z"/><path class="cls-8" d="M70.76,22.91c-2.28,1.08-4.19,1.18-4.28.19s1.69-2.64,4-3.72,4.19-1.16,4.27-.19S73,21.83,70.76,22.91Z"/><path class="cls-9" d="M56.63,34.76c-2.27,1.08-4.19,1.18-4.27.19s1.69-2.65,4-3.72,4.18-1.17,4.27-.19S58.91,33.68,56.63,34.76Z"/><path class="cls-10" d="M42.07,28.31c-2.27,1.08-4.19,1.18-4.27.19s1.69-2.65,4-3.72S46,23.61,46,24.59,44.35,27.23,42.07,28.31Z"/><path class="cls-11" d="M78.06,14.14c-2.28,1.08-4.19,1.18-4.28.19s1.69-2.65,4-3.72,4.19-1.17,4.28-.19S80.33,13.06,78.06,14.14Z"/><path class="cls-12" d="M86.37,5.21c-2.28,1.08-4.19,1.18-4.27.19s1.69-2.65,4-3.72,4.19-1.17,4.28-.2S88.65,4.12,86.37,5.21Z"/><path class="cls-13" d="M65.37,35.28c-3.84,1.83-7.06,2-7.21.32s2.85-4.46,6.7-6.27,7.06-2,7.21-.33S69.21,33.46,65.37,35.28Z"/><path class="cls-14" d="M51.7,19.3c-3.17,1.5-5.83,1.64-6,.27s2.35-3.68,5.52-5.18,5.83-1.62,5.95-.27S54.86,17.79,51.7,19.3Z"/><path class="cls-15" d="M51.57,32c-2.31,1-4.15,1.29-4.11.65s1.93-2,4.24-2.94,4.15-1.28,4.12-.65S53.88,31,51.57,32Z"/><path class="cls-16" d="M58.5,24.71c-4.81,2.37-8.52,3.68-8.28,2.92s4.33-3.28,9.15-5.64,8.52-3.67,8.29-2.92S63.32,22.35,58.5,24.71Z"/><path class="cls-17" d="M72.43,26.88c-3.24,1.59-5.74,2.48-5.57,2s2.91-2.2,6.15-3.79,5.74-2.47,5.58-2S75.67,25.29,72.43,26.88Z"/><path class="cls-18" d="M70,29.84C64,32.66,59,32.92,58.82,30.34s4.41-6.91,10.35-9.71,11-3.05,11.17-.51S75.92,27,70,29.84Z"/><path class="cls-19" d="M56.85,32.71c-4.58,2.07-8.33,2.46-8.38.83s3.62-4.61,8.19-6.67,8.34-2.43,8.39-.82S61.43,30.64,56.85,32.71Z"/><path class="cls-20" d="M83.09,18.18c-6,2.71-10.89,3.2-11,1s4.69-6.12,10.67-8.82,10.9-3.17,11-1S89.08,15.46,83.09,18.18Z"/><path class="cls-21" d="M50.65,49.43c-5.94,2.81-10.94,3.08-11.16.5S43.9,43,49.84,40.22s10.95-3,11.17-.51S56.59,46.6,50.65,49.43Z"/><path class="cls-22" d="M47.27,51.24C37.2,56,28.73,56.47,28.35,52.09s7.48-11.72,17.56-16.47,18.55-5.17,18.93-.85S57.35,46.46,47.27,51.24Z"/><path class="cls-23" d="M49.9,41.37C44,44.19,39,44.45,38.74,41.87S43.15,35,49.1,32.16s10.94-3,11.16-.51S55.84,38.55,49.9,41.37Z"/><path class="cls-24" d="M43.05,33.39c-3.16,1.5-5.82,1.64-5.93.27s2.34-3.67,5.5-5.16,5.81-1.62,5.93-.27S46.2,31.9,43.05,33.39Z"/><path class="cls-25" d="M42.73,40.21c-3.15,1.5-5.81,1.64-5.93.26s2.35-3.67,5.51-5.15,5.81-1.62,5.93-.27S45.89,38.71,42.73,40.21Z"/><path class="cls-26" d="M41.81,35.44c-1.61.77-3,.78-3,0s1.18-2,2.79-2.76,3-.77,3,0S43.43,34.68,41.81,35.44Z"/><path class="cls-27" d="M47,35.11c-2.73,1.29-5,1.32-5.15,0s2-3.4,4.74-4.69,5-1.3,5.16,0S49.71,33.81,47,35.11Z"/><path class="cls-28" d="M60.69,28.26c-2.74,1.3-5,1.32-5.15,0s2-3.41,4.74-4.69,5-1.3,5.15,0S63.42,27,60.69,28.26Z"/><path class="cls-29" d="M30.3,47.65c-1.61.77-3,.78-3,0s1.19-2,2.8-2.77,3-.76,3,0S31.91,46.89,30.3,47.65Z"/><path class="cls-30" d="M34.46,52.14A14.48,14.48,0,1,1,22.29,35.67,14.49,14.49,0,0,1,34.46,52.14Z"/><path class="cls-31" d="M21.19,55.52a8,8,0,1,1-6.74-9.13A8,8,0,0,1,21.19,55.52Z"/><path class="cls-32" d="M48.63,37.27A12.21,12.21,0,1,1,36.78,24.72,12.21,12.21,0,0,1,48.63,37.27Z"/><path class="cls-33" d="M49.3,41.71a16.63,16.63,0,1,1-16.14-17.1A16.63,16.63,0,0,1,49.3,41.71Z"/><path class="cls-34" d="M32.78,19.84c1.2,0,1.88,9.89,1.53,22s-1.59,21.93-2.79,21.9-1.87-9.9-1.53-22S31.59,19.8,32.78,19.84Z"/><path class="cls-35" d="M53.54,36.78c.28,1.16-9.08,4.35-20.89,7.12S11,48,10.76,46.81s9.09-4.35,20.9-7.12S53.27,35.62,53.54,36.78Z"/><path class="cls-36" d="M0,40.83c0-.71,14.43-.87,32.19-.36S64.33,42,64.31,42.67s-14.43.87-32.19.36S0,41.53,0,40.83Z"/><path class="cls-37" d="M9.63,18.78c.51-.49,11,9.39,23.44,22.07S55.18,64.22,54.68,64.72s-11-9.39-23.44-22.08S9.13,19.27,9.63,18.78Z"/><path class="cls-38" d="M12.05,58.32C10.78,56.77,18.78,48.12,29.91,39S51.09,23.73,52.35,25.28,45.63,35.48,34.5,44.6,13.32,59.86,12.05,58.32Z"/><path class="cls-39" d="M42.57,69.13c-2.1.79-8.44-10.8-14.17-25.89s-8.66-28-6.56-28.77S30.28,25.26,36,40.36,44.67,68.33,42.57,69.13Z"/><path class="cls-40" d="M25.43,56.7c-1.14-.52,1-7.61,4.7-15.84s7.7-14.49,8.84-14S38,34.51,34.28,42.74,26.58,57.22,25.43,56.7Z"/><path class="cls-41" d="M49.59,56.42c-1.12,1.34-9.82-4.13-19.42-12.2s-16.48-15.71-15.35-17,9.82,4.13,19.42,12.21S50.71,55.09,49.59,56.42Z"/><path class="cls-42" d="M54,42.9c-6,2.59-10.84,3.34-10.77,1.6s5-5.21,11-7.8S65.09,33.39,65,35.09,60,40.3,54,42.9Z"/><path class="cls-43" d="M44.69,42.9c-7.36,3.17-13.25,4.08-13.16,2S37.66,38.49,45,35.33s13.24-4,13.15-2S52,39.73,44.69,42.9Z"/><path class="cls-44" d="M45.49,34.46c-6.67,2.87-12,3.7-11.93,1.77s5.56-5.77,12.23-8.63,12-3.67,11.92-1.78S52.15,31.58,45.49,34.46Z"/><path class="cls-45" d="M44.88,37.83c-6.67,2.88-12,3.7-11.92,1.78S38.51,33.84,45.18,31s12-3.68,11.93-1.78S51.55,35,44.88,37.83Z"/><path class="cls-46" d="M62.9,19.89c-5.08,2.19-9.14,2.82-9.08,1.35s4.23-4.4,9.31-6.57,9.14-2.8,9.07-1.36S68,17.7,62.9,19.89Z"/><path class="cls-47" d="M58.94,25.46c.27.51-4.07,3.25-9.67,6.11S38.9,36.34,38.64,35.82s4.07-3.25,9.68-6.11S58.68,24.94,58.94,25.46Z"/><path class="cls-48" d="M64.12,22.61c.18.36-2.89,2.3-6.86,4.33s-7.34,3.38-7.53,3,2.89-2.3,6.86-4.33S63.93,22.24,64.12,22.61Z"/><path class="cls-49" d="M64.81,21.57c.19.37-1.29,1.49-3.29,2.51s-3.78,1.56-4,1.19,1.29-1.49,3.29-2.51S64.62,21.21,64.81,21.57Z"/><path class="cls-50" d="M63,22.94c.18.37-1.29,1.49-3.29,2.51s-3.78,1.56-4,1.2,1.29-1.49,3.29-2.52S62.82,22.58,63,22.94Z"/><path class="cls-51" d="M68.37,19.88c.13.25-.86,1-2.2,1.69s-2.53,1-2.66.79.86-1,2.21-1.68S68.25,19.64,68.37,19.88Z"/><path class="cls-52" d="M77.94,17.38c.15.25-1.93,1.75-4.63,3.36s-5,2.71-5.17,2.47,1.93-1.76,4.63-3.37S77.79,17.13,77.94,17.38Z"/><path class="cls-53" d="M61.5,33.86c.14.38-3.12,2-7.29,3.55S46.54,40,46.4,39.58s3.11-2,7.28-3.55S61.35,33.47,61.5,33.86Z"/><path class="cls-54" d="M51.35,23.09c.21.35-1.19,1.57-3.12,2.72s-3.67,1.79-3.88,1.44,1.19-1.57,3.12-2.72S51.14,22.74,51.35,23.09Z"/><path class="cls-55" d="M67.76,28.55c.19.36-1.28,1.48-3.29,2.51s-3.77,1.55-4,1.19,1.29-1.49,3.29-2.51S67.58,28.18,67.76,28.55Z"/><path class="cls-56" d="M52.44,33.82c.56,1.48-2,3.81-5.66,5.21s-7.12,1.33-7.68-.15,2-3.82,5.65-5.21S51.87,32.34,52.44,33.82Z"/><path class="cls-57" d="M60.74,22.22c.36,1-1.27,2.46-3.65,3.37s-4.59.85-5-.1S53.4,23,55.78,22.12,60.38,21.27,60.74,22.22Z"/><path class="cls-58" d="M64.48,29.49c.36,1-1.27,2.46-3.65,3.36s-4.6.86-5-.1,1.27-2.46,3.65-3.36S64.12,28.53,64.48,29.49Z"/><path class="cls-59" d="M76.82,19.61c.36,1-1.27,2.46-3.65,3.36s-4.6.86-5-.09,1.27-2.47,3.65-3.37S76.45,18.65,76.82,19.61Z"/><path class="cls-60" d="M42.84,24.6c.48.9-.93,2.6-3.17,3.81s-4.44,1.46-4.93.56.93-2.61,3.17-3.82S42.35,23.7,42.84,24.6Z"/><path class="cls-61" d="M71.18,24.13c.36.95-1.27,2.46-3.65,3.36s-4.6.86-5-.1,1.27-2.46,3.65-3.36S70.82,23.17,71.18,24.13Z"/><path class="cls-62" d="M54.8,21.18c.14.23-.8,1.05-2.1,1.82s-2.45,1.2-2.6,1,.8-1.05,2.1-1.82S54.66,20.94,54.8,21.18Z"/></g></g></g></svg>