<svg xmlns="http://www.w3.org/2000/svg" xmlns:xlink="http://www.w3.org/1999/xlink" viewBox="0 0 200 200"><defs><style>.cls-1{fill:none;}.cls-2{isolation:isolate;}.cls-3{clip-path:url(#clip-path);}.cls-4{fill:url(#radial-gradient);}.cls-5{opacity:0.61;}.cls-13,.cls-5{mix-blend-mode:overlay;}.cls-6{opacity:0.9;}.cls-7{fill:#ffefdd;}.cls-8{fill:#fff9f2;}.cls-9{fill:#ffe6ca;}.cls-10{fill:#ffddb8;}.cls-11{fill:#ffd6aa;}.cls-12{fill:#ffcf9a;}.cls-13{opacity:0.56;}</style><clipPath id="clip-path"><circle class="cls-1" cx="100.19" cy="102.25" r="45.77"/></clipPath><radialGradient id="radial-gradient" cx="95.95" cy="99.22" fx="68.51616915562973" fy="86.02209258917324" r="48.94" gradientUnits="userSpaceOnUse"><stop offset="0" stop-color="#ffd043"/><stop offset="0.11" stop-color="#ffc743"/><stop offset="0.29" stop-color="#ffad43"/><stop offset="0.51" stop-color="#ff8443"/><stop offset="0.78" stop-color="#ff4c43"/><stop offset="0.8" stop-color="#ff4743"/><stop offset="0.88" stop-color="#ff4c43"/><stop offset="0.97" stop-color="#ff5a43"/><stop offset="0.98" stop-color="#ff5b43"/></radialGradient></defs><title>Planet</title><g class="cls-2"><g id="OBJECTS"><g class="cls-3"><circle class="cls-4" cx="100.19" cy="102.25" r="45.77"/><g class="cls-5"><g class="cls-6"><g class="cls-6"><path class="cls-7" d="M126.57,77.88c.24.84-.33.78-.61,1-1.39.35-2.81.67-4.19,1.07-1.11,0-1.88.8-1.72,2.24l-1.46-.6a10.22,10.22,0,0,1-2.31,2.33c-.4.12-.79.31-1.2.43-1.51-.37-1.72.73-2.87.11-.34.08-.2.62-.26,1a2,2,0,0,0-2,1.44,5.89,5.89,0,0,0-1.07.39l.21.25c-1.25.92-2.47,1.84-3.69,2.79-1.06.16-1.65.13-1.49.74l-.42.33-.86.69-1.89-.5L100,89.36l.87-.69.43-.34c.21-.24.39-.55.59-.79.48-.29,1-.52,1.47-.81l-.82-.93a8,8,0,0,0,.69-.93l1,1.18a4.11,4.11,0,0,0,.74.26l1.24.61,1-.74c.24,0,.42-.07.67-.09l-.36-1.27c.71,0,.6-.45.34-.66-.42-.74-1-.82-1.44-1.28L106,81.26a5.67,5.67,0,0,1,1,.09c.44-.24-.3-1.47-.06-1.88.54,0,1,0,1.6,0a7.24,7.24,0,0,1,1,.1c.53.11-.11-.8.17-.91,1.5-.9,3-1.83,4.51-2.69,1,.07,1.32,0,1.29-.45,1.18-.69,2.42-1.31,3.69-1.94.91.06,1.49-.67,2.23-1a6.49,6.49,0,0,0,1.6,1.62c.29.59.53,1.12.79,1.72s.74.55,1.17,1.51A13.59,13.59,0,0,1,126.57,77.88Z"/><path class="cls-8" d="M107.54,84.82l.36,1.27c-.25,0-.43.07-.67.09l-1,.74L105,86.31a4.11,4.11,0,0,1-.74-.26l-1-1.18a5.27,5.27,0,0,0,.85-.24c.5-.22,0-.92.29-1a2.41,2.41,0,0,1,.4,0,11.76,11.76,0,0,0,.18-1.27c.42.18.85.42,1.26.6l.21-.15c.46.46,1,.54,1.44,1.28C108.14,84.37,108.25,84.78,107.54,84.82Z"/><path class="cls-7" d="M106.74,92.85a9.78,9.78,0,0,1,.84,1.74c-1.66-.2-1.16,2.14-3.27,1.34-.06.63-.19,1.23-.27,1.88-.25.53-1.65-.09-1,1.18l-1.24.26a12,12,0,0,0-1,1.24,6.26,6.26,0,0,0-1,.45l-.52.43a4.06,4.06,0,0,1,.35,1.32c1,0,1.17-.13,1.38-.31l.49.36,1.07,1.13a7.87,7.87,0,0,0-.24,1.06,5.36,5.36,0,0,0-.59.92c-.21.25-.39.58-.61.85l-.21.18c-.35,0-.72-.16-1.13-.23.34.82-.74.37-1.25.21-.11,0-.26,0-.39,0a10.19,10.19,0,0,0-1.23.63c-.39-.87.24-.89.55-1.33L96.29,105l.51-.43c-.16-.55-.31-1.11-.48-1.64-.64-.83-1.3-1.63-2-2.43l-.64-.66c-.54-1.16.34-1.91,1.32-1.13a1.22,1.22,0,0,1,.45.06c.49.27,1,.47,1.48.79L97,98.27c-.36-.21-.73-.49-1.07-.72l-1-1.23c-.56-.71-.36-1.82-1.73-2.2-.14-.3-.29-.6-.45-.89A10.5,10.5,0,0,0,94,93.09c.39-.67-1.16-1.83-1.75-3l-.53.44-1.47-.38-.33.28-.2.17c-.12,1-.61,1.11-.31,1.88l-1.27-.13C88.07,93.4,86,92,86.57,93.66l.22.23c0,.49.07,1,.13,1.53l-.6.52c.05.47.16,1,.24,1.43-1.14-.22-1,1.63-2.52.56l-1.79-1.81.3-.26c-1.7-2.32.43-1.77-.38-3,.11-.35.67-.23,1.39.43.51-.26,1-.57,1.47-.84L84.38,91c1-.66,1.43-2.08,3.74-.7.27-.14.31-.6,1-.12l-.77-1.4c.22-.18-.22-1.59,1.18-.56l.23-.18A1,1,0,0,1,90.17,87,10.28,10.28,0,0,1,92.26,88c.82,1.1-.16.81.33,1.75.69.36,1.44.75,2.15,1.1,1.6,1.3,1.84.85,2.23.61a8.8,8.8,0,0,1,1,.33c.42-.09.2-.67.54-.85.52.41,1,.75,1.58,1.14-.49.82.88,2.22.72,2.6-.43.27-.89.47-1.33.74l-.82.68A18.81,18.81,0,0,0,97.86,98c1.13-.26,1.76-.36,1.68-1l.83-.68,1.15-.93.63-.51,1.55.34a8.06,8.06,0,0,0,.31-1.08c.81-.47,1.64-1,2.43-1.5a1.38,1.38,0,0,0-.13-.31Z"/><path class="cls-8" d="M85.13,95.34a1.63,1.63,0,0,1-.63,1.32A3.59,3.59,0,0,1,83.33,96c0-1.2.24-1.59.77-1.54A5.34,5.34,0,0,1,85.13,95.34Z"/><path class="cls-7" d="M86.24,114l-1.23.64c-.85-.26-1.05.34-1.36.71l-1,1.14-1.46.77-1,.54-.84.45-1,.53-.48.26-.89-.16L76.23,120a4.53,4.53,0,0,1-.51.63c-.45.39-.94.72-1.35,1.09-1.76-.88-.74,1.33-2.54,1-.07.4-.13.78-.18,1.17-.51,0-1,0-1.41.07a2.58,2.58,0,0,0-.16.79,6.2,6.2,0,0,0-.83.11c-.17.3-.78.08-1.47-.54a12.79,12.79,0,0,0,.48,1.44c-.4.3-.77.65-1.15.93a1.83,1.83,0,0,1-.31-.12c-.78.72-1.53,1.5-2.26,2.26a5.13,5.13,0,0,1,.49,1.08l-.23.13-1-.08c-.35.05-.34.33-.42.52-1.45.31-.38,1.42-.59,2a3.74,3.74,0,0,1-.5.64,2,2,0,0,0-2.41,1l-1.09-.75-1,.54-1-.09a1.2,1.2,0,0,0-.19.74l.45.46-.19.74c-.14,0-.36,0-.52,0a6.87,6.87,0,0,0,.16.9,12.67,12.67,0,0,0-.87,1.17c.56,1.46-1.22,1.21-.64,2.66-.25.2-1.09-.2-.84.43l-.84.43c-1.14.16.12,2.16-1.87,1.26-.5-.1.06.66,0,.94-.43.19-.83.37-1.25.54.84,1-.44.38-.22,1.06a8.3,8.3,0,0,1-1,.3,3.85,3.85,0,0,0-.38-.23l-1.46-1.7c-.22-.39-.4-.82-.6-1.23,0-.23-.15-.49-.21-.77a6.38,6.38,0,0,0,.34-.73c.19-.58-.46-1.31-.21-1.47l.11,0,.58-.85.56-.26c0-.34,0-.69,0-1,.31-.29,1.24-.13.64-1.28a4.06,4.06,0,0,0,.12-.75,9.22,9.22,0,0,0,1.28,0,8.67,8.67,0,0,0,.07-1.36,8.37,8.37,0,0,1,0-1.32c.72,0,.29-.92,1-.91a4.16,4.16,0,0,1,.72,0c-.21-.38-.36-.72-.56-1.11l.72-.39.94-.51c.53-.36,1-.75,1.49-1.1-.42-1.9,2.73-1.66,2.76-3.24.76-.92,1.57-1.8,2.36-2.75l3.34-3.85.36-.2c.41.34.78.63,1.22,1,.34.23.4.06.55,0a6.14,6.14,0,0,0-1-1.41c0-1.12.72-1.19.7-1.82l.71-.39,2.4,2.44.57.75c-.36.27-.7.61-1,.86l-1.4,1.85-.48.26a8.69,8.69,0,0,0-1.09.26,14.34,14.34,0,0,1-.8,1.44l-1.11.62a2.5,2.5,0,0,0,0,1.71l1.54.2a4.86,4.86,0,0,1,.6-.69c.09-.19.19-.32.28-.51l.23-.12.37-.22c1.41,0,1.34-.59,1.93-.71l.12-.07a8.29,8.29,0,0,0,.51-1,6.63,6.63,0,0,0,1.09-.25c.13-.43.3-.81.45-1.25l.13-.07,1.92,1-1.66-1.85-.23-.23L70,120c2.72.06.89-2.7,2.81-2.9-.06-.67.28-.72.22-1.11l1.24.68c-.21-.46-.42-.91-.6-1.38a8.42,8.42,0,0,1,1.2-.3l-1-1.18a4.9,4.9,0,0,1,.75-.76l1.69,1.14.22.23c-.37.27-.69.59-1.05.85l1.3,1.35c.32-.67,2.69,1.11,1.35-.73.88,0,.38-.62.62-.68s.36-.41.57-.59c0-.84-1.83-2.12-1.27-2.71l.49-.26.62.66c.35.52.67,1,1,1.49.88.24,1.73.85,2.3.47a10.5,10.5,0,0,1,.66-1c0-.16-.58-1.1,0-1l1.13-.59,1.77,1.11C86.15,113.14,86.19,113.54,86.24,114Z"/><path class="cls-8" d="M63.78,118a6.14,6.14,0,0,1,1,1.41c-.15.09-.21.26-.55,0-.44-.4-.81-.69-1.22-1Z"/><path class="cls-9" d="M153.53,90.39a.1.1,0,0,1,0,0c0-.72-.07.07-.07.58l0,.6a1.12,1.12,0,0,0-.12-.4c-.16-.27-.5-2.61-.57-1.34s-.64-1.45-.69,0c-.41-.39-.94-1.44-1-.59h-.18l-.34,0a2.76,2.76,0,0,1-.06,1.25l-.77-1.77-.39.07a7.11,7.11,0,0,0-1.06-1c-.31-.19-.64-.44-1-.68-.11,1.1-1.07,1-1.59.82-.33-.51-.41-.14-.59-.14.51,1.67-.69-.52-.81-.06-1.19-.26-2.64-.44-3.31.72l-.5.22c-1.76-1.62-1.48,1-2.92.32-.85.65-2.81.07-3.48,1.49-.81-.29-1.77-.5-1.88.4l-1.45.86c-2.26-.46-3,1.36-4.57,1.43-2.74.93-4.86,3.29-7.46,4.38-.48-.37-.47.1-.72.12.86,1.31-.49,0-.62.46-.86.88-2.52,1.24-2.53,2.73l-.19.14a6.55,6.55,0,0,0-.94-.1c-.23.34-.85.33-.8,1l-.61.47c-.57.2-1,.06-.82.65-1.37.83-2.54,1.28-3,2.42l-.18.15-.61.5c-.54,1.37-3.14-.62-2,1.65l-.79.65a10.76,10.76,0,0,0-3.65,1.48L100,111.74c-.94.05-1.17.24-1.4.44-.36-.29-.68-.53-1-.79l-1.39-.08c.68,1.22-1.48.94-1,2.08-.09.67-1.48-.8-1.15.29a1.34,1.34,0,0,0,.35,1.15l-.26.13.35,1.15c-.62.38-.36.81-.48,1.21-.38-.09-.8-.22-1.22-.35.7,1-.29.78,0,1.34s-.6.52-1.09.56l-1.22.63-.48.25c.65.92,0,.89-.29.85-.55.15-1.07.28-1.57.47-.22.33.06.74-.16.79a8.7,8.7,0,0,0-1.06-.15c-.21.05.08.52-.38.55l-.73.4a1.69,1.69,0,0,0-.26.48c-.18.17-.34.4-.55.58l-.23.12c.67,1-.38.84-.09,1.46-.25-.15-.46-.24-.67-.35l-.73.4c-.3,0-.54.08-.84.09-.28.93-1.81.91-2.22,1.91l.64.65a4,4,0,0,1-.13.42,5.21,5.21,0,0,0-.73.76l-.71-.33c-.11.2-.26.36-.37.56l.45.46-.12.07c-.44.31-.82.67-1.25,1l-1.85-.34a1.51,1.51,0,0,1,.1.3,8.35,8.35,0,0,1-.32,1.17c.1.3-.22.76.26,1.2-.38-.07-.81-.19-1.24-.31-.65-.06,0,.74,0,1l-2.34.66-.22.13c.67.91.06.88-.32.81l-.48.27c.69,1,0,.87.19,1.32l-2.72.09a2.47,2.47,0,0,1-.25.49c.23.94,0,1.05-.4.94-.43.31-.82.67-1.23,1,.69.9.09.88-.29.81L66,141c.71,1,.06.89-.28.87s-.69.16-1.06.22c-.65.79-1.76,1.4-2.16,2.18.56,1-.24,1.05-.75,1.12.57,1.1-.61,1-.47,1.59-.65.91-.34,2.58-2,2.73.42.83-1.13.5.38,1.83-1.61.39-.64,2.42-2.36,2.8-.32.56-.1,1.23-.68,1.58-.24-.51-.6-.64-1.15-1.18a5.9,5.9,0,0,1-1.06.47,1.84,1.84,0,0,1-.57.09.54.54,0,0,1-.49-.33l-1.58-2.28c-.37-.53-.79-1.11-1.15-1.66a4.83,4.83,0,0,1-.26-.81c-.6-1.09-1.27-2.22-1.92-3.28l-1.32-1.79c0-.16,0-.33,0-.49.54.4,1.06.73,1.67,1.14a3.67,3.67,0,0,0,.25.48c.76.92,1.47,1.78,2.26,2.69.18.33.4.7.6,1l-.24.07a6.38,6.38,0,0,1-.71.14c.46.41.9.79,1.37,1.18l.93,1,1.48,1.41c-.18-.66-.41-1.3-.65-2L54,151.5a9.43,9.43,0,0,1,.91-.69c1,0,.06-.7.08-1.05l.25-.11.78.32a6.08,6.08,0,0,0,.69-1,7,7,0,0,0,1.19-.24l-.36-1.14.7.34.48-.25c.25-.06.54-.07.79-.13,1.1.12-.58-1.17-.52-1.69l1-.51c.32-.1.72-.17,1-.27l.55-.94c-.29-.41-.57-.82-.83-1.24a1.06,1.06,0,0,1-.1-.3,6.76,6.76,0,0,1,.07-1,12.59,12.59,0,0,1,.11-1.41c.29-.09,1,.43,1.14,0,1,.7.56-.17.7-.39a2,2,0,0,0,.37-.56l1.79.08-.86-.87a4.22,4.22,0,0,1,.24-.85c.38.22.77.5,1.12.73a4.76,4.76,0,0,0,.62-.7l1.64.16a1.8,1.8,0,0,1,.25-.5L67.12,136a7.79,7.79,0,0,0,1.12.38l.19-.75c-.74-.94-.09-.87.27-.86a7.55,7.55,0,0,0,.73-.76c-.77-.93.71-.54.44-1.24.32-.75,1.24-.76,1.35-1.47l1.53-1.49.61-.33c0-.37-.89-.86-.84-1.24l.35-.2c-.62-1.22-.06-1.53.41-1.29,1.25,1.16,1.31,1,1.46.9,0-.4-.72-.81-1.08-1.11L73.28,125l.6-.33c1.47.82,1-.81,2.05-.77a2,2,0,0,0,.59-2.67c.32-.1.69-.16,1-.28l.45.46c1,0,0-.77.26-.84l.26-.14c1.54.79,2.54.67,1.67-.19,1,0,0-.79.28-.87s.43-.44.67-.63a6.62,6.62,0,0,1,2.66,1.61c.53.07,1.38,0,1-.88-.09-.3-.19-.61-.24-.86.38.08.78.22,1.24.33.23-.19.39-.63-.14-1.26l1,.1c.24-.19.46-.45.69-.64.64.44.48-.46,1.46.57a3.37,3.37,0,0,1,.51-.62c-.85-1.51-.71-2.5.29-2.8.74-.1,1.17-.25,1-.87,1.2,0-.41-1,.19-1.14a4.33,4.33,0,0,0,.83-.08c.79.16,0-.89.26-1.11l1.32.67c.49-.46.91-.6.32-1.83a13.8,13.8,0,0,0,1.9-1.24l1.39-1.21a10.19,10.19,0,0,1,1.23-.63c.13,0,.28,0,.39,0,.51.16,1.59.61,1.25-.21.41.07.78.18,1.13.23l.21-.18c.22-.27.4-.6.61-.85a5.36,5.36,0,0,1,.59-.92,7.87,7.87,0,0,1,.24-1.06l-1.07-1.13-.49-.36c-.21.18-.42.36-1.38.31.18,1.3-.39,1.35-1,.86-.14-.31-.31-.6-.42-.84.27-.15.62-.27.89-.42-.33-1,.46-1,.71-1.35a6.26,6.26,0,0,1,1-.45l1.26,1,.11-.09a3.8,3.8,0,0,1,.39-.75c-.11-.32-.23-.65-.37-1,.44.07.87.13,1.29.21l.84.91a.79.79,0,0,1,.33.15l1.28,1.39a4.71,4.71,0,0,1,.5-.82l.09-.07a3.34,3.34,0,0,1,.83-.26c.13,0,.28,0,.39,0l.12-.84c0-1.18.34-1.69,1.43-1.13a2.33,2.33,0,0,1,.43.07l.57-1.68c-1.34-1-.09-1,.41-.73-.13-1.71,1.24-1.28,1.8-1.71a6.4,6.4,0,0,1,.64-.88c.57-2.06,4.55,0,3.91-3.26.22-.24,1,.18.73-.52a.81.81,0,0,0,.13-.89c-.49-.92-1.26-.7-.7.18l-.54.38c-.79-1-.61.2-1.24-.31,0,.74-.81.82-1.2,1.26-.78-1.12-1.22-.48-1.65-.73l-.79-1,1.74-1.26c.63.26.77-.32.67-.89.28-.36.61-.67.9-1h1.7l.44-.3.66-.46,1.88-1.25c1.31.45,2,.48,2-.23l.65-.41a3.18,3.18,0,0,1,.87-.16c.17-.42.54,0,1,.46.73,2,1.71,2.54,1.56,1.26l.44-.27a5,5,0,0,1,.85-.14c1,.63.3-.93.93-.92a8.66,8.66,0,0,1,1.24,0l.88-.5c1-.09,1.7,0,1.42-1.15l.56-.29,1.09.82c.19-.24.71-.07.6-.67.9-.32,1.76-.66,2.64-.93,0-.35-.21-1,0-1a8.4,8.4,0,0,1,1,.55c.85,2,1.32.63,1.54.32a6.43,6.43,0,0,1-.21-1.25l.1,0c.42.17.83.37,1.22.56l.56-.22a7.74,7.74,0,0,0,1,1.3c.36-1,1.62-.1,2.43.47l.82-.25a5.17,5.17,0,0,1,.92-.6l.62-.16c1,1.44.67.38.92.46s.38.12.56.15c.86-.1,2.17,2.07,2.76,1.51.65.47,1.2,1.58,1.67,1.53a3.67,3.67,0,0,1,.83.74l0,1.56c.09.42.18.9.24,1.31.15-.13.25.38.19,1.09C153.6,89.65,153.57,90,153.53,90.39Z"/><path class="cls-9" d="M133,69.42c-.4,1-1,1.08-1.59.35C131.7,68.49,132.16,68.35,133,69.42Z"/><path class="cls-9" d="M127.1,70.49c0,1.69-.73,1.85-1.52.8,0-.51,0-1,0-1.4A15.41,15.41,0,0,1,127.1,70.49Z"/><path class="cls-9" d="M123.44,71.72a6.37,6.37,0,0,1-.45,2.43,6.49,6.49,0,0,1-1.6-1.62c0-.44-.13-.91-.16-1.34l1.53.25C123,71.53,123.23,71.62,123.44,71.72Z"/><path class="cls-9" d="M109.67,78.63c-.28.11.36,1-.17.91a7.24,7.24,0,0,0-1-.1c-.54-.9,0-.85-.2-1.38C108.41,77.6,109.11,78.3,109.67,78.63Z"/><path class="cls-9" d="M106,81.26l.44,1.62-.21.15c-.41-.18-.84-.42-1.26-.6a11.76,11.76,0,0,1-.18,1.27,2.41,2.41,0,0,0-.4,0l-1.64-1.93,1-.76c.09-.31.13-.58.19-.87l1.07-.06c.61-.21,1.24-.42,1.91-.58-.24.41.5,1.64.06,1.88A5.67,5.67,0,0,0,106,81.26Z"/><path class="cls-9" d="M96.23,89.65l-.34.27L97,91.48c-.39.24-.63.69-2.23-.61-.71-.35-1.46-.74-2.15-1.1-.49-.94.49-.65-.33-1.75l.45-.37c.4-.41.79-.89,1.18-1.37a3,3,0,0,1,.77.63Z"/><path class="cls-9" d="M99.54,97c.08.61-.55.71-1.68,1a18.81,18.81,0,0,1,.84-1.88Z"/><path class="cls-9" d="M92.25,90.05c.59,1.21,2.14,2.37,1.75,3a10.5,10.5,0,0,1-1.19.14,5.54,5.54,0,0,0-.51-.33,10.23,10.23,0,0,0-1.28.65c-.22,0-.42.09-.64.11l-1-1.22c-.3-.77.19-.93.31-1.88l.2-.17.33-.28,1.47.38Z"/><path class="cls-9" d="M97,99.59c-.53-.32-1-.52-1.48-.79-.4-.86.22-1,.47-1.25.34.23.71.51,1.07.72Z"/><path class="cls-9" d="M84,97.93c-.25,1.17.27,1.79-.87,1.18-.82-.92-.39-1.42-.57-2.09.08-.26-.75-.2-.76-.54l.41-.36Z"/><path class="cls-10" d="M91.91,111.09c-.29.22.53,1.27-.26,1.11a4.33,4.33,0,0,1-.83.08c-.6.09,1,1.09-.19,1.14.16.62-.27.77-1,.87-1,.3-1.14,1.29-.29,2.8a3.37,3.37,0,0,0-.51.62c-1-1-.82-.13-1.46-.57-.23.19-.45.45-.69.64l-1-.1c.53.63.37,1.07.14,1.26-.46-.11-.86-.25-1.24-.33,0,.25.15.56.24.86.39.92-.46,1-1,.88a6.62,6.62,0,0,0-2.66-1.61c-.24.19-.43.44-.67.63s.72.82-.28.87c.87.86-.13,1-1.67.19l-.6-1.38.48-.26,1-.53.84-.45,1-.54,1.46-.77,1-1.14c.31-.37.51-1,1.36-.71l1.23-.64c0-.47-.09-.87-.1-1.29a3.68,3.68,0,0,1,.31-.86c.39.22.78,0,1.42,1l.36-.18a10.49,10.49,0,0,1,1.34-.35l.72-.36-.65-.72c.62-.18,1.25-.36,1.83-.58s1.37-.48,2.08-.69c.59,1.23.17,1.37-.32,1.83Z"/><path class="cls-9" d="M90.29,111.92l-.72.36a10.49,10.49,0,0,0-1.34.35c-.26-.44-.53-.86-.81-1.27.06-.8,1.12-.65,2.22-.16Z"/><path class="cls-7" d="M74.38,104.34a5.5,5.5,0,0,1-.85.1c-.66-.08-.21.82.13,1.34l2,2A20.13,20.13,0,0,0,74.06,109l-2.14-2.25-.13.07-2.23-2.56a2.58,2.58,0,0,1,.41-.57,34.56,34.56,0,0,1,2.91-1.92A6.3,6.3,0,0,0,74.3,103C74.3,103.46,74.37,103.91,74.38,104.34Z"/><path class="cls-9" d="M76.23,107.1a3.61,3.61,0,0,0-.53.63l-2-2c.47,0,1,.1,1.51.19Z"/><path class="cls-9" d="M71.43,107c.38,1.15,0,1.33-.27,1.5-.44-.26-.88-.31-1.24-.68C70,106.68,70.39,106.34,71.43,107Z"/><path class="cls-9" d="M73.71,115.25c.18.47.39.92.6,1.38L73.07,116c.06.39-.28.44-.22,1.11-1.92.2-.09,3-2.81,2.9-.48-.66-.9-1.28-1.36-1.95.77-1.07,1.63-1.47,1.27-2.76.45.1.94.19,1.42.28l.84-.46a4.85,4.85,0,0,1,.65-.71Z"/><path class="cls-10" d="M70,120l-.51.28.23.23a5,5,0,0,0-.26.85l-.13.07c-.15.44-.32.82-.45,1.25a6.63,6.63,0,0,1-1.09.25,8.29,8.29,0,0,1-.51,1l-.12.07c-.42-.34-.83-.68-1.22-1a1.52,1.52,0,0,0-.71,1.74l-.37.22-.23.12c-.09.19-.19.32-.28.51a4.86,4.86,0,0,0-.6.69l-1.54-.2-.39-1.14c.44-.46.47-1.19,1.49-1.19a14.34,14.34,0,0,0,.8-1.44,8.69,8.69,0,0,1,1.09-.26l.48-.26,1.4-1.85c.34-.25.68-.59,1-.86l-.57-.75c.37-.06.72-.18,1.09-.24C69.14,118.68,69.56,119.3,70,120Z"/><path class="cls-9" d="M71.42,122.32l-1.92-1a5,5,0,0,1,.26-.85Z"/><path class="cls-9" d="M65.27,124.66a1.52,1.52,0,0,1,.71-1.74c.39.35.8.69,1.22,1C66.61,124.07,66.68,124.66,65.27,124.66Z"/><path class="cls-9" d="M58.32,115.92a8.38,8.38,0,0,0,0,1l-.48.27c-.08.4-.13.78-.22,1.13.18.89-.63.56-1.5.19l.48,1.09c-.44.1-.6.62-1.31.37-.3-.26-.67-.55-1-.8l-1,.54-1.55-1.56-.26-1.21,2.44,1.7c.49-.34.93-.73,1.42-1.07L53.85,116c.29-.31.67-.59,1-.91.42.19.79.55,1.45.9.16.05.29.05.48.09-.17-.34-.36-.73-.51-1.08l.74-.41a5.55,5.55,0,0,0,.54.34C57.8,115.28,58,115.59,58.32,115.92Z"/><path class="cls-9" d="M64.39,125.51a4.86,4.86,0,0,0-.6.69A4.86,4.86,0,0,1,64.39,125.51Z"/><path class="cls-9" d="M61.87,126.56c1.18,1.62-.61,1.2-.11,2.13-.14.64-1.1-.32-1.6-.46l-.23-.23c-.13-.5-.25-1-.36-1.51C60.27,126.45,60.21,125.28,61.87,126.56Z"/><path class="cls-11" d="M61.37,117.29l1.31,1.34-3.34,3.85c-.79,1-1.6,1.83-2.36,2.75,0,1.58-3.18,1.34-2.76,3.24-.51.35-1,.74-1.49,1.1l-.94.51-.72.39c.2.39.35.73.56,1.11a4.16,4.16,0,0,0-.72,0c-1.08-1.25-2.19-2.48-3.25-3.67a19.23,19.23,0,0,1,1.26-1.67l1.35-.1c.82.12.06-1-.47-1.79l.35-.19,1.63.51c.89.15-.24-1.14,0-1.44.17-.88.38-1.14.34-1.54l1.2-.67c.53.13,1.1.31,1.6.46.92.06.26-1,.35-1.55.71.25.87-.27,1.31-.37l-.48-1.09c.87.37,1.68.7,1.5-.19.09-.35.14-.73.22-1.13l.48-.27a11.68,11.68,0,0,0,1.38.23l1-.54Z"/><path class="cls-9" d="M51.82,123.26c-.54-.27-1-.17-1.34-.61-1.14-1.5.19-1.17.46-1.61a8.09,8.09,0,0,1,1.22.68C52.2,122.12,52,122.38,51.82,123.26Z"/><path class="cls-9" d="M57.46,132.07l-2.07-.21c-.62-1.29.11-1.33.46-1.6C56.53,131,57.48,131.78,57.46,132.07Z"/><path class="cls-9" d="M47.69,129.26c-.14.36-.42,1.27-1.58.2-1.4-1.63,0-1.17-.37-1.83.21-.32.74-.11,1.44.21Z"/><path class="cls-9" d="M47,132.64l-.58.29c.11.71-.56.69-.47,1.27.31.39-.31.35-.46.56l-.11.05c-.63-.51-1.24-1-1.85-1.43-.73-.88-.28-.74-.18-.86l1.24-.6.24-.11c-.15-.55-.2-1-.3-1.51.41-.14.83-.22,1.22-.35Z"/><path class="cls-7" d="M153.92,88.23c-.08.26-.11.44-.15.6l-.07.38c0,.15-.06.31-.08.45l-.06.52,0,.27c0,.07,0,0,0,0v-.06c0-.37.07-.74.13-1.18l0,0s0,.08,0,.12v.07l0-.13.09-.47C153.84,88.54,153.86,88.43,153.92,88.23Z"/><path class="cls-7" d="M153.42,93.21l0,.68,0,.77c0,.49.07,1.06.12,1.51l-.07-.74c-.1-.93-.16-1.08-.3-2.25-.28-.71-.3,0-.81-1-.17-.06-.34-.2-.56-.31h-.21l-.29,0c-.31-1.07-.4-.35-.7-.82-.22-.1-.41-.13-.64-.22l-.52.11c-.16-.56-.56-1.53-.64-1.11s-.93-1.17-.86-.12c.24.54-.13.24-.2.4-.32-.79-.41-.42-.72-1.08-.43.06.56,2.61-.56,1.47-.66-.46-1.71-1.4-1.93-.34.34,3.21-2.92-3.79-2,.17,0,.44-.6-.52-.79-.36a11.87,11.87,0,0,1-1.1.85c-.85-1.1-.86.55-1.72-.54,0,.53-.14,1.15-.73.73-.8-.1-1.22.11-2,0-.08.48-1.49-1-.83.45.6,1-.27.67-.44,1-.95-1-1,.64-2.11-.59-.59.11-1.17.24-1.81.32l.05,1.11c-2.82,1.12-5.38,1.64-8.14,3.48-1.67-.58-.2,1.81-1.83,1.3-1.35.08-1.62,1.24-2.86,1.28-.92-.54,0,.73-.41.7-.61,1.11-2.05.49-3.05.77,0-1.49,1.67-1.85,2.53-2.73.13-.5,1.48.85.62-.46.25,0,.24-.49.72-.12,2.6-1.09,4.72-3.45,7.46-4.38,1.52-.07,2.31-1.89,4.57-1.43l1.45-.86c.11-.9,1.07-.69,1.88-.4.67-1.42,2.63-.84,3.48-1.49,1.44.66,1.16-1.94,2.92-.32l.5-.22c.67-1.16,2.12-1,3.31-.72.12-.46,1.32,1.73.81.06.18,0,.26-.37.59.14.52.17,1.48.28,1.59-.82.36.24.69.49,1,.68a7.11,7.11,0,0,1,1.06,1l.39-.07.77,1.77a2.76,2.76,0,0,0,.06-1.25l.34,0h.18c0-.85.56.2,1,.59,0-1.42.73,1.36.69,0s.41,1.07.57,1.34a1.12,1.12,0,0,1,.12.4v.88l0,1.28c0-.39,0-.86,0-1.22s0-.77,0-1l0,.64Z"/><path class="cls-7" d="M153.52,90.36c-.05.89-.05.54-.07.58C153.45,90.43,153.5,89.64,153.52,90.36Z"/><path class="cls-11" d="M140.87,75.33c-.62,2.62-2.58,1.5-3.4,3-1-.69-.7.09-.92.12-1.28-.21-1.67.33-2.5-.57a11.66,11.66,0,0,0-1.47.35c-.36.84-1.49,0-1.57,1.47l-.21.11c-.38-.24-.76-.55-1.14-.79,0,.38,0,.75-.06,1.14-1.08-.38-1.34-.15-1.33.37a5.19,5.19,0,0,0-1.09.24l-1.38.81-.45.26c-1-.35-1.53-.44-1.39.09.44,1.1-.68-.58-.72.13-.38.32-1,.35-1.21,1.07-.26.08-.56.13-.82.21-.28-.2-.55-.42-.81-.64l-.65,1.6-1.88,1.25-.66.46-.44.3h-1.7c-.29.35-.62.66-.9,1,.1.57,0,1.15-.67.89l-1.74,1.26a2.33,2.33,0,0,0-.3-.18c-1.39-.35-.44.65-.55.81-.22.57-.47,1.08-.7,1.67l-.73.55-3-.4c-.06.13-.09.31-.16.45a1.38,1.38,0,0,1,.13.31c-.79.54-1.62,1-2.43,1.5l-.4-.43c-.85-.16-1-.07-1.07,0a19.24,19.24,0,0,1-1.75-1.35l1.36,2.5-.63.51-.67-.72c.16-.38-1.21-1.78-.72-2.6a3.5,3.5,0,0,1,.44.07,2.09,2.09,0,0,1,.2-.58l1.89.5.86-.69.42-.33c-.16-.61.43-.58,1.49-.74,1.22-1,2.44-1.87,3.69-2.79l.86-.64a2,2,0,0,1,2-1.44c.06-.36-.08-.9.26-1,1.15.62,1.36-.48,2.87-.11.41-.12.8-.31,1.2-.43a10.22,10.22,0,0,0,2.31-2.33l1.46.6c-.16-1.44.61-2.24,1.72-2.24,1.38-.4,2.8-.72,4.19-1.07.28-.24.85-.18.61-1l.37-.21c1.08.22,1.13-.11,1.24-.31s.5,0,.73-.1c.79-.43,1.59-.84,2.4-1.24.3.35.58.65.9,1a4.57,4.57,0,0,1,.28-.86l.48-.23.83-.4c.61.44,1.22-.62,1.91-.14C137.51,75.67,139,74.61,140.87,75.33Z"/><path class="cls-7" d="M132.21,77c-.32-.35-.6-.65-.9-1-.13-.67.32-1.33,1.18.14A4.57,4.57,0,0,0,132.21,77Z"/><path class="cls-7" d="M125.58,69.89c0,.44,0,.89,0,1.4a20.77,20.77,0,0,0-2.14.43c-.21-.1-.45-.19-.68-.28l-1.53-.25-.18-.28c.2-.19.39-.45.6-.64a4.77,4.77,0,0,1,.6-.71c.3-.62,1.41.92,1.91,1.09-.1-.61-.85-1.53-.62-1.81l.66-.36a2.6,2.6,0,0,1,.58.07l.13.22Z"/><path class="cls-7" d="M126.94,77.67c-.12-.75.41-1.42,1.24-.31C128.07,77.56,128,77.89,126.94,77.67Z"/><path class="cls-7" d="M100.92,82.39a10,10,0,0,0-.19,1.29l-.12.09h-2l.14,1c-1.11-.28-.88,1.36-2,.87a7.44,7.44,0,0,0-1.19.53l-.75.61-.11.09a3,3,0,0,0-.77-.63l-.51-1.6c.33-.11.42-.67,1-.38.34-.11.64-.26,1-.36.14-.29.3-.5.45-.78-.63-1,.34-.76.48-1.13a5.09,5.09,0,0,0,1.07.32c-.16-1,.05-1.19.28-1.37a2.42,2.42,0,0,1,1.26,1,.61.61,0,0,1,.1-.07l-.39-1.35c.3-.07.35-.6.87-.26C99.79,81.12,100.77,81.77,100.92,82.39Z"/><path class="cls-7" d="M114.63,101c0,1.07-.54,1.07-1.31,1.42-.16.21-.28.47-.43.67-.32.17-.68.28-1,.45-1.18.61-2.32,1.27-3.46,1.94.48-1.14,1.65-1.59,3-2.42-.21-.59.25-.45.82-.65l.61-.47c0-.71.57-.7.8-1A6.55,6.55,0,0,1,114.63,101Z"/><path class="cls-7" d="M108.26,105.61c.39.86.25,1,0,1.16.21.42.38.79.61,1.19-.07.82-1.15-.48-1.48,0-1.23-.76,0,1.94-1.74-.16-1.15-2.27,1.45-.28,2-1.65Z"/><path class="cls-7" d="M104.62,109.48a2.22,2.22,0,0,1-2.21,3.08,1.21,1.21,0,0,1,.25,1c-.35,0-.74-.14-1.13-.23L100,111.74l1.25-1.85a10.76,10.76,0,0,1,3.65-1.48A8.38,8.38,0,0,0,104.62,109.48Z"/><path class="cls-7" d="M98.89,112.69a22.8,22.8,0,0,1-4.44,2.14,1.34,1.34,0,0,1-.35-1.15c-.33-1.09,1.06.38,1.15-.29-.52-1.14,1.64-.86,1-2.08l1.39.08c.29.26.61.5,1,.79A5.43,5.43,0,0,0,98.89,112.69Z"/><path class="cls-7" d="M97.54,120.3l-.73.37c-.35-.46-.71-.48-.8-.3-1.24-.13-2.27,1.09-2.59,2-.65,0-1.75-1-2.37-.79-.44.57-1.58.61-2.42.91,0,1.53-1.45,1.54-2.21,1.87l-.25.14c.43,1-.47,1.09-.84,1.43l-1,.51c.19,1.38-2.36,1.13-2.17,2.51-.58-.6-.74-.16-1.33-1l-.64-.65c.41-1,1.94-1,2.22-1.91.3,0,.54-.08.84-.09L84,125c.21.11.42.2.67.35-.29-.62.76-.41.09-1.46l.23-.12c.21-.18.37-.41.55-.58a1.69,1.69,0,0,1,.26-.48l.73-.4c.46,0,.17-.5.38-.55a8.7,8.7,0,0,1,1.06.15c.22,0-.06-.46.16-.79.5-.19,1-.32,1.57-.47.33,0,.94.07.29-.85l.48-.25,1.22-.63c.49,0,1.31-.05,1.09-.56s.73-.3,0-1.34c.42.13.84.26,1.22.35.12-.4-.14-.83.48-1.21.36.51.68,1,1,1.5l1.44.94C97.35,119.21,98.61,120.45,97.54,120.3Z"/><path class="cls-7" d="M100.06,124c-1.2-.58-1.8,1.74-2.91-.82l.73-.37.25-.13c.36,0,.74,0,1.12.06C99.91,123.2,99.55,123.45,100.06,124Z"/><path class="cls-7" d="M76.73,104.43c1.11,1.11,1.29,1.5.88,1.94.24,1,.23,1.78-.92.84a1.59,1.59,0,0,0-.46-.11L75.17,106l-.35-1.16,1.16,0Z"/><path class="cls-7" d="M67.68,111.37c1.19,1.06,1.3,1.5,1,2.22.11.23.26.5.4.77l-2.3-.79-1.31-1.34.51-.29a5.87,5.87,0,0,0,.94.2C67.18,111.86,67.44,111.65,67.68,111.37Z"/><path class="cls-10" d="M66.79,113.57c0,.15-.1.27-.13.43a8.64,8.64,0,0,1-1.07-.13,2,2,0,0,1-.29.88l.63.65-.74.41-.71.39c0,.63-.74.7-.7,1.82l-.74.41-.36.2-1.31-1.34-.68-.69c-.25-.29-.52-.64-.74-.94l.36-.2c.24,0,.46,0,.71,0,.24-.28.52-.51.77-.79a4.22,4.22,0,0,0,.51-.64l1.33-.74c.44-.6.21-1.9,1.85-1Z"/><path class="cls-7" d="M67.51,114.88c-.5.21-1,.35-1.58.52l-.63-.65a2,2,0,0,0,.29-.88,8.64,8.64,0,0,0,1.07.13Z"/><path class="cls-10" d="M78.27,120.57c-.27.07.74.8-.26.84-.53-.06-1-.14-1.49-.18a2,2,0,0,1-.59,2.67c-1.09,0-.58,1.59-2.05.77l-.6.33.38,1.49c.36.3,1,.71,1.08,1.11-.15.08-.21.26-1.46-.9-.47-.24-1,.07-.41,1.29l-.35.2c0,.38.86.87.84,1.24l-.61.33-1.53,1.49c-.11.71-1,.72-1.35,1.47.27.7-1.21.31-.44,1.24a7.55,7.55,0,0,1-.73.76c-.36,0-1-.08-.27.86l-.19.75a7.79,7.79,0,0,1-1.12-.38l.72,1.31a1.8,1.8,0,0,0-.25.5L66,137.6a4.76,4.76,0,0,1-.62.7c-.35-.23-.74-.51-1.12-.73l-.64-.64c-1-.09-.8.44-.41.87.25.21.52.42.81.62l.86.87L63,139.21c-.45-.88.07-.75-.14-1.27-1.66-.86-1.66,1.13-3-.66.1-.41-.13-.64-.19-1.32-.37-.22-.76-.5-1.11-.73-.5-.08-1-.1-1.49-.18l-.45-.46a1.2,1.2,0,0,1,.19-.74l1,.09,1-.54,1.09.75a2,2,0,0,1,2.41-1,3.74,3.74,0,0,0,.5-.64,10.92,10.92,0,0,0,1.28,0c-.34-.66,1.06-.23.22-1.11l1.08-.61c-.2-.24-.38-.5-.56-.75l.23-.13,1.28.35c1.06-.59,1.09-1.46,1.61-3,1.58.25,1.11-.62.75-1.14l-.41-.41a12.79,12.79,0,0,1-.48-1.44c.69.62,1.3.84,1.47.54a6.2,6.2,0,0,1,.83-.11,2.58,2.58,0,0,1,.16-.79c.43,0,.9-.08,1.41-.07,0-.39.11-.77.18-1.17,1.8.29.78-1.92,2.54-1,.41-.37.9-.7,1.35-1.09a4.53,4.53,0,0,0,.51-.63c.43.33.87.66,1.33,1Z"/><path class="cls-7" d="M80.75,128.42c1,1.74,0,1.06-.32,1.17.76.93.13.85-1,.28l-.12.07a4.34,4.34,0,0,1-.33-.53c.11-.2.26-.36.37-.56l.71.33A5.21,5.21,0,0,1,80.75,128.42Z"/><path class="cls-7" d="M60.69,116.6l-1,.54a11.68,11.68,0,0,1-1.38-.23,8.38,8.38,0,0,1,0-1c-.29-.33-.52-.64-.78-1a5.55,5.55,0,0,1-.54-.34c-.4-.85-.25-.93,1.07-.24l.18.18.91.92.79.21C60.17,116,60.44,116.31,60.69,116.6Z"/><path class="cls-7" d="M55.4,117.56a.7.7,0,0,0,.05.25l-1.47.82-2.44-1.7c0-1,.73-.9.94-1.16.66.62,1.08.46,1.37.23Z"/><path class="cls-7" d="M55.31,120c-.09.55.57,1.61-.35,1.55-.5-.15-1.07-.33-1.6-.46L52.87,120c-.46-.31-.9-.64-1.34-1-1-1.37.13-.86.27-.87l1.55,1.56,1-.54C54.64,119.41,55,119.7,55.31,120Z"/><path class="cls-7" d="M51.82,123.26c-.28.3.85,1.59,0,1.44l-1.63-.51c.08-1-.13-1.49.33-1.54C50.84,123.09,51.28,123,51.82,123.26Z"/><path class="cls-7" d="M49.8,124.38c.53.84,1.29,1.91.47,1.79l-1.35.1-.57-1.1Z"/><path class="cls-7" d="M43.92,135.45c-.22-.16-.38-.3-.56-.42-.77-1.51-.14-1.46.13-1.65.61.46,1.22.92,1.85,1.43C44.87,135,44.39,135.25,43.92,135.45Z"/><path class="cls-7" d="M42.65,135.32c-.58-.17-1.18-.39-1.73-.6.15.26.22.49.35.74-.19.34.4,1.07-.06.83-.16.06-.29,0-.29,0s-.16,0-.14.15c.27.43-.11.06-.15.1l-.18-.26c.06-.27-1-1.65-.67-1.34-.18-.21-.22-.18-.17-.12s.19.15.29.12c-.14-.23-.25-.48-.38-.73.35.13.2-.24.28-.56s0-.6,0-.9c1.22.94,1.71,1.72,2.95,2.59Z"/><path class="cls-10" d="M48.8,145.81c-.61-.41-1.13-.74-1.67-1.14l-.91-1.26h-.33c0,.16,0,.31,0,.44a3.22,3.22,0,0,1-1-1.13l-1.26-1.81-1.86-2.65a3.38,3.38,0,0,1-.21-.52c.4.47.83.93,1.25,1.37.09-.06.22-.09.31-.16l.66.76c.42.61.85,1.26,1.28,1.94.24.26.48.51.7.72l.39.51c.37.25.78.47,1.09.68l1.46,1.7Z"/><path class="cls-7" d="M47.13,144.67c0,.16,0,.33,0,.49-.41-.43-.83-.86-1.23-1.31,0-.13,0-.28,0-.44h.33Z"/><path class="cls-10" d="M147.37,81.32c-.25-.08.06,1-.92-.46A5.26,5.26,0,0,1,147.37,81.32Z"/><path class="cls-10" d="M145.83,81a5.17,5.17,0,0,0-.92.6l-.82.25c-.81-.57-2.07-1.43-2.43-.47a7.74,7.74,0,0,1-1-1.3l-.56.22c-.11,1-.49.34-1.32-.52a6.43,6.43,0,0,0,.21,1.25c-.22.31-.69,1.71-1.54-.32a8.4,8.4,0,0,0-1-.55c-.22,0,0,.65,0,1-.88.27-1.74.61-2.64.93.11.6-.41.43-.6.67L132.13,82l-.56.29c.28,1.11-.46,1.06-1.42,1.15l-.88.5a8.66,8.66,0,0,0-1.24,0c-.63,0,.05,1.55-.93.92a5,5,0,0,0-.85.14l-.44.27c.15,1.28-.83.74-1.56-1.26-.43-.42-.8-.88-1-.46a3.18,3.18,0,0,0-.87.16l-.65.41c0,.71-.7.68-2,.23l.65-1.6c.26.22.53.44.81.64.26-.08.56-.13.82-.21.16-.72.83-.75,1.21-1.07,0-.71,1.16,1,.72-.13-.14-.53.34-.44,1.39-.09l.45-.26,1.38-.81a5.19,5.19,0,0,1,1.09-.24c0-.52.25-.75,1.33-.37,0-.39,0-.76.06-1.14.38.24.76.55,1.14.79a11.47,11.47,0,0,0,.2-1.13c.22-.27.67-.27,1,.19.64.55.33-.46.54-.64a11.66,11.66,0,0,1,1.47-.35c.83.9,1.22.36,2.5.57.22,0-.09-.81.92-.12.82-1.48,2.78-.36,3.4-3,.4-.2.81-.48,1.22-.67.3.11.55.24.82.36s.64,0,1,.07a15.57,15.57,0,0,1,1.37,3.2Z"/><path class="cls-10" d="M129.75,69.82c-.42,1.36-1,1.66-1.83.62C127.49,69.11,128.36,69.05,129.75,69.82Z"/><path class="cls-10" d="M115.47,75.49c0,.44-.31.52-1.29.45C114.05,75.17,114.44,74.53,115.47,75.49Z"/><path class="cls-10" d="M119.25,89.87c-1-1.33-.69-1.58.16-1.29C120.72,89.81,119.3,89.44,119.25,89.87Z"/><path class="cls-10" d="M117.75,90.52c.25.7-.51.28-.73.52.64,3.21-3.34,1.2-3.91,3.26a6.4,6.4,0,0,0-.64.88c-.56.43-1.93,0-1.8,1.71-.5-.28-1.75-.29-.41.73l-.57,1.68a2.33,2.33,0,0,0-.43-.07c-1.09-.56-1.41,0-1.43,1.13l-.12.84c-.11,0-.26,0-.39,0a3.34,3.34,0,0,0-.83.26l-.09.07a4.71,4.71,0,0,0-.5.82l-1.28-1.39a.79.79,0,0,0-.33-.15l-.84-.91c-.42-.08-.85-.14-1.29-.21.14.31.26.64.37,1a3.8,3.8,0,0,0-.39.75l-.11.09-1.26-1a12,12,0,0,1,1-1.24L103,99c-.61-1.27.79-.65,1-1.18.08-.65.21-1.25.27-1.88,2.11.8,1.61-1.54,3.27-1.34a9.78,9.78,0,0,0-.84-1.74c-.11-.08-.19-.1-.3-.18a1.38,1.38,0,0,0-.13-.31c.07-.14.1-.32.16-.45l3,.4.73-.55c.23-.59.48-1.1.7-1.67.11-.16-.84-1.16.55-.81a2.33,2.33,0,0,1,.3.18l.79,1c.43.25.87-.39,1.65.73.39-.44,1.17-.52,1.2-1.26.63.51.45-.72,1.24.31l.54-.38c-.56-.88.21-1.1.7-.18A.81.81,0,0,1,117.75,90.52Z"/><path class="cls-10" d="M110,86.9l-.86.64-.21-.25A5.89,5.89,0,0,1,110,86.9Z"/><path class="cls-10" d="M104.39,83.67c-.27,0,.21.74-.29,1a5.27,5.27,0,0,1-.85.24,8,8,0,0,1-.69.93l.82.93c-.48.29-1,.52-1.47.81-.2.24-.38.55-.59.79l-.43.34q-.61-.51-1.26-1c-.25.11-.28.38-.44.76l.83.92.75,2.23a2.09,2.09,0,0,0-.2.58,3.5,3.5,0,0,0-.44-.07c-.55-.39-1.06-.73-1.58-1.14-.34.18-.12.76-.54.85a8.8,8.8,0,0,0-1-.33l-1.08-1.56.34-.27-1.57-2.74.11-.09.75-.61a7.44,7.44,0,0,1,1.19-.53c.46-.28,1-.51,1.38-.77,1.13.53,0-1,.51-1.14h2l.12-.09a10,10,0,0,1,.19-1.29c.34,0,.69,0,1-.07-.19-.59.39-.54.78-.58Z"/><path class="cls-10" d="M101.52,95.42l-1.15.93-.83.68-.84-.91.82-.68c.44-.27.9-.47,1.33-.74Z"/><path class="cls-10" d="M90.38,93.66,88.7,95.09c-.6-.6-1.31-.42-1.91-1.2l-.22-.23c-.56-1.66,1.5-.26,1.57-1.35l1.27.13Z"/><path class="cls-10" d="M74.82,104.81l.35,1.16c-.51-.09-1-.15-1.51-.19a1,1,0,0,0-.35-.16c-.66-1.28.53-1.07,1.07-1.28,0-.43-.08-.88-.08-1.3a15.14,15.14,0,0,1,1.56-.13c.58.54,1.1,1.26.87,1.52Z"/><path class="cls-10" d="M74.91,115a8.42,8.42,0,0,0-1.2.3l-.85-.89,1.1-.59Z"/><path class="cls-10" d="M69.08,108.89c.26,1.5-.56,1.59-1.18,1.72l-.22.76c-.24.28-.5.49-.75.77a5.87,5.87,0,0,1-.94-.2l-.85-.88a.86.86,0,0,0,0-.36c.71-.25,1.42-.49,2.08-.79C67.5,109,67.71,108.08,69.08,108.89Z"/><path class="cls-11" d="M63,139.21a2,2,0,0,1-.37.56c-.14.22.34,1.09-.7.39-.1.41-.85-.11-1.14,0a12.59,12.59,0,0,0-.11,1.41c-.42-.27-.82-.47-1.22-.68l-.19.74a5,5,0,0,0-.27.85,8,8,0,0,0-1.06.21c-.24.48-.29,1.49-1.57.83l.06.6,1.29,1.35a1.55,1.55,0,0,1-.15.43,11.22,11.22,0,0,1-1.28,0,1.73,1.73,0,0,1-.25.47,14.74,14.74,0,0,1-1.66.47l.52.78a7.43,7.43,0,0,0-.85.73l1.19,1.36-.25.11c0,.35.88,1-.08,1.05a9.43,9.43,0,0,0-.91.69l.05.25a2.32,2.32,0,0,1-.28-.16c-.17.25-.36.51-.55.75l-.93-1-.66-1.32.24-.07c-.2-.32-.42-.69-.6-1-.79-.91-1.5-1.77-2.26-2.69a3.67,3.67,0,0,1-.25-.48l-.15-.55a3.85,3.85,0,0,1,.38.23c.86.75,1.75,1.49,2.67,2.19a1.31,1.31,0,0,1,.25-.43l.59.36.31-.73c.3-.26.65-.49,1-.77-.08-.51-.16-1-.22-1.54-.69-.29-1.4-.63-2.1-1,0-.28-.54-1,0-.94,2,.9.73-1.1,1.87-1.26l.84-.43c-.25-.63.59-.23.84-.43-.58-1.45,1.2-1.2.64-2.66a12.67,12.67,0,0,1,.87-1.17,6.87,6.87,0,0,1-.16-.9c.16,0,.38,0,.52,0l.19-.74c.5.08,1,.1,1.49.18.35.23.74.51,1.11.73.06.68.29.91.19,1.32,1.39,1.79,1.39-.2,3,.66C63.11,138.46,62.59,138.33,63,139.21Z"/><path class="cls-10" d="M62.67,139.77c-.14.22.34,1.09-.7.39C63,140.86,62.53,140,62.67,139.77Z"/><path class="cls-10" d="M47.66,127.94c1.06,1.19,2.17,2.42,3.25,3.67-.76,0-.33.89-1,.91a8.37,8.37,0,0,0,0,1.32c-.31.44.15,1.24-.07,1.36a9.22,9.22,0,0,1-1.28,0,14.72,14.72,0,0,1-1-2.12,5.06,5.06,0,0,1-.57-.4L45.71,130c.15-.14.25-.34.4-.49,1.16,1.07,1.44.16,1.58-.2l-.51-1.42C47.37,127.88,47.49,127.89,47.66,127.94Z"/><path class="cls-10" d="M60.72,141.55a6.76,6.76,0,0,0-.07,1,1.06,1.06,0,0,0,.1.3c.26.42.54.83.83,1.24-.09.26-.21.54-.33.81l-.22.13c-.32.1-.72.17-1,.27l-1,.51c-.06.52,1.62,1.81.52,1.69-.25.06-.54.07-.79.13l-.48.25-.7-.34.36,1.14a7,7,0,0,1-1.19.24,6.08,6.08,0,0,1-.69,1l-.78-.32-1.19-1.36a7.43,7.43,0,0,1,.85-.73l-.52-.78a14.74,14.74,0,0,0,1.66-.47,1.73,1.73,0,0,0,.25-.47,11.22,11.22,0,0,0,1.28,0,1.55,1.55,0,0,0,.15-.43l-1.29-1.35-.06-.6c1.28.66,1.33-.35,1.57-.83a8,8,0,0,1,1.06-.21,5,5,0,0,1,.27-.85l.19-.74C59.9,141.08,60.3,141.28,60.72,141.55Z"/><path class="cls-10" d="M44.79,131.81l-.24.11-1.24.6c-.71-1.15-.61-1.54,0-1.65,0-.64.24-1.08,1.14-.57C44.59,130.8,44.64,131.26,44.79,131.81Z"/><path class="cls-10" d="M48.42,135.91c.6,1.15-.33,1-.64,1.28,0,.33,0,.68,0,1l-1.07-1.13c-.08-.43-.11-.82-.16-1.2l1.78-.26A.92.92,0,0,0,48.42,135.91Z"/><path class="cls-10" d="M43.5,136.85a7.79,7.79,0,0,0-.79,0c-.51-.45-1-.87-1.44-1.34-.13-.25-.2-.48-.35-.74.55.21,1.15.43,1.73.6C43.07,136,43.75,136.69,43.5,136.85Z"/><path class="cls-7" d="M75,133.92c1.29,1.21.24.87.62,1.36a17,17,0,0,0-3.38,2.24c-.56.46-1.13.91-1.71,1.31.5.57,0,.51.52,1.06-1.48,1.11-3.44,1.41-3.8,3.18a6.79,6.79,0,0,0-2.49,3.36c-1.72-.69-.15,1.93-2,.8,1.22,1.75-2.51.08.25,2.56-.47,1.1-1.43,1.68-1.35,3.39,1.06.86-.38.41,0,1-.38.34.09,1.23-.52,1.61-.11,1.18-1.39,1.06-2.21,2.06.93,1.12.1,1.55.63,2.42-.74.94-1.32-.64-2.33-.83-.24.11-.5.26-.63.2a4.43,4.43,0,0,1-.67-1.2,17.35,17.35,0,0,1-1.66-2.13c-.25-.1-.65-.91-1-1.38a.54.54,0,0,0,.49.33,1.84,1.84,0,0,0,.57-.09,5.9,5.9,0,0,0,1.06-.47c.55.54.91.67,1.15,1.18.58-.35.36-1,.68-1.58,1.72-.38.75-2.41,2.36-2.8-1.51-1.33,0-1-.38-1.83,1.65-.15,1.34-1.82,2-2.73-.14-.63,1-.49.47-1.59.51-.07,1.31-.08.75-1.12.4-.78,1.51-1.39,2.16-2.18.37-.06.69-.16,1.06-.22s1,.09.28-.87l1-.54c.38.07,1,.09.29-.81.41-.36.8-.72,1.23-1,.43.11.63,0,.4-.94a2.47,2.47,0,0,0,.25-.49l2.72-.09c-.22-.45.5-.36-.19-1.32l.48-.27c.38.07,1,.1.32-.81l.22-.13Z"/><path class="cls-10" d="M55,149.76c0,.35.88,1-.08,1.05C55.91,150.8,55,150.11,55,149.76Z"/><path class="cls-10" d="M54.74,153.75l-.14,0c-.48-.49-.89-.94-1.34-1.45.19-.24.38-.5.55-.75l.23-.09.05.25C54.33,152.45,54.56,153.09,54.74,153.75Z"/><path class="cls-10" d="M52.33,151.39c-.47-.39-.91-.77-1.37-1.18a6.38,6.38,0,0,0,.71-.14Z"/><path class="cls-12" d="M47.53,133a14.72,14.72,0,0,0,1,2.12,1.42,1.42,0,0,1-.23.46.92.92,0,0,0,.11.29,7,7,0,0,1-1-.18c-.28.07-.44.49-.86.15l-1.08-1.12c.15-.21.77-.17.46-.56-.09-.58.58-.56.47-1.27l.58-.29A5.06,5.06,0,0,0,47.53,133Z"/><path class="cls-12" d="M53.81,146.11c-.31.28-.66.51-1,.77l-.31.73-.59-.36a1.31,1.31,0,0,0-.25.43c-.92-.7-1.81-1.44-2.67-2.19a8.3,8.3,0,0,0,1-.3c-.22-.68,1.06-.08.22-1.06.42-.17.82-.35,1.25-.54.7.35,1.41.69,2.1,1C53.65,145.09,53.73,145.6,53.81,146.11Z"/><path class="cls-11" d="M46.53,135.88c0,.38.08.77.16,1.2l1.07,1.13-.56.26-.58.85-.11,0a10.91,10.91,0,0,1-1.33-.39c.27.41.55.82.83,1.22l.71.64a6.38,6.38,0,0,1-.34.73l-.81-.93L44.12,139c-.25-.23-.46-.42-.69-.65-.26.09-.46.1-.53.15s0,.05,0,.12.07.19.16.35c-.09.07-.22.1-.31.16-.42-.44-.85-.9-1.25-1.37l-.88-1.25s.42.33.15-.1c0-.12.06-.17.14-.15s.13.11.29,0c.46.24-.13-.49.06-.83.49.47.93.89,1.44,1.34a7.79,7.79,0,0,1,.79,0c.25-.16-.43-.85-.85-1.53l.08,0c.22-.08.43-.17.63-.26.18.12.34.26.56.42.47-.2.95-.42,1.42-.64l.11-.05Z"/><path class="cls-12" d="M46.51,139.36c-.25.16.4.89.21,1.47l-.71-.64c-.28-.4-.56-.81-.83-1.22A10.91,10.91,0,0,0,46.51,139.36Z"/><path class="cls-12" d="M45.57,140.63l.81.93c.06.28.18.54.21.77a11.13,11.13,0,0,1-1.22-.92,2.84,2.84,0,0,1,.34,1c-.22-.21-.46-.46-.7-.72-.43-.68-.86-1.33-1.28-1.94l-.66-.76c-.09-.16-.12-.29-.16-.35s-.06-.08,0-.12.27-.06.53-.15c.23.23.44.42.69.65Z"/><path class="cls-11" d="M101.32,88.33c.21-.24.39-.55.59-.79C101.71,87.78,101.53,88.09,101.32,88.33Z"/><path class="cls-11" d="M100,89.36l-.83-.92c.16-.38.19-.65.44-.76q.65.48,1.26,1Z"/><path class="cls-11" d="M78.53,120.43l-.26.14-.71.38c-.46-.31-.9-.64-1.33-1l.81-1.09.89.16Z"/><path class="cls-11" d="M68.67,126.19c.36.52.83,1.39-.75,1.14-.52,1.49-.55,2.36-1.61,3L65,129.93a5.13,5.13,0,0,0-.49-1.08c.73-.76,1.48-1.54,2.26-2.26a1.83,1.83,0,0,0,.31.12c.38-.28.75-.63,1.15-.93Z"/><path class="cls-11" d="M65.36,130.81l-1.08.61c.84.88-.56.45-.22,1.11a10.92,10.92,0,0,1-1.28,0c.21-.61-.86-1.72.59-2,.08-.19.07-.47.42-.52l1,.08C65,130.31,65.16,130.57,65.36,130.81Z"/><path class="cls-11" d="M64.21,137.57a4.22,4.22,0,0,0-.24.85c-.29-.2-.56-.41-.81-.62-.39-.43-.57-1,.41-.87Z"/><path class="cls-11" d="M46.59,142.33c.2.41.38.84.6,1.23-.31-.21-.72-.43-1.09-.68l-.39-.51a2.84,2.84,0,0,0-.34-1A11.13,11.13,0,0,0,46.59,142.33Z"/><path class="cls-7" d="M98.46,106.86c-.11,0-.26,0-.39,0C98.2,106.83,98.35,106.87,98.46,106.86Z"/><path class="cls-7" d="M76.62,114.38a4.05,4.05,0,0,0,.53.35A4.05,4.05,0,0,1,76.62,114.38Z"/><path class="cls-7" d="M79.27,129.94c.91,1.2-.09,1,.21,1.52.25.28-.13.92-1-.09,0,.36,0,.64,0,1-.16.23-.76.13-.5.63.43.4-.19.32-.25.49-.84-.81-.85.05-1.54-.22-.48-.44-.16-.9-.26-1.2a8.35,8.35,0,0,0,.32-1.17,1.51,1.51,0,0,0-.1-.3l1.85.34C78.45,130.61,78.83,130.25,79.27,129.94Z"/><path class="cls-10" d="M100.79,92.41a19.24,19.24,0,0,0,1.75,1.35c.11-.09.22-.18,1.07,0l.4.43a8.06,8.06,0,0,1-.31,1.08l-1.55-.34Z"/><path class="cls-10" d="M100.57,92.17l.22.24Z"/><path class="cls-10" d="M48.8,145.81a3.67,3.67,0,0,0,.25.48A3.67,3.67,0,0,1,48.8,145.81Z"/><path class="cls-11" d="M49.8,124.38l-1.45.79c-.66-.91-.56-1.11-.26-1.2C48.1,123.33,49.46,124.42,49.8,124.38Z"/><path class="cls-7" d="M76.21,133.25c.48,1.16-.33,1-1.21.67-.08-.24-.68-1,0-1C75.4,133.06,75.83,133.18,76.21,133.25Z"/></g></g></g><g class="cls-13"><g class="cls-6"><g class="cls-6"><path class="cls-7" d="M101.51,135.65c-.26-.36,0-.48.15-.67l2-1.52a1.15,1.15,0,0,0,.58-1.54l.84,0a6.24,6.24,0,0,1,1-1.6l.6-.42c.83,0,.85-.65,1.5-.49.17-.09.06-.36.07-.56a1.39,1.39,0,0,0,1-1c.2-.11.39-.2.57-.32l-.12-.11,1.93-1.85c.57-.18.88-.2.79-.52l.22-.22.46-.43,1,.16.36,1.13-.44.43-.22.2c-.11.15-.2.32-.3.47l-.75.53.45.43a4.72,4.72,0,0,0-.33.53l-.57-.53a1.46,1.46,0,0,0-.39-.07l-.68-.22-.5.48c-.13,0-.22.08-.35.12l.23.62c-.37.09-.3.29-.15.38.25.33.55.32.82.52l.3.78-.5.05c-.21.18.26.73.18,1l-.8.2a3.54,3.54,0,0,1-.5.07c-.28,0,.13.39,0,.48l-2,1.95c-.5.11-.68.2-.59.42-.47.54-1,1.07-1.48,1.62-.44.15-.6.61-.89.93a2.93,2.93,0,0,0-1.06-.44c-.24-.22-.45-.42-.68-.66s-.46-.1-.83-.47A8.44,8.44,0,0,1,101.51,135.65Z"/><path class="cls-8" d="M110.59,128.71l-.23-.62c.13,0,.22-.09.35-.12l.5-.48.68.22a1.46,1.46,0,0,1,.39.07l.57.53a2.94,2.94,0,0,0-.44.2c-.25.15,0,.47-.11.51a1.65,1.65,0,0,1-.21,0,4.83,4.83,0,0,0,0,.67l-.69-.2-.1.1c-.27-.2-.57-.19-.82-.52C110.29,129,110.22,128.8,110.59,128.71Z"/><path class="cls-7" d="M110.87,124.35a4.83,4.83,0,0,1-.44-.88c.89,0,.66-1.31,1.82-1,.06-.34.16-.68.23-1s.92,0,.65-.7l.69-.21a6.14,6.14,0,0,0,.62-.73,4.92,4.92,0,0,0,.61-.29l.31-.26a2,2,0,0,1-.1-.73c-.52,0-.65.12-.78.23l-.25-.18-.51-.58a5.48,5.48,0,0,0,.22-.61l.42-.53c.14-.15.28-.33.44-.49l.14-.1c.19,0,.39.07.62.11-.11-.45.46-.22.73-.14a.81.81,0,0,0,.22,0,6.43,6.43,0,0,0,.76-.35c.12.48-.24.49-.45.73l.49.61-.32.24c0,.3.06.6.11.88.28.45.57.87.87,1.3l.29.35c.2.62-.33,1-.81.6a.66.66,0,0,1-.24,0c-.25-.14-.49-.24-.76-.4l-.1.73a4.93,4.93,0,0,1,.53.36l.46.64c.26.37.11,1,.81,1.14a4,4,0,0,0,.21.47,4.14,4.14,0,0,0-.63.1c-.23.35.55.94.82,1.56l.29-.24.74.19.18-.15.1-.09c.09-.49.35-.58.22-1l.66.08c.1-.55,1.1.21.9-.64l-.11-.13,0-.78.35-.26c0-.24,0-.51,0-.74.57.14.64-.83,1.35-.22l.78,1-.17.12c.7,1.26-.34.89,0,1.53-.07.17-.35.09-.69-.27l-.8.37.26.78c-.53.31-.84,1-2,.27-.14.07-.17.31-.53.06l.35.72c-.12.1.09.82-.61.3l-.11.09a.54.54,0,0,1-.2.55,5,5,0,0,1-1.06-.53c-.4-.55.1-.41-.14-.89-.35-.18-.73-.37-1.09-.53-.81-.65-1-.4-1.17-.26-.16,0-.36-.08-.54-.14s-.13.35-.31.46c-.27-.19-.54-.35-.82-.54.28-.44-.42-1.13-.32-1.34s.5-.3.75-.46l.48-.39c.2-.34.36-.69.54-1-.62.18-1,.26-1,.59l-.48.4-.67.55-.36.31-.85-.1a3.84,3.84,0,0,0-.2.6,14.23,14.23,0,0,0-1.33,1,.64.64,0,0,0,.07.16Z"/><path class="cls-8" d="M122.49,122.5a.88.88,0,0,1,.41-.66,1.49,1.49,0,0,1,.56.36c-.07.62-.23.81-.5.76A2.54,2.54,0,0,1,122.49,122.5Z"/><path class="cls-7" d="M124,112.64c.26-.09.5-.19.77-.27.42.2.64-.09.87-.26l.72-.51.93-.27.64-.19.53-.15.63-.19.3-.09.44.18.66-.44a1.67,1.67,0,0,1,.4-.25c.32-.14.65-.24,1-.38.73.68.67-.57,1.54-.18l.36-.56c.26.07.51.11.74.16a1.83,1.83,0,0,0,.26-.36,3.35,3.35,0,0,0,.46.09c.16-.12.42.09.62.51a6.14,6.14,0,0,0,.1-.78l.82-.25.13.11c.57-.21,1.14-.46,1.69-.7,0-.2,0-.55,0-.62l.14,0,.49.25c.19,0,.26-.08.35-.15.8.16.58-.58.85-.83a3.15,3.15,0,0,1,.43-.19,1.19,1.19,0,0,0,1.45,0l.31.58c.21,0,.41,0,.62,0l.45.28a.67.67,0,0,0,.31-.27l-.08-.32.31-.27c.07,0,.16.09.25.12a3.46,3.46,0,0,0,.19-.43c.27-.1.52-.19.77-.31.2-.79.95-.26,1.15-1,.19,0,.44.38.54,0l.53.06c.58.25.68-.94,1.3,0,.2.18.21-.3.32-.42l.8.09c0-.64.36,0,.53-.35l.7.16.15.2.11,1.11-.28.69c-.09.11-.16.25-.25.38a4.32,4.32,0,0,0-.48.19c-.31.17-.27.68-.45.68h-.07l-.57.22-.34,0c-.11.14-.23.28-.34.43s-.59-.3-.67.34a1.77,1.77,0,0,0-.28.27,2.65,2.65,0,0,0-.55-.37,5.89,5.89,0,0,0-.44.59,4.87,4.87,0,0,1-.36.59c-.33-.17-.39.33-.73.13a2.08,2.08,0,0,1-.33-.17c0,.22,0,.4-.05.62H145l-.56,0c-.33,0-.65.13-1,.17-.29,1-1.69.16-2.1.87l-.88.36-.89.44-2.46,1.2-.21,0c-.13-.23-.26-.44-.38-.7s-.2-.1-.29-.09a2.8,2.8,0,0,0,.22.86c-.2.56-.59.47-.7.78l-.42.09-.72-1.56-.13-.45.69-.28c.37-.25.74-.47,1.11-.67l.3,0a4.25,4.25,0,0,0,.6.07,6.56,6.56,0,0,1,.73-.54l.69-.1a1.42,1.42,0,0,0,.4-.82l-.71-.38a4,4,0,0,1-.46.23l-.26.19-.15,0-.24,0c-.7-.25-.81,0-1.13,0l-.08,0a4.06,4.06,0,0,0-.49.38,3.15,3.15,0,0,0-.61-.06c-.16.2-.33.37-.5.57h-.08l-.77-.77.45,1.16.07.15-.32.07c-1.38-.41-1,1.22-2,1-.1.34-.29.32-.33.52l-.52-.5.06.77a4.93,4.93,0,0,1-.67,0l.28.71a4.46,4.46,0,0,1-.52.31l-.67-.76-.08-.15.7-.33-.43-.83c-.29.31-1.22-.84-.85.24-.46-.1-.31.29-.45.3s-.26.17-.4.25c-.15.43.6,1.26.21,1.51l-.3.08-.22-.39c-.1-.3-.19-.57-.3-.86-.43-.21-.78-.6-1.16-.45-.18.18-.36.33-.54.48s.13.61-.15.52l-.7.25-.78-.7C123.94,113.11,124,112.89,124,112.64Z"/><path class="cls-8" d="M136.46,113.18a2.8,2.8,0,0,1-.22-.86c.09,0,.16-.08.29.09s.25.47.38.7Z"/><path class="cls-9" d="M83,147.7l.14-.34c.53-.44.15-.54-.09-.63a4.92,4.92,0,0,0-.09-.64c.14-.17.29-.37.41-.55.38-.67,1.52-.35,1.11-1.06s1-.53.56-1.27c.46-.45,1.13-.55.89-1l.13-.24.21-.4a1.14,1.14,0,0,1-.3-.76c.31,0,.65.1,1,.17l.21-.4a8.53,8.53,0,0,0,.91-.38,7.55,7.55,0,0,1,.74-.43,1.55,1.55,0,0,1,.66-1.57c.3.05.24-.21.36-.32-.66-.59.52-.14.48-.45a3.77,3.77,0,0,0,1.75-2.18l.24-.37c1.27.09.67-1.25,1.57-1.51.34-.76,1.6-1.12,1.8-2.17.51-.12,1.07-.31,1-.86l.74-1a2.82,2.82,0,0,0,1.39-1.06,3.7,3.7,0,0,1,1.12-1c1.56-1.17,2.64-3,4.17-4.07.28.13.28-.13.43-.19-.49-.61.28,0,.37-.35.51-.63,1.48-1.07,1.53-1.93l.11-.11a4.41,4.41,0,0,0,.54-.07c.14-.22.49-.29.49-.7l.37-.35c.34-.17.6-.13.52-.45.86-.6,1.57-.94,1.94-1.63l.12-.1L111,117c.43-.83,1.74.16,1.28-1.08.18-.14.33-.29.52-.42a8.79,8.79,0,0,0,2.29-.93l1-1.06a1.37,1.37,0,0,0,.85-.26c.17.16.32.29.45.44l.77,0c-.23-.7,1-.51.84-1.13.16-.36.72.47.7-.13a.62.62,0,0,0,0-.63l.17-.07v-.64c.41-.19.34-.43.47-.65.21.06.42.15.64.23-.22-.59.3-.41.24-.74s.44-.26.72-.26l.79-.3.32-.1c-.18-.54.15-.48.34-.43.34,0,.66-.08,1-.14s.11-.4.25-.41.38.11.56.16.06-.29.32-.27l.49-.15a1.13,1.13,0,0,0,.25-.24c.13-.07.27-.18.42-.26l.15,0c-.14-.62.39-.42.37-.78.1.1.2.17.29.25a4.6,4.6,0,0,1,.5-.13l.48,0c.38-.45,1.22-.26,1.68-.73l-.19-.41a1.57,1.57,0,0,1,.17-.21,3.16,3.16,0,0,0,.58-.3l.31.26.34-.25-.13-.3.09,0,.91-.35.92.45a.44.44,0,0,1,0-.16,5,5,0,0,1,.49-.53c0-.17.33-.35.19-.65.19.1.39.23.58.35s.23-.36.26-.49l1.43,0,.15,0c-.1-.56.22-.45.4-.35l.32-.06c-.08-.6.28-.41.3-.67l1.46.49a1.47,1.47,0,0,1,.28-.18c.17-.5.31-.51.49-.37.32-.06.63-.16,1-.25-.07-.57.23-.44.4-.33l.67-.06c0-.59.27-.41.43-.32l.61.14a13.15,13.15,0,0,0,1.83-.47c.08-.61.48-.42.76-.33.1-.65.63-.29.79-.59.66-.2,1.13-1,2-.62.11-.48.73.08.5-.9.92.23,1.22-.83,2.17-.49.35-.13.46-.47.85-.47,0,.28.08.43.17.81.45,0,.9,0,1.33.07,0,.46,0,.95,0,1.41l0,1.1c-.1.15-.12.37-.23.58-.08.66-.13,1.34-.18,2l.07,1.11-.26.23-.57-.9a2.29,2.29,0,0,0,.07-.28l-.19-1.74c0-.19.05-.41.07-.6l.15,0,.46.09-.32-.84-.14-.64-.26-1-.39,1-.07.11a5.78,5.78,0,0,1-.73,0c-.48-.28-.3.26-.43.4l-.17,0-.26-.36a4.66,4.66,0,0,0-.71.26,4.75,4.75,0,0,0-.67-.21l-.25.59-.21-.34-.32,0c-.14,0-.29-.12-.43-.16-.5-.35-.15.66-.36.86l-.65,0c-.2-.05-.41-.11-.61-.14l-.59.3c0,.25,0,.51,0,.76a.43.43,0,0,1-.05.16,4.23,4.23,0,0,1-.37.45c-.17.22-.35.42-.52.6-.17,0-.37-.43-.55-.27-.29-.57-.34-.06-.48,0a1.73,1.73,0,0,0-.37.16c-.29-.15-.57-.31-.87-.43l.16.59a2.08,2.08,0,0,1-.38.35c-.12-.18-.23-.39-.33-.57a2.34,2.34,0,0,0-.53.21l-.79-.41a1,1,0,0,1-.28.18l0,.77a3.38,3.38,0,0,0-.46-.4l-.33.31c.11.59-.21.43-.39.36a4.76,4.76,0,0,0-.6.21c.14.59-.52.15-.57.55-.36.31-.85.16-1.1.5l-1.19.48-.41.06c-.11.18.25.57.12.75l-.23,0c0,.7-.35.75-.54.56-.38-.76-.45-.68-.55-.66-.07.22.18.52.3.72l-.15.82-.39.08c-.58-.61-.68.29-1.25.13-.43.22-1,.48-.9,1.27-.19,0-.41,0-.62,0l-.14-.29c-.55-.1-.16.39-.32.4l-.17,0c-.66-.58-1.22-.6-.93-.06-.54-.07-.16.41-.32.43s-.31.19-.48.27a2.92,2.92,0,0,1-1.13-1.09c-.27-.08-.74-.14-.71.38,0,.17,0,.34,0,.48l-.61-.28c-.17.08-.34.3-.17.68l-.54-.13-.51.28c-.28-.28-.35.21-.71-.4a3,3,0,0,1-.39.31c.22.87,0,1.4-.61,1.52-.43,0-.69.08-.7.43-.67,0,.06.58-.28.61a2.46,2.46,0,0,0-.47,0c-.42-.11-.12.49-.31.59l-.65-.4c-.34.23-.6.3-.44,1a9.48,9.48,0,0,0-1.2.68l-.91.67a6.43,6.43,0,0,1-.76.35.81.81,0,0,1-.22,0c-.27-.08-.84-.31-.73.14-.23,0-.43-.09-.62-.11l-.14.1c-.16.16-.3.34-.44.49l-.42.53a5.48,5.48,0,0,1-.22.61l.51.58.25.18c.13-.11.26-.22.78-.23,0-.7.34-.73.65-.47l.16.44-.54.24c.11.54-.32.56-.48.78a4.92,4.92,0,0,1-.61.29l-.63-.49-.07.06a2.34,2.34,0,0,1-.26.43,4.44,4.44,0,0,0,.15.52l-.7,0-.42-.46a.48.48,0,0,1-.18-.06l-.64-.7a3.39,3.39,0,0,1-.34.5l0,0a2.3,2.3,0,0,1-.49.2,2,2,0,0,1-.22,0l-.12.48c-.08.66-.28,1-.88.74a1.89,1.89,0,0,1-.24,0l-.36,1c.73.44,0,.56-.24.46,0,1-.7.86-1,1.17a3.67,3.67,0,0,1-.36.57c-.3,1.2-2.62.65-2.13,2.38-.11.17-.54.07-.37.42-.15.3-.08.43,0,.51.32.43.73.17.38-.21l.27-.31c.48.44.32-.21.68,0,0-.41.39-.6.61-.88.46.5.69.1.94.18l.46.42a9.65,9.65,0,0,0-.9.91c-.36,0-.4.29-.31.59l-.41.69-.92.28-.21.24-.32.36-.91,1c-.75,0-1.14.14-1.07.51l-.29.37a3,3,0,0,1-.43.29c0,.26-.29.1-.57,0-.61-.9-1.2-.95-1-.29l-.2.26c-.12.1-.28.2-.43.3-.61-.07,0,.58-.38.74a5.83,5.83,0,0,1-.66.34l-.41.52c-.5.32-.91.54-.58,1l-.25.33-.71-.06c0,.19-.34.29-.17.57l-1.15,1.46c.08.17.32.41.21.51s-.4.08-.62.12c-.88-.68-.82.24-.86.48.13.17.39.42.4.52l0,.06-.75.27-.23.35a2.79,2.79,0,0,0-.82-.17c0,.63-.75.87-1.31,1.07l-.33.6a5.72,5.72,0,0,1-.26.83l-.24.46c-.93,0-.44.27-.59.4s-.22.22-.32.33c-.37.62-1.79.81-1.92,1.62-.49.42-1.18.68-1.43,1.33-.25.35-.51.7-.79,1.05l-.73-.28-.83.36a2,2,0,0,1-1,1.21A6.61,6.61,0,0,1,83,147.7Z"/><path class="cls-9" d="M100.39,141.41c-.08-.53.16-.77.61-.62C101.19,141.44,101,141.62,100.39,141.41Z"/><path class="cls-9" d="M102.71,139.31c-.38-.78-.09-1.06.5-.75.12.23.22.44.31.65C103.26,139.25,103,139.29,102.71,139.31Z"/><path class="cls-9" d="M104.14,137.88a2.93,2.93,0,0,1-.22-1.25,2.93,2.93,0,0,1,1.06.44c.09.2.22.4.32.6l-.78.19Z"/><path class="cls-9" d="M109.94,132.15c.13-.09-.28-.47,0-.48a3.54,3.54,0,0,0,.5-.07c.35.4.1.43.22.68S110.25,132.25,109.94,132.15Z"/><path class="cls-9" d="M111.56,130.39l-.3-.78.1-.1.69.2a4.83,4.83,0,0,1,0-.67,1.65,1.65,0,0,0,.21,0l.93.86-.48.46c0,.16,0,.3-.06.45l-.54.12c-.31.15-.59.34-.91.49.08-.23-.39-.78-.18-1Z"/><path class="cls-9" d="M116.47,125.44l.18-.15-.54-.78c.22-.14.36-.39,1.17.26.36.16.74.35,1.09.53.24.48-.26.34.14.89l-.23.2a8.67,8.67,0,0,0-.62.72,1.42,1.42,0,0,1-.4-.3Z"/><path class="cls-9" d="M114.93,121.64c0-.33.34-.41,1-.59-.18.36-.34.71-.54,1Z"/><path class="cls-9" d="M118.55,125.15c-.27-.62-1-1.21-.82-1.56a4.14,4.14,0,0,1,.63-.1,2.71,2.71,0,0,0,.25.17,4.87,4.87,0,0,0,.68-.36c.12,0,.22-.06.34-.06l.45.64c.13.4-.13.49-.22,1l-.1.09-.18.15-.74-.19Z"/><path class="cls-9" d="M116.45,120.15c.27.16.51.26.76.4.15.45-.17.52-.33.69a4.93,4.93,0,0,0-.53-.36Z"/><path class="cls-9" d="M123.24,121.19c.21-.6,0-1,.53-.58.35.51.09.75.13,1.11-.06.13.37.13.35.31l-.23.17Z"/><path class="cls-10" d="M120.47,114c.19-.1-.11-.7.31-.59a2.46,2.46,0,0,1,.47,0c.34,0-.39-.63.28-.61,0-.35.27-.41.7-.43.6-.12.83-.65.61-1.52a3,3,0,0,0,.39-.31c.36.61.43.12.71.4l.51-.28.54.13c-.17-.38,0-.6.17-.68l.61.28c0-.14,0-.31,0-.48,0-.52.44-.46.71-.38a2.92,2.92,0,0,0,1.13,1.09c.17-.08.32-.19.48-.27s-.22-.5.32-.43c-.29-.54.27-.52.93.06l0,.78-.3.09-.63.19-.53.15-.64.19-.93.27-.72.51c-.23.17-.45.46-.87.26-.27.08-.51.18-.77.27,0,.25-.09.47-.15.7a2.57,2.57,0,0,1-.29.44c-.18-.13-.42,0-.63-.58l-.23.08c-.25.06-.51.09-.79.13l-.45.16.26.41c-.38.07-.75.14-1.11.24l-1.26.3c-.16-.67.1-.74.44-1Z"/><path class="cls-9" d="M121.49,113.57l.45-.16c.28,0,.54-.07.79-.13.08.25.16.49.25.72-.15.43-.7.29-1.23,0Z"/><path class="cls-7" d="M128.86,118.56a1.79,1.79,0,0,1,.45,0c.33.1.22-.38.12-.68l-.77-1.18c.36-.13.69-.29,1-.45l.76,1.36.07,0,.77,1.51a1.18,1.18,0,0,1-.28.23c-.62.21-1.16.47-1.7.64a3.17,3.17,0,0,0-.56-.78C128.8,119,128.81,118.77,128.86,118.56Z"/><path class="cls-9" d="M128.29,117a1.9,1.9,0,0,0,.37-.26l.77,1.18a6.59,6.59,0,0,1-.75-.25Z"/><path class="cls-9" d="M130.73,117.57c0-.61.18-.66.36-.71.18.18.4.25.52.48C131.39,117.88,131.17,118,130.73,117.57Z"/><path class="cls-9" d="M130.91,113.13l-.06-.77.52.5c0-.2.23-.18.33-.52,1,.17.65-1.46,2-1,.11.4.2.77.29,1.16-.59.42-1.11.5-1.18,1.18l-.67-.33-.52.11-.46.27Z"/><path class="cls-10" d="M133.73,111.29l.32-.07-.07-.15a2.08,2.08,0,0,0,.32-.39h.08c.17-.2.34-.37.5-.57a3.15,3.15,0,0,1,.61.06,4.06,4.06,0,0,1,.49-.38l.08,0c.13.24.26.47.37.71.54-.17.62-.31.76-.71l.24,0,.15,0,.26-.19a4,4,0,0,0,.46-.23l.71.38-.09.62c-.32.14-.5.48-1,.3a6.56,6.56,0,0,0-.73.54,4.25,4.25,0,0,1-.6-.07l-.3,0c-.37.2-.74.42-1.11.67l-.69.28.13.45c-.19,0-.4,0-.6,0C133.93,112.06,133.84,111.69,133.73,111.29Z"/><path class="cls-9" d="M133.53,109.91l.77.77a2.08,2.08,0,0,1-.32.39Z"/><path class="cls-9" d="M137.19,109.76c-.14.4-.22.54-.76.71-.11-.24-.24-.47-.37-.71C136.38,109.81,136.49,109.51,137.19,109.76Z"/><path class="cls-9" d="M138.68,115.14a2.45,2.45,0,0,0,.18-.46l.29,0c.12-.17.22-.34.34-.48.1-.46.41-.15.74.19v-.6c.23,0,.42-.18.69.07.09.19.19.39.29.57l.55-.06.38,1L142,116l-.76-1.27-.87.22.4,1c-.2.08-.43.14-.64.23-.16-.17-.25-.41-.49-.7l-.21-.13c0,.18,0,.4,0,.59L139,116a1.57,1.57,0,0,0-.19-.26C138.8,115.54,138.75,115.35,138.68,115.14Z"/><path class="cls-9" d="M137.84,109.51a4,4,0,0,0,.46-.23A4,4,0,0,1,137.84,109.51Z"/><path class="cls-9" d="M139.33,109.45c-.18-1,.6-.44.6-1,.23-.26.45.38.65.55l0,.16c-.06.25-.13.5-.2.76C140.08,109.81,139.82,110.36,139.33,109.45Z"/><path class="cls-11" d="M137.49,113.94l-.37-.86,2.46-1.2.89-.44.88-.36c.41-.71,1.81.09,2.1-.87.32,0,.64-.15,1-.17l.56,0h.43c0-.22,0-.4.05-.62a2.08,2.08,0,0,0,.33.17c.14.81.3,1.63.45,2.41a7.93,7.93,0,0,1-1,.37,5,5,0,0,0-.63-.27c-.33-.24-.26.42-.22.92h-.2l-.61-.6c-.37-.27-.16.57-.36.64-.28.35-.44.42-.51.61l-.69,0-.64-.56c-.41-.23-.34.42-.5.65-.27-.25-.46,0-.69-.07v.6c-.33-.34-.64-.65-.74-.19-.12.14-.22.31-.34.48l-.29,0a4.65,4.65,0,0,0-.61-.36l-.57.07Z"/><path class="cls-9" d="M143.26,113.11c.18.24.4.29.46.57.17.93-.35.48-.57.61a4.4,4.4,0,0,1-.4-.57C142.82,113.53,143,113.46,143.26,113.11Z"/><path class="cls-9" d="M142.91,107.84c.3.17.61.35.91.55-.07.71-.41.59-.65.64C143.06,108.52,142.82,108,142.91,107.84Z"/><path class="cls-9" d="M146.57,111.47c.15-.12.53-.45.74.31.15,1.07-.31.52-.33.89-.17.08-.34-.15-.56-.47Z"/><path class="cls-9" d="M147.82,110.17a1.66,1.66,0,0,1,.33,0c.16-.32.44-.12.57-.37,0-.25.24-.06.36-.1h.07c.11.39.23.75.35,1.11.05.57-.1.39-.17.41l-.69-.12-.13,0c-.09.27-.18.45-.29.71-.21,0-.41-.12-.61-.16Z"/><path class="cls-7" d="M82.19,150.06c-.09-.44-.14-.76.2-.81a7.6,7.6,0,0,1,.16-.83,8.19,8.19,0,0,1,.48-.72,6.61,6.61,0,0,0,.44.55l-.11.25c-.19.3-.38.58-.54.89A6.66,6.66,0,0,1,82.19,150.06Z"/><path class="cls-7" d="M80,145.07c.73-.24-.06-1.14.86-1.23l.73.29c.51,0,.65-.21,1.21,0,.62-.6.38-1.07,1.19-1.55a8.05,8.05,0,0,1,.58-.76l.17-.33.22-.41c.51.21.38-.32.71-.39l.5-.58.3-.58c.25.16.74.34.68,0s.85-.13.54-.67c-.27-.12,0-.25,0-.4.37.2.33-.08.67.06.23-.35-.93-1.1,0-1.26.51-.21,1.33-.33,1.26-1.06-.78-1.69,2.42.51,1.14-1.23-.06-.27.44,0,.52-.21.15-.35.3-.71.49-1.06.66.24.4-.74,1.06-.5-.06-.32-.1-.74.3-.75a9.27,9.27,0,0,1,1.2-.8c0-.31,1,0,.43-.57-.46-.36.09-.49.16-.74.66.26.52-.73,1.28-.39.33-.26.65-.52,1-.77l-.13-.64c.39-.38.75-.74,1.13-1.07l1.16-.93a20.76,20.76,0,0,0,2.3-2.1c1,0,.08-1.11,1-1.14.78-.31,1-1,1.7-1.22.53.17,0-.43.25-.47.39-.74,1.22-.59,1.81-.88,0,.86-1,1.3-1.53,1.93-.09.3-.86-.26-.37.35-.15.06-.15.32-.43.19-1.53,1-2.61,2.9-4.17,4.07a3.7,3.7,0,0,0-1.12,1,2.82,2.82,0,0,1-1.39,1.06l-.74,1c0,.55-.53.74-1,.86-.2,1.05-1.46,1.41-1.8,2.17-.9.26-.3,1.6-1.57,1.51l-.24.37a3.77,3.77,0,0,1-1.75,2.18c0,.31-1.14-.14-.48.45-.12.11-.06.37-.36.32a1.55,1.55,0,0,0-.66,1.57,7.55,7.55,0,0,0-.74.43,8.53,8.53,0,0,1-.91.38L87,141c-.33-.07-.67-.13-1-.17a1.14,1.14,0,0,0,.3.76l-.21.4-.13.24c.24.46-.43.56-.89,1,.42.74-1,.62-.56,1.27s-.73.39-1.11,1.06c-.12.18-.27.38-.41.55-.1-.1-.23-.21-.35-.34l-.88-.34-1,.35c-.09.2-.09.46-.5.43C79.43,145.91,80.32,145.46,80,145.07Z"/><path class="cls-7" d="M83.17,147.36c-.38-.28-.13-.46-.09-.63C83.32,146.82,83.7,146.92,83.17,147.36Z"/><path class="cls-11" d="M95.27,141.71c-.55-1.47.78-1.76.79-2.77.66-.06.32-.31.42-.41.68-.38.75-.78,1.35-.63.22-.23.44-.43.63-.67,0-.54.73-.46.47-1.25l.08-.13c.23,0,.49.05.73.07a5.69,5.69,0,0,1-.16-.59c.62-.12.72-.29.63-.56a4.17,4.17,0,0,0,.53-.41l.6-.78.2-.25c.59-.07.85-.13.71-.38-.37-.48.42.14.35-.24.16-.26.49-.42.49-.84l.39-.3a4.24,4.24,0,0,1,.5.18l.21-1,.91-1,.32-.36.21-.24.92-.28.41-.69c-.09-.3,0-.64.31-.59a9.65,9.65,0,0,1,.9-.91l.16.06c.77,0,.23-.4.29-.5.11-.33.25-.64.37-1l.4-.38,1.63-.08c0-.08,0-.18.09-.26a.64.64,0,0,1-.07-.16,14.23,14.23,0,0,1,1.33-1l.2.2c.47,0,.53,0,.59-.07a8.08,8.08,0,0,1,.93.63l-.67-1.26.36-.31.34.36c-.1.21.6.9.32,1.34a2.27,2.27,0,0,1-.24,0,1.43,1.43,0,0,1-.12.31l-1-.16-.46.43-.22.22c.09.32-.22.34-.79.52l-1.93,1.85-.45.43a1.39,1.39,0,0,1-1,1c0,.2.1.47-.07.56-.65-.16-.67.45-1.5.49l-.6.42a6.24,6.24,0,0,0-1,1.6l-.84,0a1.15,1.15,0,0,1-.58,1.54l-2,1.52c-.11.19-.41.31-.15.67l-.15.19c-.59.17-.56.35-.58.48s-.24.16-.35.24l-.89,1.34c-.22-.08-.41-.14-.64-.2a3.09,3.09,0,0,1,.06.5l-.18.27-.3.46c-.39,0-.42.7-.86.72C96.71,140.19,96.25,141.17,95.27,141.71Z"/><path class="cls-7" d="M98.9,137.7c.23.06.42.12.64.2.21.28.15.73-.58.3A3.09,3.09,0,0,0,98.9,137.7Z"/><path class="cls-7" d="M103.52,139.21c-.09-.21-.19-.42-.31-.65.32-.23.63-.45.93-.68l.38,0,.78-.19.13.09-.16.42a2.52,2.52,0,0,1-.15.44c0,.34-.85-.13-1.12-.1.17.26.71.52.66.69s-.14.21-.21.31a1,1,0,0,1-.27.11l-.11-.07Z"/><path class="cls-7" d="M101.36,135.84c.18.35,0,.8-.58.48C100.8,136.19,100.77,136,101.36,135.84Z"/><path class="cls-7" d="M114.14,129.42a4.68,4.68,0,0,0,0-.67l.06-.06,1-.12-.1-.53c.57.09.42-.76,1-.56a5.18,5.18,0,0,0,.63-.3l.39-.32.06,0a1.42,1.42,0,0,0,.4.3l.25.8c-.17.06-.21.34-.51.21-.17.06-.33.14-.5.21l-.2.41c.34.49-.14.41-.2.61a2.27,2.27,0,0,0-.55-.12c.12.52,0,.61-.09.72a1.18,1.18,0,0,1-.67-.44l0,0,.25.66c-.14,0-.14.32-.42.18C114.77,130,114.24,129.73,114.14,129.42Z"/><path class="cls-7" d="M106.6,120.64c0-.63.35-.7.8-1,.11-.14.18-.31.28-.45s.42-.22.61-.35c.74-.45,1.45-.93,2.17-1.4-.37.69-1.08,1-1.94,1.63.08.32-.18.28-.52.45l-.37.35c0,.41-.35.48-.49.7A4.41,4.41,0,0,1,106.6,120.64Z"/><path class="cls-7" d="M110.58,117.34c-.16-.46-.07-.54.08-.67-.09-.22-.15-.42-.25-.64.12-.48.63.2.86-.08.63.36.18-1.13,1,0,.46,1.24-.85.25-1.28,1.08Z"/><path class="cls-7" d="M113,114.91a1.69,1.69,0,0,1,1.68-1.81c-.15-.3,0-.37,0-.56.19,0,.41.07.62.11l.69.87-1,1.06a8.79,8.79,0,0,1-2.29.93A5.42,5.42,0,0,0,113,114.91Z"/><path class="cls-7" d="M116.75,113a11.06,11.06,0,0,1,2.85-1.12.62.62,0,0,1,0,.63c0,.6-.54-.23-.7.13.12.62-1.07.43-.84,1.13l-.77,0c-.13-.15-.28-.28-.45-.44A1.45,1.45,0,0,0,116.75,113Z"/><path class="cls-7" d="M118.76,108.73l.49-.19c.12.27.32.29.41.19a2.33,2.33,0,0,0,1.86-1c.38,0,.81.63,1.2.57.37-.28,1-.22,1.57-.32.31-.83,1.14-.72,1.63-.84l.17,0c0-.59.5-.55.77-.7s.43-.12.66-.17c.22-.74,1.58-.33,1.81-1.06.18.38.37.17.5.66l.19.41c-.46.47-1.3.28-1.68.73l-.48,0a4.6,4.6,0,0,0-.5.13c-.09-.08-.19-.15-.29-.25,0,.36-.51.16-.37.78l-.15,0c-.15.08-.29.19-.42.26a1.13,1.13,0,0,1-.25.24l-.49.15c-.26,0-.19.26-.32.27s-.37-.09-.56-.16-.06.25-.25.41-.64.1-1,.14c-.19,0-.52-.11-.34.43l-.32.1-.79.3c-.28,0-.75,0-.72.26s-.46.15-.24.74c-.22-.08-.43-.17-.64-.23-.13.22-.06.46-.47.65-.12-.29-.23-.56-.33-.86l-.67-.56C118.68,109.35,118.17,108.62,118.76,108.73Z"/><path class="cls-7" d="M118,106.61c.59.35,1.4-1,1.54.53l-.49.19-.17.07-.65-.06C117.92,107,118.18,106.91,118,106.61Z"/><path class="cls-7" d="M127.69,118.32c-.44-.66-.48-.87-.21-1.07,0-.54.12-.93.59-.35a1,1,0,0,0,.22.1l.39.67,0,.61-.58-.11Z"/><path class="cls-7" d="M133.28,115.84c-.41-.68-.38-.91-.11-1.22a4,4,0,0,0-.06-.43l1,.72.41.84-.3.06a2.06,2.06,0,0,0-.44-.23Z"/><path class="cls-10" d="M134.12,114.91a1.39,1.39,0,0,1,.15-.19,4.24,4.24,0,0,1,.51.21,1,1,0,0,1,.3-.38l-.19-.41.45-.09.42-.09c.11-.31.5-.22.7-.78l.45-.07.21,0,.37.86.19.45c.06.18.12.39.17.57l-.22,0a3.57,3.57,0,0,0-.35-.1l-.51.26a2.2,2.2,0,0,0-.37.23l-.78.15c-.32.23-.43.89-1.09.22Z"/><path class="cls-7" d="M134,114.16a8.81,8.81,0,0,1,.89,0l.19.41a1,1,0,0,0-.3.38,4.24,4.24,0,0,0-.51-.21Z"/><path class="cls-10" d="M129.55,109.9c.16,0-.23-.5.32-.4l.76.28c-.07-.79.47-1,.9-1.27.57.16.67-.74,1.25-.13l.39-.08.15-.82c-.12-.2-.37-.5-.3-.72.1,0,.17-.1.55.66.19.19.56.14.54-.56l.23,0c.13-.18-.23-.57-.12-.75l.41-.06,1.19-.48c.25-.34.74-.19,1.1-.5.05-.4.71,0,.57-.55a4.76,4.76,0,0,1,.6-.21c.18.07.5.23.39-.36l.33-.31a3.38,3.38,0,0,1,.46.4l0-.77a1,1,0,0,0,.28-.18l.79.41a2.34,2.34,0,0,1,.53-.21c.1.18.21.39.33.57l.13.44c.46.25.53,0,.47-.33a4.81,4.81,0,0,0-.22-.46l-.16-.59c.3.12.58.28.87.43-.05.51-.27.31-.33.61.56.76,1.18-.11,1.3,1-.17.15-.13.31-.31.62.12.19.22.4.32.59s.44.29.66.44l.08.32a.67.67,0,0,1-.31.27l-.45-.28c-.21,0-.41,0-.62,0l-.31-.58a1.19,1.19,0,0,1-1.45,0,3.15,3.15,0,0,0-.43.19,5.59,5.59,0,0,0-.63-.26c0,.38-.6-.11-.42.47l-.71.06c0,.15.05.31.07.46l-.14,0-.55-.4c-.69.11-.93.53-1.57,1.17-.74-.4-.72.11-.66.42l.1.27a6.14,6.14,0,0,1-.1.78c-.2-.42-.46-.63-.62-.51a3.35,3.35,0,0,1-.46-.09,1.83,1.83,0,0,1-.26.36c-.23,0-.48-.09-.74-.16l-.36.56c-.87-.39-.81.86-1.54.18-.3.14-.63.24-1,.38a1.67,1.67,0,0,0-.4.25q-.24-.33-.51-.66Z"/><path class="cls-7" d="M130,105.57c-.1-1,.27-.55.47-.57-.19-.57.14-.45.63,0l.09,0c0,.13,0,.22,0,.32l-.34.25-.31-.26A3.16,3.16,0,0,1,130,105.57Z"/><path class="cls-7" d="M137.68,114.39l.57-.07a4.65,4.65,0,0,1,.61.36,2.45,2.45,0,0,1-.18.46c.07.21.12.4.17.61a1.57,1.57,0,0,1,.19.26c0,.46-.06.47-.55-.1l-.05-.11-.26-.6-.33-.24C137.8,114.78,137.74,114.57,137.68,114.39Z"/><path class="cls-7" d="M140.38,114.94a.27.27,0,0,0,0-.13l.85-.09L142,116c-.19.49-.5.27-.65.36-.18-.42-.41-.43-.58-.38Z"/><path class="cls-7" d="M140.92,113.83c.16-.23.09-.88.5-.65l.64.56,0,.59c.15.24.28.48.4.72.17.83-.23.34-.3.32l-.38-1-.55.06C141.11,114.22,141,114,140.92,113.83Z"/><path class="cls-7" d="M143.26,113.11c.2-.07,0-.91.36-.64l.61.6c-.27.42-.29.7-.51.61C143.66,113.4,143.44,113.35,143.26,113.11Z"/><path class="cls-7" d="M144.43,113.06c0-.5-.11-1.16.22-.92a5,5,0,0,1,.63.27l0,.62Z"/><path class="cls-7" d="M150,109.87c.05.13.07.23.11.33-.15.86-.4.66-.58.66-.12-.36-.24-.72-.35-1.11Z"/><path class="cls-7" d="M150.51,110.27c.21.22.42.47.62.7,0-.14.07-.25.11-.39.24-.07.24-.54.45-.32.31,0,.65.16.89,0,.08-.26.24,0,.36,0v.16c-.42.16-.39,1-.68.83,0,.27-.26,0-.45,0l-.16.41c-.16-.16-.24,0-.39.13l-.34.4c-.24-.73-.19-1.19-.46-1.9Z"/><path class="cls-10" d="M151.68,104.16l.57.9v.78l.25.06.26-.23a.68.68,0,0,1,.24.68l.05,1.12.15,1.6c-.09.11-.17.25-.27.38l-.34-.87c-.15,0-.3,0-.46,0a4.71,4.71,0,0,0-.08-.5l.16-1.18a4.56,4.56,0,0,0-.15-.48v-.33c-.16-.19-.31-.39-.47-.56l-.11-1.11C151.56,104.35,151.61,104.27,151.68,104.16Z"/><path class="cls-7" d="M152.25,105.06l.26-.23.26.84-.26.23-.25-.06Z"/><path class="cls-10" d="M90.48,142.63c.15-.13-.34-.4.59-.4A4.35,4.35,0,0,1,90.48,142.63Z"/><path class="cls-10" d="M91.31,141.77a5.72,5.72,0,0,0,.26-.83l.33-.6c.56-.2,1.34-.44,1.31-1.07a2.79,2.79,0,0,1,.82.17l.23-.35c-.19-.55.17-.39.79-.33,0-.1-.27-.35-.4-.52,0-.24,0-1.16.86-.48.22,0,.43-.07.62-.12s-.13-.34-.21-.51l1.15-1.46c-.17-.28.12-.38.17-.57l.71.06.25-.33c-.33-.48.08-.7.58-1l.41-.52a5.83,5.83,0,0,0,.66-.34c.34-.16-.23-.81.38-.74.15-.1.31-.2.43-.3l.2-.26c-.23-.66.36-.61,1,.29.28.12.53.28.57,0a3,3,0,0,0,.43-.29l.29-.37c-.07-.37.32-.5,1.07-.51l-.21,1a4.24,4.24,0,0,0-.5-.18l-.39.3c0,.42-.33.58-.49.84.07.38-.72-.24-.35.24.14.25-.12.31-.71.38l-.2.25-.6.78a4.17,4.17,0,0,1-.53.41c.09.27,0,.44-.63.56a5.69,5.69,0,0,0,.16.59c-.24,0-.5-.06-.73-.07a5.19,5.19,0,0,0,.13.64.38.38,0,0,1-.54.24c-.43-.07-.07.34-.14.5s-.41.44-.63.67c-.6-.15-.67.25-1.35.63-.1.1.24.35-.42.41,0,1-1.34,1.3-.79,2.77l-.31.84a3.29,3.29,0,0,1-.46.23c-.15.16-.27.31-.42.45a6.08,6.08,0,0,1-1.63-.61Z"/><path class="cls-10" d="M101.7,140.31c-.15-.72.06-1,.66-.77C102.86,140,102.5,140.27,101.7,140.31Z"/><path class="cls-10" d="M107.35,134.52c-.09-.22.09-.31.59-.42C108.1,134.46,108,134.81,107.35,134.52Z"/><path class="cls-10" d="M104.07,127.67c.65.54.47.74,0,.74C103.26,128,104.07,127.91,104.07,127.67Z"/><path class="cls-10" d="M104.86,127c-.17-.35.26-.25.37-.42-.49-1.73,1.83-1.18,2.13-2.38a3.67,3.67,0,0,0,.36-.57c.33-.31,1.08-.22,1-1.17.27.1,1,0,.24-.46l.36-1a1.89,1.89,0,0,0,.24,0c.6.21.8-.08.88-.74l.12-.48a2,2,0,0,0,.22,0,2.3,2.3,0,0,0,.49-.2l0,0a3.39,3.39,0,0,0,.34-.5l.64.7a.48.48,0,0,0,.18.06l.42.46.7,0a4.44,4.44,0,0,1-.15-.52,2.34,2.34,0,0,0,.26-.43l.07-.06.63.49a6.14,6.14,0,0,1-.62.73l-.69.21c.27.66-.48.39-.65.7s-.17.7-.23,1c-1.16-.31-.93,1-1.82,1a4.83,4.83,0,0,0,.44.88c.06,0,.11,0,.17.07a.64.64,0,0,0,.07.16c0,.08,0,.18-.09.26l-1.63.08-.4.38c-.12.34-.26.65-.37,1-.06.1.48.53-.29.5l-.16-.06-.46-.42c-.25-.08-.48.32-.94-.18-.22.28-.62.47-.61.88-.36-.18-.2.47-.68,0l-.27.31c.35.38-.06.64-.38.21C104.78,127.47,104.71,127.34,104.86,127Z"/><path class="cls-10" d="M109.21,127.88l.45-.43.12.11C109.6,127.68,109.41,127.77,109.21,127.88Z"/><path class="cls-10" d="M112.3,129c.14,0-.14-.36.11-.51a2.94,2.94,0,0,1,.44-.2,4.72,4.72,0,0,1,.33-.53l-.45-.43.75-.53c.1-.15.19-.32.3-.47l.22-.2c.21.15.43.3.66.44.13-.07.14-.22.22-.43l-.44-.44-.36-1.13a1.43,1.43,0,0,0,.12-.31,2.27,2.27,0,0,0,.24,0c.28.19.55.35.82.54.18-.11.08-.4.31-.46s.38.1.54.14l.54.78-.18.15.79,1.37-.06,0-.39.32a5.18,5.18,0,0,1-.63.3l-.68.48c-.58-.21,0,.5-.23.61l-1,.12-.06.06a4.68,4.68,0,0,1,0,.67l-.54.11c.13.29-.17.3-.37.35Z"/><path class="cls-10" d="M113.78,122.59l.67-.55.48-.4.42.46-.48.39c-.25.16-.5.29-.75.46Z"/><path class="cls-10" d="M119.63,123.24l1-.7c.29.31.67.24.93.65l.11.13c.2.85-.8.09-.9.64l-.66-.08Z"/><path class="cls-10" d="M128.7,118.28l0-.61a6.59,6.59,0,0,0,.75.25.71.71,0,0,0,.15.12c.16.7-.41.47-.72.52-.05.21-.06.45-.11.67-.26,0-.53,0-.8-.06-.24-.32-.41-.73-.26-.85Z"/><path class="cls-10" d="M130.24,113.16a4.93,4.93,0,0,0,.67,0l.28.55-.67.19Z"/><path class="cls-10" d="M132.19,116.89c.11-.78.53-.74.86-.72l.23-.33.51-.26a2.06,2.06,0,0,1,.44.23l.27.55a.54.54,0,0,0-.07.17c-.39,0-.78,0-1.16.07C133,117,132.75,117.46,132.19,116.89Z"/><path class="cls-11" d="M142.31,103.31a1.73,1.73,0,0,1,.37-.16c.14-.06.19-.57.48,0,.18-.16.38.25.55.27.17-.18.35-.38.52-.6a6.8,6.8,0,0,0,.36.6l.34-.29a2.86,2.86,0,0,0,.41-.32,4.6,4.6,0,0,0,.58.16c.28-.16.66-.55,1,.07l.18-.27-.14-.92a.74.74,0,0,1,.22-.14,4.87,4.87,0,0,1,.6.37,1.09,1.09,0,0,1,.29-.14c.33.06.65.15,1,.24l0-.47c.23,0,.46-.08.69-.09l-.07-.9.17,0c.13-.14-.05-.68.43-.4a5.78,5.78,0,0,0,.73,0l.07-.11a.7.7,0,0,1,.08.14l.57-.18.14.64-.14.75-.15,0c0,.19,0,.41-.07.6l.19,1.74a2.29,2.29,0,0,1-.07.28c-.07.11-.12.19-.19.28l-.15-.2-.57-1.66a.82.82,0,0,1-.3.1l-.16-.32-.44.2a6.6,6.6,0,0,0-.75.08l-.45.72c.22.31.43.64.64,1-.11.12-.12.6-.32.42-.62-.92-.72.27-1.3,0l-.53-.06c-.1.33-.35-.07-.54,0-.2.77-1,.24-1.15,1-.25.12-.5.21-.77.31a3.46,3.46,0,0,1-.19.43c-.09,0-.18-.09-.25-.12l-.31.27c-.22-.15-.44-.28-.66-.44s-.2-.4-.32-.59c.18-.31.14-.47.31-.62-.12-1.13-.74-.26-1.3-1C142,103.62,142.26,103.82,142.31,103.31Z"/><path class="cls-10" d="M142.68,103.15c.14-.06.19-.57.48,0C142.87,102.58,142.82,103.09,142.68,103.15Z"/><path class="cls-10" d="M146.24,112c-.15-.78-.31-1.6-.45-2.41.34.2.4-.3.73-.13a4.87,4.87,0,0,0,.36-.59c.27-.12.3-.59.44-.59a2.65,2.65,0,0,1,.55.37,7,7,0,0,1-.18,1.16,1.34,1.34,0,0,1,.13.32l-.21,1.5c-.1,0-.2.09-.3.11-.21-.76-.59-.43-.74-.31l-.15.73Z"/><path class="cls-10" d="M144.23,102.82a4.23,4.23,0,0,0,.37-.45.43.43,0,0,0,.05-.16c0-.25,0-.51,0-.76a4.78,4.78,0,0,1,.44-.29h.15c.2,0,.41.09.61.14l.65,0c.21-.2-.14-1.21.36-.86.14,0,.29.12.43.16l.32,0,.21.34.25-.59a4.75,4.75,0,0,1,.67.21,4.66,4.66,0,0,1,.71-.26l.26.36.07.9c-.23,0-.46.08-.69.09l0,.47c-.32-.09-.64-.18-1-.24a1.09,1.09,0,0,0-.29.14,4.87,4.87,0,0,0-.6-.37.74.74,0,0,0-.22.14l.14.92L147,103c-.38-.62-.76-.23-1-.07a4.6,4.6,0,0,1-.58-.16,2.86,2.86,0,0,1-.41.32l-.34.29A6.8,6.8,0,0,1,144.23,102.82Z"/><path class="cls-10" d="M148.51,111.12l.13,0,.69.12c0,.67-.18.8-.48.65-.19.24-.38.35-.63-.09C148.33,111.57,148.42,111.39,148.51,111.12Z"/><path class="cls-10" d="M148.15,108.42c.08-.64.45-.31.67-.34s.23-.29.34-.43l.11.77L149,109l-.85-.4C148.12,108.51,148.15,108.48,148.15,108.42Z"/><path class="cls-10" d="M150.67,109.37l.36.24.21,1c0,.14-.08.25-.11.39-.2-.23-.41-.48-.62-.7C150.55,109.87,150.48,109.38,150.67,109.37Z"/><path class="cls-7" d="M134.56,103.58c-.35-.81.11-.47.05-.78a19.33,19.33,0,0,0,2.46-.55c.44-.11.88-.22,1.31-.29-.08-.38.17-.25.06-.62,1.14-.23,2.22,0,3-.74a5.39,5.39,0,0,0,2.45-.95c.61.72.76-.85,1.29.1,0-1.08,1.28.64.82-1.16.65-.34,1.35-.33,1.95-1.1-.19-.65.34-.08.4-.46.3,0,.4-.57.84-.53.49-.44,1.06,0,1.71-.19-.06-.72.44-.68.46-1.2.6-.23.4.61.81.91a2.39,2.39,0,0,0,.45-.09,2.16,2.16,0,0,1-.12.76c.11.38.21.79.3,1.16.15.07,0,.53,0,.8-.43-.05-.88-.06-1.33-.07-.09-.38-.22-.53-.17-.81-.39,0-.5.34-.85.47-.95-.34-1.25.72-2.17.49.23,1-.39.42-.5.9-.86-.38-1.33.42-2,.62-.16.3-.69-.06-.79.59-.28-.09-.68-.28-.76.33a13.15,13.15,0,0,1-1.83.47l-.61-.14c-.16-.09-.48-.27-.43.32l-.67.06c-.17-.11-.47-.24-.4.33-.33.09-.64.19-1,.25-.18-.14-.32-.13-.49.37a1.47,1.47,0,0,0-.28.18l-1.46-.49c0,.26-.38.07-.3.67l-.32.06c-.18-.1-.5-.21-.4.35l-.15,0Z"/><path class="cls-10" d="M149.9,100.76c.13-.14-.05-.68.43-.4C149.85,100.08,150,100.62,149.9,100.76Z"/><path class="cls-10" d="M151.52,99.19l.08,0c.07.33.12.63.18,1l-.57.18-.15,0,.07-.11Z"/><path class="cls-10" d="M151.92,100.82l.32.84-.46-.09Z"/><path class="cls-12" d="M147.69,109.85a7,7,0,0,0,.18-1.16.77.77,0,0,1,.24-.12c0-.06,0-.09,0-.15a4.26,4.26,0,0,1,.39.36c.14.06.34-.07.42.19l.12.77c-.12,0-.38-.15-.36.1-.13.25-.41,0-.57.37a1.66,1.66,0,0,0-.33,0A1.34,1.34,0,0,0,147.69,109.85Z"/><path class="cls-12" d="M149.12,102.64a6.6,6.6,0,0,1,.75-.08l.44-.2.16.32a.82.82,0,0,0,.3-.1l.57,1.66-.7-.16c-.17.34-.57-.29-.53.35l-.8-.09c-.21-.34-.42-.67-.64-1Z"/><path class="cls-11" d="M149,109l.31-.55-.11-.77.34,0,.57-.22h.07a6.31,6.31,0,0,1,.51.52l0-.74c0-.16-.07-.33-.11-.46a4.32,4.32,0,0,1,.48-.19l.05.61.08,1.1c0,.16.07.3.1.46.38.09.7.19.84-.19.16,0,.31,0,.46,0l.34.87v.78c-.12,0-.28-.22-.36,0-.24.15-.58,0-.89,0-.21-.22-.21.25-.45.32l-.21-1-.36-.24c-.19,0-.12.5-.16.9h0l-.38-.06c0-.1-.06-.2-.11-.33l-.82-.12h-.07Z"/><path class="cls-12" d="M150.14,107.49c.18,0,.14-.51.45-.68,0,.13.07.3.11.46l0,.74A6.31,6.31,0,0,0,150.14,107.49Z"/><path class="cls-12" d="M151.12,107.23l-.05-.61c.09-.13.16-.27.25-.38l.4.71c.14-.15.19-.4.35-.51a4.56,4.56,0,0,1,.15.48l-.16,1.18a4.71,4.71,0,0,1,.08.5c-.14.38-.46.28-.84.19,0-.16-.06-.3-.1-.46Z"/><path class="cls-11" d="M113.78,126.35c-.11.15-.2.32-.3.47C113.58,126.67,113.67,126.5,113.78,126.35Z"/><path class="cls-11" d="M114.44,125.72l.44.44c-.08.21-.09.36-.22.43-.23-.14-.45-.29-.66-.44Z"/><path class="cls-11" d="M129.38,109.93l.17,0,.46-.11q.27.33.51.66l-.66.44-.44-.18Z"/><path class="cls-11" d="M135.85,108.43c-.06-.31-.08-.82.66-.42.64-.64.88-1.06,1.57-1.17l.55.4c-.06.07,0,.42,0,.62-.55.24-1.12.49-1.69.7l-.13-.11-.82.25Z"/><path class="cls-11" d="M138.7,106.76l.71-.06c-.18-.58.4-.09.42-.47a5.59,5.59,0,0,1,.63.26c-.27.25-.05,1-.85.83-.09.07-.16.2-.35.15l-.49-.25C138.75,107.07,138.73,106.91,138.7,106.76Z"/><path class="cls-11" d="M141.22,103.82a2.08,2.08,0,0,0,.38-.35,4.81,4.81,0,0,1,.22.46c.06.29,0,.58-.47.33Z"/><path class="cls-11" d="M151.32,106.24l.28-.69c.16.17.31.37.47.56v.33c-.16.11-.21.36-.35.51Z"/><path class="cls-7" d="M116.29,116.22a.81.81,0,0,0,.22,0A.81.81,0,0,1,116.29,116.22Z"/><path class="cls-7" d="M129.25,113.27A2.29,2.29,0,0,0,129,113,2.29,2.29,0,0,1,129.25,113.27Z"/><path class="cls-7" d="M131.19,105c-.2-.74.29-.49.26-.81s.32-.47.53.17c.09-.18.17-.32.25-.5s.45.05.45-.24.19-.13.27-.2c.23.53.47.1.77.34.14.3-.16.48-.19.65a5,5,0,0,0-.49.53.44.44,0,0,0,0,.16l-.92-.45Z"/><path class="cls-10" d="M114.09,124.16a8.08,8.08,0,0,0-.93-.63c-.06.06-.12.11-.59.07l-.2-.2a3.84,3.84,0,0,1,.2-.6l.85.1Z"/><path class="cls-10" d="M114.2,124.28l-.11-.12Z"/><path class="cls-10" d="M151.68,104.16a2.29,2.29,0,0,0,.07-.28A2.29,2.29,0,0,1,151.68,104.16Z"/><path class="cls-11" d="M144.43,113.06l.82,0c.08.56,0,.63-.17.6C144.93,113.92,144.59,113.12,144.43,113.06Z"/><path class="cls-7" d="M133.72,103.72c.07-.65.47-.47.84-.14,0,.13.07.63-.26.49S133.91,103.82,133.72,103.72Z"/></g></g></g><g class="cls-13"><g class="cls-6"><g class="cls-6"><path class="cls-7" d="M56.75,103.16c-.22-.42.15-.68.32-1,.88-.92,1.76-1.84,2.66-2.74a2.41,2.41,0,0,0,1.09-2.3l1-.22a11.94,11.94,0,0,1,1.57-2.56l.82-.77c1-.33,1.2-1.18,2-1.17.22-.19.16-.5.22-.78A3.1,3.1,0,0,0,67.82,90a9.51,9.51,0,0,0,.76-.64l-.12-.1c.9-1.1,1.89-2.08,2.85-3.12.75-.43,1.15-.57,1.12-1,.1-.12.23-.24.34-.35l.71-.7L74.73,84l.2,1.36-.7.69-.34.34-.49.72-1.08,1,.46.42c-.2.26-.37.54-.55.82l-.58-.52a2.63,2.63,0,0,0-.49,0l-.8,0c-.26.27-.49.55-.73.82l-.45.28.15.77c-.48.26-.43.5-.28.57.25.36.61.24.9.41l.2,1a5.49,5.49,0,0,1-.65.25c-.3.3.13.89,0,1.24-.36.16-.69.35-1,.54a5.19,5.19,0,0,1-.63.27c-.35.12.06.5-.13.67-1,1.13-2,2.25-2.89,3.43-.61.33-.83.52-.8.8-.71.92-1.5,1.8-2.21,2.76a5.93,5.93,0,0,0-1.28,1.63,2.1,2.1,0,0,0-1.15-.3,9,9,0,0,1-.64-.73c-.22-.31-.51,0-.86-.42A11.47,11.47,0,0,1,56.75,103.16Z"/><path class="cls-8" d="M69.33,90.6l-.15-.77.45-.28c.24-.27.47-.55.73-.82l.8,0a2.63,2.63,0,0,1,.49,0l.58.52a4.89,4.89,0,0,0-.6.41c-.36.28-.09.62-.27.73a2.33,2.33,0,0,1-.27.1,9,9,0,0,0-.19.93c-.27,0-.54,0-.81,0l-.14.17c-.29-.17-.65,0-.9-.41C68.9,91.1,68.85,90.86,69.33,90.6Z"/><path class="cls-7" d="M70.7,84.69a3.32,3.32,0,0,1-.35-1c1.14-.36,1.18-1.88,2.56-1.89.15-.47.35-.94.53-1.43s1.18-.36,1-1.12l1-.48c.34-.35.66-.74,1-1.12a10,10,0,0,0,.87-.57l.47-.4a2.28,2.28,0,0,1,.07-.87,2.17,2.17,0,0,0-1.1.5c-.08,0-.19-.09-.27-.15l-.53-.58a9,9,0,0,0,.46-.81c.24-.24.46-.52.68-.79l.7-.75.2-.17c.25,0,.5,0,.78-.07,0-.53.66-.42,1-.38.08,0,.18,0,.29-.06.35-.2.75-.42,1.11-.65,0,.55-.45.67-.8,1l.49.61-.49.38c0,.37-.07.74-.08,1.09.26.47.53.91.81,1.36l.3.35c.11.72-.69,1.38-1.21,1a1,1,0,0,1-.3,0c-.29-.1-.58-.16-.9-.28l-.34.93c.21.08.42.2.61.29l.43.67c.24.38-.1,1.19.77,1.19,0,.18.09.35.14.52-.29.09-.57.22-.84.33-.39.54.47,1,.67,1.73l.43-.39h.93l.27-.24.16-.15c.26-.66.63-.83.57-1.29l.85-.11c.27-.74,1.38-.1,1.34-1.13l-.11-.12.25-1,.55-.42c.07-.3.12-.62.17-.91.73,0,1.08-1.2,1.87-.66l.78,1-.27.2c.6,1.35-.7,1.19-.42,1.88-.15.24-.5.22-.85-.13-.4.22-.79.46-1.18.7l.14.91c-.78.56-1.34,1.54-2.65,1-.2.13-.32.43-.73.23l.28.8c-.18.17-.11,1-.88.58l-.18.17a1,1,0,0,1-.41.76A4.11,4.11,0,0,1,80,84.51c-.38-.57.24-.57.06-1.11-.41-.11-.86-.23-1.29-.32-.89-.56-1.14-.2-1.45,0-.21,0-.45,0-.67,0-.3.16-.24.51-.49.72-.31-.16-.6-.28-.93-.42.47-.68-.26-1.34-.09-1.65.35-.31.72-.54,1.09-.83l.71-.66c.35-.49.66-1,1-1.51-.86.43-1.33.65-1.4,1.06l-.73.66c-.33.32-.67.6-1,.93l-.53.53-1.05.17a7.22,7.22,0,0,0-.4.84c-.65.56-1.33,1.12-2,1.76a.83.83,0,0,0,0,.18Z"/><path class="cls-8" d="M86.27,78.56a2,2,0,0,1,.74-.93c.22.08.49.07.65.28-.27.78-.53,1.06-.88,1.09A1.7,1.7,0,0,1,86.27,78.56Z"/><path class="cls-7" d="M91.22,66.31l1.16-.47c.53.15.91-.25,1.28-.5s.78-.48,1.18-.73l1.39-.48,1-.32.82-.24,1-.28.47-.14.56.14c.36-.2.71-.42,1.08-.6a5.86,5.86,0,0,1,.67-.32l1.48-.52c.8.67,1.17-.68,2.3-.29l.72-.63c.35.07.69.1,1,.14a3.36,3.36,0,0,0,.52-.39,3.88,3.88,0,0,0,.63.08c.28-.13.58.09.72.53a7.41,7.41,0,0,0,.44-.84c.43-.09.86-.22,1.28-.27a.87.87,0,0,1,.14.12l2.77-.64c.09-.2.18-.56.29-.62h.23l.62.28a.83.83,0,0,0,.58-.14c1.12.19,1.08-.56,1.59-.77.25-.06.49-.11.71-.14.59.54,1.5.36,2.14.28l.22.63.94.09.56.35a1.83,1.83,0,0,0,.58-.24v-.32l.58-.2c.09,0,.21.13.32.18a5.48,5.48,0,0,0,.48-.39c.44,0,.85-.08,1.28-.12.63-.69,1.54.06,2.16-.64.29,0,.52.48.8.2l.8.21c.78.43,1.44-.7,2,.43.24.25.43-.19.65-.25l1.2.4c.19-.61.57.14,1-.12l1,.44c.07.1.12.19.17.25-.09.34-.17.73-.24,1.09l-.74.53a4.55,4.55,0,0,0-.55.26,8.14,8.14,0,0,0-.87,0c-.59,0-.71.53-1,.46l-.1,0-1,0-.51-.18-.71.3c-.37,0-.8-.47-1.2.12a3,3,0,0,0-.56.17,4.79,4.79,0,0,0-.69-.49,8,8,0,0,0-.9.42,6.11,6.11,0,0,1-.79.44c-.42-.24-.72.24-1.14,0a3.09,3.09,0,0,1-.44-.23,5.82,5.82,0,0,1-.33.59l-.64-.11-.84-.09-1.5,0c-.8.92-2.56-.1-3.44.62-1,.25-1.92.38-2.89.7l-2.05.58-2,.68-.32,0a6.33,6.33,0,0,1-.3-.74c-.11-.18-.24-.1-.38-.08a2,2,0,0,0,0,.91c-.49.61-1,.53-1.28.87l-.65.11-.47-1.65,0-.49,1.1-.32c.62-.29,1.23-.53,1.84-.76l.45,0a8.3,8.3,0,0,0,.84.06,9.59,9.59,0,0,1,1.27-.58l1-.07a2.18,2.18,0,0,0,.9-.84l-.88-.42a6.73,6.73,0,0,1-.77.21l-.45.2h-.22l-.37,0c-.93-.27-1.19.08-1.65,0l-.12,0c-.27.13-.57.26-.86.43a4.85,4.85,0,0,0-.86,0c-.3.22-.61.41-.93.63l-.12,0c-.27-.25-.52-.53-.83-.8l.24,1.24,0,.15-.48.09c-1.86-.38-1.87,1.44-3.28,1.35-.26.38-.52.39-.64.63l-.56-.48c-.06.28-.11.57-.19.86a7.43,7.43,0,0,1-1,.1l.16.76a6.46,6.46,0,0,1-.84.4l-.7-.76L98.32,66l1.1-.45-.34-.88c-.51.38-1.45-.8-1.28.37-.61,0-.53.39-.73.42s-.42.25-.64.36c-.35.53.44,1.35-.19,1.7l-.45.15-.19-.41c0-.33-.08-.62-.14-.94-.54-.15-.92-.56-1.48-.3-.3.26-.59.48-.88.7-.09.11,0,.7-.38.63l-1,.42-.87-.66C91,66.87,91.08,66.61,91.22,66.31Z"/><path class="cls-8" d="M108.64,65.25a2,2,0,0,1,0-.91c.14,0,.27-.1.38.08a6.33,6.33,0,0,0,.3.74C109.08,65.19,108.84,65.21,108.64,65.25Z"/><path class="cls-9" d="M33.6,123.42l.22-.48c.66-.64.28-.75,0-.86a8.19,8.19,0,0,0,0-.87,8.43,8.43,0,0,0,.55-.78c.57-.93,1.72-.59,1.46-1.52s1.2-.79.89-1.78c.57-.68,1.3-.89,1.13-1.5l.18-.35.3-.59a1.48,1.48,0,0,1-.16-1c.32,0,.68,0,1,.1l.32-.58a8.83,8.83,0,0,0,1.06-.66c.29-.25.59-.47.91-.7a3.13,3.13,0,0,1,1.07-2.27c.32,0,.33-.32.47-.49-.61-.69.6-.3.62-.73A7.83,7.83,0,0,0,46.06,105l.35-.55c1.42-.17,1-1.86,2.11-2.41a8.89,8.89,0,0,1,1.27-1.58A5,5,0,0,0,51,98.6c.59-.3,1.28-.72,1.35-1.46.35-.5.68-1,1-1.51,1.64-.91,2.26-2.68,3.37-3.52,2.06-2.06,3.79-4.82,5.89-6.69.31.08.36-.27.55-.39-.47-.66.35-.16.51-.6.75-1,2.07-1.86,2.32-3l.17-.18a6.82,6.82,0,0,0,.68-.25c.23-.35.68-.55.78-1.06l.56-.55c.48-.34.79-.37.75-.75a16.55,16.55,0,0,0,2.83-2.72l.18-.17.58-.53c.77-1.18,2.2-.36,1.93-1.75l.79-.66a23.28,23.28,0,0,0,3.22-1.87l1.55-1.57a2.92,2.92,0,0,0,1.21-.56c.18.15.34.27.48.41l1-.14c-.1-.77,1.44-.86,1.45-1.59.31-.49.83.38,1-.36.1-.2.31-.48.16-.76l.24-.11.18-.76c.62-.33.6-.6.84-.9.26,0,.53.08.81.14-.13-.66.53-.57.55-.94s.69-.4,1.08-.45l1.21-.5.47-.19c-.09-.59.36-.6.6-.59l1.41-.36c.32-.21.29-.48.48-.51s.5.06.74.08.18-.34.55-.37l.73-.26a3.11,3.11,0,0,0,.43-.31l.71-.35.23-.07c0-.67.7-.51.79-.91a3.08,3.08,0,0,0,.34.24L98.5,59c.22,0,.44,0,.67,0,.7-.54,1.84-.42,2.67-1l-.13-.44c.08-.09.21-.15.32-.25a9.08,9.08,0,0,0,1-.36l.35.26.59-.28-.08-.31.14,0,1.47-.42,1.17.45a.81.81,0,0,1,.1-.18c.31-.21.6-.41.92-.59.1-.18.61-.38.52-.69a5.94,5.94,0,0,1,.72.35c.43.15.48-.37.57-.51l2.1.11.23,0c.09-.6.51-.47.74-.34l.51,0c.12-.61.58-.4.71-.67.67.21,1.32.36,2,.59a4,4,0,0,1,.5-.15c.45-.48.66-.47.88-.31.51,0,1-.08,1.54-.13.12-.57.53-.38.74-.23l1,.07c.17-.6.57-.38.78-.26s.57.14.86.25c1-.06,2.13.07,2.94,0,.38-.55.91-.25,1.29-.08.42-.58,1.08-.1,1.44-.35,1.07,0,2.11-.63,3.25.05.34-.4,1.06.37,1.1-.64,1.28.59,2.15-.3,3.43.4.57,0,.85-.28,1.42-.08-.18.24,0,.44,0,.83.67.24,1.33.47,1.95.73-.13.44-.28.91-.44,1.34l-.43,1c-.2.08-.31.28-.55.42-.35.59-.67,1.19-1,1.77l-.29,1.08-.49.07c-.18-.37-.38-.72-.56-1.14a1.37,1.37,0,0,0,.2-.22c.13-.58.25-1.13.35-1.72a4,4,0,0,0,.32-.52l.23.1.66.32-.18-.95V55.6l0-1.05c-.33.25-.61.49-1,.77l-.14.09a11.38,11.38,0,0,1-1.12-.27c-.62-.45-.55.13-.82.2l-.24-.09-.25-.45c-.4,0-.77,0-1.18,0a9.66,9.66,0,0,0-.91-.46l-.61.45-.18-.39-.48-.12-.59-.29c-.6-.49-.48.58-.9.71-.33-.08-.63-.18-1-.24l-.86-.29-1,.09c-.11.25-.21.49-.34.73,0,.06-.09.08-.14.13l-.76.34c-.35.18-.69.33-1,.48-.25-.07-.37-.51-.72-.39-.2-.62-.48-.13-.71-.1a4.48,4.48,0,0,0-.62.11L120,55v.61a7,7,0,0,1-.72.27c-.1-.2-.18-.44-.26-.64a4.68,4.68,0,0,0-.88.13l-1-.51a3.4,3.4,0,0,1-.49.15l-.35.77a4.6,4.6,0,0,0-.53-.46c-.2.08-.4.2-.6.3-.09.62-.49.44-.73.35s-.64.12-1,.19c0,.62-.83.08-1.06.5-.66.32-1.32.15-1.82.48-.66.15-1.29.3-1.94.5l-.62.09c-.22.19.15.6-.1.8l-.36.05c-.23.75-.78.82-1,.62-.27-.81-.41-.71-.56-.69-.19.24.08.55.18.76l-.52.89-.6.12c-.62-.64-1.11.32-1.87.19-.68.3-1.55.65-1.73,1.52-.28,0-.58,0-.89.08l-.1-.31c-.76,0-.36.47-.59.5l-.25.07c-.74-.56-1.54-.53-1.3,0-.76,0-.38.48-.61.52l-.78.36a2,2,0,0,1-1.23-1.05c-.36,0-1,0-1.14.57a3.93,3.93,0,0,1-.2.55c-.25-.05-.48-.14-.78-.21a.7.7,0,0,0-.45.81l-.71,0-.78.46c-.3-.27-.55.32-.85-.32a6.75,6.75,0,0,1-.65.44,1.84,1.84,0,0,1-1.33,1.9c-.59.13-1,.27-1.08.67-.92.14-.09.68-.57.8a4.66,4.66,0,0,0-.65.12c-.55,0-.29.61-.58.8l-.76-.31c-.52.37-.89.53-.86,1.31a13.69,13.69,0,0,0-1.82,1.12L81.1,71.9c-.36.23-.76.45-1.11.65-.11,0-.21,0-.29.06-.34,0-1-.15-1,.38-.28,0-.53,0-.78.07l-.2.17L77,74c-.22.27-.44.55-.68.79a9,9,0,0,1-.46.81l.53.58c.08.06.19.1.27.15a2.17,2.17,0,0,1,1.1-.5c.2-.89.63-1,1-.81,0,.19.07.37.1.52l-.77.47c0,.64-.57.77-.84,1.09a10,10,0,0,1-.87.57l-.7-.42-.1.09a6.07,6.07,0,0,1-.45.64,5.79,5.79,0,0,0,.07.6l-.9.16-.43-.45a.3.3,0,0,1-.21,0L73,77.56a6.72,6.72,0,0,1-.56.73l-.07.08a6.15,6.15,0,0,1-.67.42c-.1,0-.2.06-.28.1l-.25.66c-.24.88-.57,1.34-1.27,1.26a3,3,0,0,1-.31.07c-.24.48-.49.94-.71,1.42.81.33-.09.72-.41.68-.16,1.23-1.08,1.35-1.55,1.86-.19.3-.38.59-.59.87C65.7,87.4,63,87.47,63.2,89.57c-.19.26-.69.27-.56.68-.23.46-.18.6-.14.71.29.46.84,0,.5-.42l.4-.5c.48.43.45-.38.86-.25.08-.55.65-.9,1-1.36.46.51.82-.11,1.1-.08l.47.4-1.32,1.52c-.43.06-.57.52-.54.88l-.65,1.08-1.17.68-.31.39-.48.59c-.44.55-.89,1.1-1.3,1.68-.89.26-1.36.57-1.36,1.06l-.44.59a5.55,5.55,0,0,1-.58.52c-.12.37-.37.23-.68.14-.52-1-1.2-.94-1.09-.11-.09.13-.21.27-.29.41a7.68,7.68,0,0,1-.58.54c-.68.08-.17.82-.59,1.15-.27.23-.54.44-.84.65l-.58.84c-.64.6-1.16,1-.87,1.6l-.35.53-.79.1c-.11.28-.47.5-.34.83L50,106.74c.06.22.26.49.13.66a6.8,6.8,0,0,1-.72.32c-.85-.75-1,.53-1.05.88.1.21.34.51.33.65l-.06.1-.88.54-.33.55c-.3,0-.58-.17-.87,0-.08.88-1.07,1.35-1.72,1.74l-.49.9c-.15.41-.3.82-.48,1.21l-.38.69c-1,.14-.54.45-.73.66l-.43.51c-.55.93-2.07,1.41-2.38,2.57-.62.66-1.46,1.07-1.89,2l-1.11,1.53-.71-.33-.94.56a3.75,3.75,0,0,1-1.32,1.73C33.81,123.91,33.71,123.65,33.6,123.42Z"/><path class="cls-9" d="M54.06,111.77c0-.76.36-1.17.83-1.07C55,111.61,54.73,111.92,54.06,111.77Z"/><path class="cls-9" d="M57.28,108.07c-.24-1,.18-1.49.79-1.23.08.3.13.57.19.85C57.94,107.82,57.62,108,57.28,108.07Z"/><path class="cls-9" d="M59.29,105.55a4.9,4.9,0,0,1,0-1.72,2.1,2.1,0,0,1,1.15.3c.06.25.16.51.22.76l-1,.53A4.45,4.45,0,0,1,59.29,105.55Z"/><path class="cls-9" d="M67.66,95.51c.19-.17-.22-.55.13-.67a5.19,5.19,0,0,0,.63-.27c.33.42,0,.56.11.86C68.47,95.76,68,95.54,67.66,95.51Z"/><path class="cls-9" d="M70.15,92.54l-.2-1,.14-.17c.27,0,.54,0,.81,0a9,9,0,0,1,.19-.93,2.33,2.33,0,0,0,.27-.1l1,.83-.7.81a6.28,6.28,0,0,0-.17.65l-.7.35c-.42.33-.84.67-1.28,1,.16-.35-.27-.94,0-1.24A5.49,5.49,0,0,0,70.15,92.54Z"/><path class="cls-9" d="M77.57,84.22l.26-.27-.49-.83c.31-.24.56-.6,1.45,0,.43.09.88.21,1.29.32.18.54-.44.54-.06,1.11l-.36.33a12.72,12.72,0,0,0-1,1.16,1,1,0,0,1-.43-.26Z"/><path class="cls-9" d="M76.54,79.84c.07-.41.54-.63,1.4-1.06-.32.52-.63,1-1,1.51Z"/><path class="cls-9" d="M80.36,83.15c-.2-.7-1.06-1.19-.67-1.73.27-.11.55-.24.84-.33a1.55,1.55,0,0,0,.29.14c.34-.23.69-.42,1-.65.16,0,.31-.13.47-.18l.42.67c.06.46-.31.63-.57,1.29l-.16.15-.27.24h-.93Z"/><path class="cls-9" d="M78.92,77.49c.32.12.61.18.9.28.08.52-.38.69-.63.94-.19-.09-.4-.21-.61-.29Z"/><path class="cls-9" d="M87.64,76.73c.47-.78.29-1.13.91-.83.32.52-.11.88-.16,1.29-.12.17.47.07.39.28s-.25.19-.36.28Z"/><path class="cls-10" d="M85.94,68.7c.29-.19,0-.84.58-.8a4.66,4.66,0,0,1,.65-.12c.48-.12-.35-.66.57-.8.11-.4.49-.54,1.08-.67a1.84,1.84,0,0,0,1.33-1.9A6.75,6.75,0,0,0,90.8,64c.3.64.55,0,.85.32l.78-.46.71,0a.7.7,0,0,1,.45-.81c.3.07.53.16.78.21a3.93,3.93,0,0,0,.2-.55c.13-.59.78-.62,1.14-.57a2,2,0,0,0,1.23,1.05l.78-.36c.23,0-.15-.53.61-.52-.24-.57.56-.6,1.3,0l-.2.87-.47.14-1,.28-.82.24-1,.32-1.39.48c-.4.25-.78.47-1.18.73s-.75.65-1.28.5l-1.16.47c-.14.3-.27.56-.42.83a7.54,7.54,0,0,1-.55.59c-.2-.12-.56,0-.69-.54l-.33.15c-.37.13-.73.23-1.12.33l-.68.31.24.42A13.32,13.32,0,0,0,86.1,69l-1.78.72c0-.78.34-.94.86-1.31Z"/><path class="cls-9" d="M87.43,68l.68-.31c.39-.1.75-.2,1.12-.33,0,.27.08.53.13.8-.33.54-1,.5-1.69.26Z"/><path class="cls-7" d="M96.13,72.24a3.93,3.93,0,0,1,.6-.06c.42,0,.41-.5.36-.83l-.7-1.22L98,69.42l.63,1.43.11,0,.59,1.6a3.46,3.46,0,0,1-.46.32c-.93.33-1.72.84-2.55,1.1a2,2,0,0,0-.53-.8Z"/><path class="cls-9" d="M95.81,70.53a5.45,5.45,0,0,0,.58-.4l.7,1.22c-.3,0-.63-.07-1-.12Z"/><path class="cls-9" d="M99,70.71c.15-.7.45-.8.72-.88.2.17.47.22.57.46C99.84,71,99.49,71.13,99,70.71Z"/><path class="cls-9" d="M100.72,65.68c.08-.29.13-.58.19-.86l.56.48c.12-.24.38-.25.64-.63,1.41.09,1.42-1.73,3.28-1.35,0,.42,0,.82,0,1.24-1,.5-1.76.66-2.09,1.42l-.84-.3a6.93,6.93,0,0,0-.78.2c-.24.14-.5.27-.74.38Z"/><path class="cls-10" d="M105.39,63.32l.48-.09,0-.15a5.63,5.63,0,0,0,.59-.44l.12,0c.32-.22.63-.41.93-.63a4.85,4.85,0,0,1,.86,0c.29-.17.59-.3.86-.43l.12,0a7.61,7.61,0,0,1,.28.75,2,2,0,0,0,1.37-.78l.37,0h.22l.45-.2a6.73,6.73,0,0,0,.77-.21l.88.42-.36.64c-.53.14-.92.49-1.58.27a9.59,9.59,0,0,0-1.27.58,8.3,8.3,0,0,1-.84-.06l-.45,0c-.61.23-1.22.47-1.84.76l-1.1.32,0,.49-.85,0C105.39,64.14,105.4,63.74,105.39,63.32Z"/><path class="cls-9" d="M105.59,61.84c.31.27.56.55.83.8a5.63,5.63,0,0,1-.59.44Z"/><path class="cls-9" d="M111,61.56a2,2,0,0,1-1.37.78,7.61,7.61,0,0,0-.28-.75C109.77,61.64,110,61.29,111,61.56Z"/><path class="cls-9" d="M111.12,67.3c.15-.15.29-.32.44-.5l.42,0a6.76,6.76,0,0,1,.66-.5c.32-.47.65-.13,1,.24l.22-.63c.32,0,.67-.16,1,.11a4.82,4.82,0,0,0,.2.61h.82l.15,1.09-.42.6c-.2-.48-.42-.92-.61-1.37l-1.35.2.2,1.08c-.31.08-.67.13-1,.2-.17-.17-.22-.43-.46-.73a1.46,1.46,0,0,0-.25-.13c0,.19-.11.43-.17.63l-.63.06a1.41,1.41,0,0,0-.18-.27A4.57,4.57,0,0,0,111.12,67.3Z"/><path class="cls-9" d="M112,61.32a6.73,6.73,0,0,0,.77-.21A6.73,6.73,0,0,1,112,61.32Z"/><path class="cls-9" d="M114.21,61.35c.13-1,1.06-.4,1.26-1,.45-.27.52.41.75.6v.16c-.18.27-.39.53-.6.79C115.16,61.79,114.57,62.34,114.21,61.35Z"/><path class="cls-11" d="M109.85,66l-.22-.91,2-.68,2.05-.58c1-.32,1.94-.45,2.89-.7.88-.72,2.64.3,3.44-.62l1.5,0,.84.09.64.11a5.82,5.82,0,0,0,.33-.59,3.09,3.09,0,0,0,.44.23c-.14.83-.24,1.66-.33,2.46-.53.06-1.07.12-1.62.2L121,64.7c-.39-.31-.55.35-.69.84l-.3,0-.65-.69c-.43-.31-.47.56-.78.6a5.63,5.63,0,0,0-1,.55h-1l-.71-.62c-.52-.25-.66.38-1,.61-.31-.27-.66-.06-1-.11l-.22.63c-.36-.37-.69-.71-1-.24a6.76,6.76,0,0,0-.66.5l-.42,0a5.28,5.28,0,0,0-.75-.38l-.85.09Z"/><path class="cls-9" d="M118.55,65.43c.17.27.47.35.44.64-.12,1-.7.43-1.07.54a2.92,2.92,0,0,1-.36-.63A5.63,5.63,0,0,1,118.55,65.43Z"/><path class="cls-9" d="M120.14,60.11l1.13.73c-.4.71-.85.5-1.22.49C120.08,60.82,120,60.22,120.14,60.11Z"/><path class="cls-9" d="M124.14,64.39c.27-.09,1-.32,1,.48-.2,1-.67.43-.86.78-.29,0-.46-.21-.65-.57Z"/><path class="cls-9" d="M126.55,63.51l.49.11c.38-.27.75,0,1.06-.19.08-.24.4,0,.61,0l.11,0c0,.41.05.79.08,1.17-.16.56-.32.34-.45.34l-1-.33-.2-.07c-.26.24-.51.41-.75.62l-.86-.35C125.91,64.41,126.21,64,126.55,63.51Z"/><path class="cls-7" d="M32.21,126.71c0-.61,0-1,.39-1.14.1-.37.22-.78.35-1.14s.43-.69.65-1c.11.23.21.49.34.73l-.16.35c-.27.42-.53.82-.77,1.26S32.49,126.41,32.21,126.71Z"/><path class="cls-7" d="M31,120c.81-.37.17-1.51,1.17-1.69l.71.34c.56-.1.75-.32,1.3-.12.8-.85.69-1.44,1.62-2.19.23-.38.49-.75.75-1.12l.23-.47.31-.6c.51.23.48-.47.86-.62l.65-.85.45-.83c.23.19.73.36.73-.05s1-.31.73-1c-.27-.12.07-.34.11-.54.37.2.39-.17.73,0,.32-.52-.8-1.33.25-1.7.6-.37,1.51-.71,1.57-1.69-.56-2.15,2.57.19,1.47-1.93,0-.36.49-.12.62-.4.24-.5.49-1,.78-1.53.7.17.61-1.09,1.31-.91,0-.43,0-1,.5-1.09a19.26,19.26,0,0,1,1.48-1.4c.06-.43,1.13-.25.61-.89-.46-.37.2-.69.32-1,.71.17.74-1.13,1.55-.88.43-.44.84-.89,1.32-1.32v-.81c1.07-1.24,2.07-2.28,3.07-3.36a47.05,47.05,0,0,0,3.17-3.49c1.16-.32.34-1.48,1.51-1.8,1-.64,1.37-1.64,2.3-2.17.6,0,.1-.57.41-.7.64-1.08,1.64-1.15,2.43-1.71-.25,1.14-1.57,2-2.32,3-.16.44-1-.06-.51.6-.19.12-.24.47-.55.39-2.1,1.87-3.83,4.63-5.89,6.69-1.11.84-1.73,2.61-3.37,3.52-.37.51-.7,1-1,1.51-.07.74-.76,1.16-1.35,1.46a5,5,0,0,1-1.2,1.85A8.89,8.89,0,0,0,48.52,102c-1.08.55-.69,2.24-2.11,2.41l-.35.55a7.83,7.83,0,0,1-2.33,3.38c0,.43-1.23,0-.62.73-.14.17-.15.51-.47.49a3.13,3.13,0,0,0-1.07,2.27c-.32.23-.62.45-.91.7a8.83,8.83,0,0,1-1.06.66l-.32.58c-.34,0-.7-.08-1-.1a1.48,1.48,0,0,0,.16,1l-.3.59-.18.35c.17.61-.56.82-1.13,1.5.31,1-1.23.94-.89,1.78s-.89.59-1.46,1.52a8.43,8.43,0,0,1-.55.78c-.08-.13-.19-.27-.29-.44l-.86-.4-1.11.53c-.13.28-.18.62-.61.61C30.23,121.17,31.25,120.53,31,120Z"/><path class="cls-7" d="M33.82,122.94c-.33-.36,0-.62,0-.86C34.1,122.19,34.48,122.3,33.82,122.94Z"/><path class="cls-11" d="M48.22,113.42c-.19-2,1.28-2.7,1.53-4.15.75-.24.42-.52.56-.69.83-.72,1-1.29,1.67-1.23.31-.37.61-.72.89-1.1.14-.76,1-.84.85-1.87l.13-.2c.26-.06.54-.07.8-.12,0-.27-.06-.51-.07-.8.75-.33.9-.61.86-1a9.77,9.77,0,0,0,.7-.73l.87-1.26.29-.42c.7-.28,1-.44.9-.74-.32-.55.48.07.49-.44.25-.4.7-.72.8-1.3L60,96.9a4.76,4.76,0,0,1,.56.07l.43-1.4c.41-.58.86-1.13,1.3-1.68l.48-.59.31-.39,1.17-.68.65-1.08c0-.36.11-.82.54-.88l1.32-1.52.19,0c.94-.23.36-.62.46-.78.2-.48.42-.94.66-1.43l.59-.63,2.08-.65c.06-.12.1-.26.17-.38a.83.83,0,0,1,0-.18c.62-.64,1.3-1.2,2-1.76l.21.21c.59-.12.68-.21.77-.3a5.23,5.23,0,0,1,1,.5L74.29,82l.53-.53.34.35c-.17.31.56,1,.09,1.65a2.49,2.49,0,0,1-.29.07,3.17,3.17,0,0,1-.23.45l-1.25.14-.71.7c-.11.11-.24.23-.34.35,0,.39-.37.53-1.12,1-1,1-2,2-2.85,3.12l-.64.74a3.1,3.1,0,0,1-1.46,1.68c-.06.28,0,.59-.22.78-.75,0-.93.84-2,1.17l-.82.77a11.94,11.94,0,0,0-1.57,2.56l-1,.22a2.41,2.41,0,0,1-1.09,2.3c-.9.9-1.78,1.82-2.66,2.74-.17.3-.54.56-.32,1l-.22.32c-.72.41-.73.66-.77.85l-.45.46L54,106.91c-.24,0-.45-.08-.7-.11a5.36,5.36,0,0,1-.06.7l-.27.42-.47.73c-.44.11-.63,1.13-1.12,1.27C50.19,110.9,49.51,112.46,48.22,113.42Z"/><path class="cls-7" d="M53.26,106.8c.25,0,.46.06.7.11.16.35,0,1-.76.59A5.36,5.36,0,0,0,53.26,106.8Z"/><path class="cls-7" d="M58.26,107.69c-.06-.28-.11-.55-.19-.85l1.22-1.29a4.45,4.45,0,0,0,.45-.13l1-.53.14.09-.3.66c-.09.24-.18.49-.28.69-.11.5-.95.08-1.27.22.14.32.7.53.6.8l-.32.52a1.77,1.77,0,0,1-.35.23l-.11-.07Z"/><path class="cls-7" d="M56.53,103.48c.13.44-.14,1.13-.77.85C55.8,104.14,55.81,103.89,56.53,103.48Z"/><path class="cls-7" d="M73.58,90.29a8.24,8.24,0,0,0,.24-.92l.09-.09,1.34-.52v-.67C75.94,88,76,87,76.71,87c.3-.2.59-.4.88-.63l.57-.57.09-.09a1,1,0,0,0,.43.26l.14,1c-.23.15-.35.54-.7.47l-.69.45-.39.61c.3.52-.31.58-.43.87a2.35,2.35,0,0,0-.67,0c0,.65-.13.81-.3,1a.87.87,0,0,1-.75-.35l-.06.07.15.8c-.2.12-.28.48-.6.39C74.23,90.84,73.63,90.67,73.58,90.29Z"/><path class="cls-7" d="M66.2,81.25c.19-.82.57-1,1.23-1.53l.46-.65.85-.66c1-.83,2-1.69,3.06-2.49A16.55,16.55,0,0,1,69,78.64c0,.38-.27.41-.75.75l-.56.55c-.1.51-.55.71-.78,1.06A6.82,6.82,0,0,1,66.2,81.25Z"/><path class="cls-7" d="M72,75.75c-.1-.53,0-.66.27-.86-.06-.26-.09-.5-.17-.74.27-.64.76.06,1.12-.36.73.24.52-1.46,1.29-.32.27,1.39-1.16.57-1.93,1.75Z"/><path class="cls-7" d="M75.78,72a3.47,3.47,0,0,1,2.66-2.74c-.12-.33,0-.44.13-.68.25,0,.52,0,.8-.05l.68.88L78.5,70.94a23.28,23.28,0,0,1-3.22,1.87C75.45,72.54,75.63,72.25,75.78,72Z"/><path class="cls-7" d="M81.19,68.49a31.42,31.42,0,0,1,4.17-2.12c.15.28-.06.56-.16.76-.14.74-.66-.13-1,.36,0,.73-1.55.82-1.45,1.59l-1,.14c-.14-.14-.3-.26-.48-.41A1.5,1.5,0,0,0,81.19,68.49Z"/><path class="cls-7" d="M85.12,62.87l.73-.34a.29.29,0,0,0,.5.12,5.84,5.84,0,0,0,2.92-1.6c.51,0,.93.56,1.49.41a7.32,7.32,0,0,1,2.29-.68,3.77,3.77,0,0,1,2.59-1.24l.26-.07c.18-.67.91-.69,1.35-.89l1-.3c.58-.87,2.4-.54,3-1.39.12.4.46.15.48.68l.13.44c-.83.57-2,.45-2.67,1-.23,0-.45,0-.67,0l-.75.23a3.08,3.08,0,0,1-.34-.24c-.09.4-.78.24-.79.91l-.23.07-.71.35a3.11,3.11,0,0,1-.43.31l-.73.26c-.37,0-.36.34-.55.37s-.48,0-.74-.08-.16.3-.48.51l-1.41.36c-.24,0-.69,0-.6.59l-.47.19-1.21.5c-.39,0-1,.1-1.08.45s-.68.28-.55.94c-.28-.06-.55-.11-.81-.14-.24.3-.22.57-.84.9a9.39,9.39,0,0,1-.21-1L84.83,64C84.82,63.62,84.33,62.88,85.12,62.87Z"/><path class="cls-7" d="M84.67,60.53c.7.25,2.24-1.43,2,.28-.26.1-.51.22-.74.33l-.26.12-.87.09C84.46,61.06,84.86,60.84,84.67,60.53Z"/><path class="cls-7" d="M94.56,72.18c-.4-.67-.39-.92,0-1.19.18-.62.46-1.11.93-.53a1.64,1.64,0,0,0,.28.07l.33.7L96,72l-.78,0Z"/><path class="cls-7" d="M103.18,68.39c-.35-.71-.25-1,.25-1.34a3.31,3.31,0,0,0,.06-.48l1.2.69.29.9-.45.09A3.18,3.18,0,0,0,104,68C103.72,68.17,103.45,68.25,103.18,68.39Z"/><path class="cls-10" d="M104.69,67.26A3.2,3.2,0,0,1,105,67a4.3,4.3,0,0,1,.65.19,1.79,1.79,0,0,1,.56-.46l-.13-.43.67-.11.65-.11c.27-.34.79-.26,1.28-.87.2,0,.44-.06.67-.09l.32,0,.22.91.11.47c0,.2,0,.42,0,.61l-.31,0a4.4,4.4,0,0,0-.47-.1l-.83.3a5.06,5.06,0,0,0-.61.26l-1.17.19c-.54.28-.91,1-1.62.35Z"/><path class="cls-7" d="M104.77,66.45c.43-.06.84-.09,1.27-.11l.13.43a1.79,1.79,0,0,0-.56.46A4.3,4.3,0,0,0,105,67Z"/><path class="cls-10" d="M99.88,62.21c.23,0-.17-.54.59-.5.35.08.68.17,1,.23.18-.87,1.05-1.22,1.73-1.52.76.13,1.25-.83,1.87-.19l.6-.12.52-.89c-.1-.21-.37-.52-.18-.76.15,0,.29-.12.56.69.21.2.76.13,1-.62l.36-.05c.25-.2-.12-.61.1-.8l.62-.09c.65-.2,1.28-.35,1.94-.5.5-.33,1.16-.16,1.82-.48.23-.42,1,.12,1.06-.5.34-.07.67-.15,1-.19s.64.27.73-.35c.2-.1.4-.22.6-.3a4.6,4.6,0,0,1,.53.46l.35-.77a3.4,3.4,0,0,0,.49-.15l1,.51a4.68,4.68,0,0,1,.88-.13c.08.2.16.44.26.64v.45c.58.34.81.07.84-.22s-.08-.33-.13-.5V55l1.13.57c-.29.5-.54.28-.75.56.52.86,1.82.05,1.53,1.2-.33.14-.33.3-.73.59a6.21,6.21,0,0,1,.23.64c.27.19.55.34.81.54v.32a1.83,1.83,0,0,1-.58.24l-.56-.35-.94-.09-.22-.63c-.64.08-1.55.26-2.14-.28-.22,0-.46.08-.71.14-.28-.14-.56-.24-.84-.35-.17.39-.84-.14-.81.47l-1.07,0a4,4,0,0,1-.07.48H114l-.66-.47c-1,0-1.57.51-2.75,1.14-.95-.45-1.1.13-1.13.45l.06.29a7.41,7.41,0,0,1-.44.84c-.14-.44-.44-.66-.72-.53a3.88,3.88,0,0,1-.63-.08,3.36,3.36,0,0,1-.52.39c-.32,0-.66-.07-1-.14l-.72.63c-1.13-.39-1.5,1-2.3.29l-1.48.52a5.86,5.86,0,0,0-.67.32c-.16-.22-.32-.45-.5-.67C100.34,62.07,100.1,62.15,99.88,62.21Z"/><path class="cls-7" d="M102,57.32c.22-1.11.59-.61.89-.64-.06-.62.37-.5.93,0l.14,0c0,.14,0,.24-.06.34l-.59.28L103,57A9.08,9.08,0,0,1,102,57.32Z"/><path class="cls-7" d="M110,66.51l.85-.09a5.28,5.28,0,0,1,.75.38c-.15.18-.29.35-.44.5a4.57,4.57,0,0,1,0,.64,1.41,1.41,0,0,1,.18.27c-.13.5-.26.51-.76-.08l0-.13-.15-.63-.4-.25C110,66.93,110,66.71,110,66.51Z"/><path class="cls-7" d="M113.64,67.1a.51.51,0,0,0,.09-.13L115,66.9c.19.45.41.89.61,1.37-.45.5-.83.26-1.07.33-.1-.44-.42-.46-.69-.42Z"/><path class="cls-7" d="M114.85,66c.31-.23.45-.86,1-.61l.71.62-.25.61c.12.25.21.51.31.77-.09.87-.48.34-.57.31l-.15-1.09h-.82A4.82,4.82,0,0,1,114.85,66Z"/><path class="cls-7" d="M118.55,65.43c.31,0,.35-.91.78-.6l.65.69c-.56.39-.71.66-1,.55C119,65.78,118.72,65.7,118.55,65.43Z"/><path class="cls-7" d="M120.28,65.54c.14-.49.3-1.15.69-.84l.81.38-.29.62Z"/><path class="cls-7" d="M130.06,63.9a3.27,3.27,0,0,0,0,.35c-.59.72-.9.45-1.19.4,0-.38-.07-.76-.08-1.17A13,13,0,0,1,130.06,63.9Z"/><path class="cls-7" d="M130.73,64.49c.24.3.45.62.69.92a2.74,2.74,0,0,1,.36-.32c.47,0,.66-.4.93-.1a7.64,7.64,0,0,0,1.56.45c.24-.2.42.12.64.16l-.06.15c-.78-.09-1.07.72-1.5.38-.18.24-.48-.08-.82-.2l-.47.31c-.22-.21-.44-.07-.76,0l-.72.24a18.43,18.43,0,0,0,.07-2Z"/><path class="cls-10" d="M135.09,59.26c.18.42.38.77.56,1.14l-.27.74.38.19.49-.08c.33.34.27.46.15.76s-.2.74-.31,1.08c-.09.53-.19,1.06-.31,1.59-.2,0-.38.13-.6.19l-.24-1-.78-.23a4.18,4.18,0,0,0,.06-.51l.69-1a3.07,3.07,0,0,0,0-.53l.11-.3a5.65,5.65,0,0,0-.53-.76c.07-.36.15-.75.24-1.09C134.82,59.39,134.94,59.33,135.09,59.26Z"/><path class="cls-7" d="M135.65,60.4l.49-.07.11.92-.49.08-.38-.19Z"/><path class="cls-10" d="M42.72,115.59c.19-.21-.27-.52.73-.66A7.76,7.76,0,0,1,42.72,115.59Z"/><path class="cls-10" d="M43.83,114.24c.18-.39.33-.8.48-1.21l.49-.9c.65-.39,1.64-.86,1.72-1.74.29-.12.57,0,.87,0l.33-.55c-.1-.74.27-.59.94-.64,0-.14-.23-.44-.33-.65.09-.35.2-1.63,1.05-.88a6.8,6.8,0,0,0,.72-.32c.13-.17-.07-.44-.13-.66l1.67-2.32c-.13-.33.23-.55.34-.83l.79-.1.35-.53c-.29-.6.23-1,.87-1.6l.58-.84c.3-.21.57-.42.84-.65.42-.33-.09-1.07.59-1.15a7.68,7.68,0,0,0,.58-.54c.08-.14.2-.28.29-.41-.11-.83.57-.94,1.09.11.31.09.56.23.68-.14a5.55,5.55,0,0,0,.58-.52l.44-.59c0-.49.47-.8,1.36-1.06L60.59,97A4.76,4.76,0,0,0,60,96.9l-.54.51c-.1.58-.55.9-.8,1.3,0,.51-.81-.11-.49.44.12.3-.2.46-.9.74l-.29.42-.87,1.26a9.77,9.77,0,0,1-.7.73c0,.35-.11.63-.86,1,0,.29.05.53.07.8-.26,0-.54.06-.8.12a6.15,6.15,0,0,0,0,.86c-.12.3-.4.56-.69.48-.48,0-.16.49-.28.73-.28.38-.58.73-.89,1.1-.66-.06-.84.51-1.67,1.23-.14.17.19.45-.56.69-.25,1.45-1.72,2.18-1.53,4.15l-.55,1.27-.56.42c-.21.25-.38.49-.58.71a4,4,0,0,1-1.65-.57Z"/><path class="cls-10" d="M55.82,109.81c0-1,.35-1.51,1-1.3C57.25,109.08,56.77,109.53,55.82,109.81Z"/><path class="cls-10" d="M64,99.74c0-.28.19-.47.8-.8C64.88,99.39,64.67,100,64,99.74Z"/><path class="cls-10" d="M61.55,91.36c.67.52.41.85-.18,1C60.51,92,61.5,91.69,61.55,91.36Z"/><path class="cls-10" d="M62.64,90.25c-.13-.41.37-.42.56-.68-.17-2.1,2.5-2.17,3.12-3.86.21-.28.4-.57.59-.87.47-.51,1.39-.63,1.55-1.86.32,0,1.22-.35.41-.68.22-.48.47-.94.71-1.42a3,3,0,0,0,.31-.07c.7.08,1-.38,1.27-1.26l.25-.66c.08,0,.18,0,.28-.1a6.15,6.15,0,0,0,.67-.42l.07-.08a6.72,6.72,0,0,0,.56-.73l.66.69a.3.3,0,0,0,.21,0l.43.45.9-.16a5.79,5.79,0,0,1-.07-.6,6.07,6.07,0,0,0,.45-.64l.1-.09.7.42c-.32.38-.64.77-1,1.12l-1,.48c.19.76-.72.65-1,1.12s-.38,1-.53,1.43c-1.38,0-1.42,1.53-2.56,1.89a3.32,3.32,0,0,0,.35,1c.07,0,.12,0,.19,0a.83.83,0,0,0,0,.18c-.07.12-.11.26-.17.38l-2.08.65-.59.63c-.24.49-.46,1-.66,1.43-.1.16.48.55-.46.78l-.19,0-.47-.4c-.28,0-.64.59-1.1.08-.31.46-.88.81-1,1.36-.41-.13-.38.68-.86.25l-.4.5c.34.41-.21.88-.5.42C62.46,90.85,62.41,90.71,62.64,90.25Z"/><path class="cls-10" d="M67.82,90l.64-.74.12.1A9.51,9.51,0,0,1,67.82,90Z"/><path class="cls-10" d="M71.36,90.4c.18-.11-.09-.45.27-.73a4.89,4.89,0,0,1,.6-.41c.18-.28.35-.56.55-.82L72.32,88l1.08-1,.49-.72.34-.34q.36.19.75.36c.18-.13.24-.32.4-.62l-.45-.43L74.73,84A3.17,3.17,0,0,0,75,83.5a2.49,2.49,0,0,0,.29-.07c.33.14.62.26.93.42.25-.21.19-.56.49-.72.22,0,.46,0,.67,0l.49.83-.26.27.68,1.52-.09.09-.57.57c-.29.23-.58.43-.88.63l-1,.83c-.69-.07-.09.66-.44.9l-1.34.52-.09.09a8.24,8.24,0,0,1-.24.92l-.71.34c.09.34-.3.45-.55.6Z"/><path class="cls-10" d="M74.82,81.43c.32-.33.66-.61,1-.93l.73-.66.42.45-.71.66c-.37.29-.74.52-1.09.83Z"/><path class="cls-10" d="M82.3,80.4l1.45-1.21c.3.3.82.08,1,.52l.11.12c0,1-1.07.39-1.34,1.13l-.85.11Z"/><path class="cls-10" d="M96,72l.15-.72c.32,0,.65.1,1,.12a.58.58,0,0,0,.18.11c0,.79-.7.65-1.14.78l-.37.79c-.35,0-.73.07-1.11.08-.22-.33-.34-.77-.09-.93Z"/><path class="cls-10" d="M99.76,65.78a7.43,7.43,0,0,0,1-.1l.22.58-1,.28Z"/><path class="cls-10" d="M101.29,69.71a1.4,1.4,0,0,1,1.45-.9l.44-.42c.27-.14.54-.22.81-.35a3.18,3.18,0,0,1,.54.21l.2.59a.58.58,0,0,0-.15.19,11.79,11.79,0,0,0-1.67.24C102.36,69.79,101.89,70.28,101.29,69.71Z"/><path class="cls-11" d="M121.13,55.52a4.48,4.48,0,0,1,.62-.11c.23,0,.51-.52.71.1.35-.12.47.32.72.39.34-.15.68-.3,1-.48a4.54,4.54,0,0,0,.3.67c.21-.08.42-.12.63-.18a7.57,7.57,0,0,0,.76-.18,7.92,7.92,0,0,0,.8.33c.49-.09,1.23-.37,1.54.35l.39-.19.17-.93a1.84,1.84,0,0,1,.4-.06,7.81,7.81,0,0,1,.75.53,2.23,2.23,0,0,1,.5,0c.48.2.92.41,1.36.62l.24-.43c.35.09.73.13,1.08.19l.25-.86.24.09c.27-.07.2-.65.82-.2a11.38,11.38,0,0,0,1.12.27l.14-.09a1.22,1.22,0,0,1,.08.17l.9.11v.67l-.48.63-.23-.1a4,4,0,0,1-.32.52c-.1.59-.22,1.14-.35,1.72a1.37,1.37,0,0,1-.2.22c-.15.07-.27.13-.41.18s-.1-.15-.17-.25l-.25-1.79a2.15,2.15,0,0,1-.51,0l-.12-.36h-.76l-1.17-.22c-.32.16-.64.33-1,.48.21.38.39.78.57,1.19-.22.06-.41.5-.65.25-.56-1.13-1.22,0-2-.43l-.8-.21c-.28.28-.51-.18-.8-.2-.62.7-1.53-.05-2.16.64-.43,0-.84.09-1.28.12a5.48,5.48,0,0,1-.48.39c-.11-.05-.23-.14-.32-.18l-.58.2c-.26-.2-.54-.35-.81-.54a6.21,6.21,0,0,0-.23-.64c.4-.29.4-.45.73-.59.29-1.15-1-.34-1.53-1.2C120.59,55.8,120.84,56,121.13,55.52Z"/><path class="cls-10" d="M121.75,55.41c.23,0,.51-.52.71.1C122.26,54.89,122,55.38,121.75,55.41Z"/><path class="cls-10" d="M123.4,64.88c.09-.8.19-1.63.33-2.46.42.27.72-.21,1.14,0a6.11,6.11,0,0,0,.79-.44c.45,0,.7-.47.9-.42a4.79,4.79,0,0,1,.69.49,6.92,6.92,0,0,1-.77,1.08,1.54,1.54,0,0,1,.07.35c-.34.45-.64.9-1,1.35h-.49c0-.8-.7-.57-1-.48l-.54.69C123.52,65,123.46,65,123.4,64.88Z"/><path class="cls-10" d="M124.21,55.42l.76-.34s.11-.07.14-.13c.13-.24.23-.48.34-.73l.78-.14.23.05.86.29c.33.06.63.16,1,.24.42-.13.3-1.2.9-.71l.59.29.48.12.18.39.61-.45a9.66,9.66,0,0,1,.91.46c.41,0,.78,0,1.18,0l.25.45-.25.86c-.35-.06-.73-.1-1.08-.19l-.24.43c-.44-.21-.88-.42-1.36-.62a2.23,2.23,0,0,0-.5,0,7.81,7.81,0,0,0-.75-.53,1.84,1.84,0,0,0-.4.06l-.17.93-.39.19c-.31-.72-1.05-.44-1.54-.35a7.92,7.92,0,0,1-.8-.33,7.57,7.57,0,0,1-.76.18c-.21.06-.42.1-.63.18A4.54,4.54,0,0,1,124.21,55.42Z"/><path class="cls-10" d="M127.21,64.59l.2.07,1,.33c-.35.63-.63.7-1,.47-.4.16-.78.26-.94-.25C126.7,65,127,64.83,127.21,64.59Z"/><path class="cls-10" d="M127.81,61.91c.4-.59.83-.16,1.2-.12l.71-.3-.15.77-.72.42L127.68,62C127.73,62,127.78,62,127.81,61.91Z"/><path class="cls-10" d="M131.33,63.73l.51.37c0,.34,0,.65-.06,1a2.74,2.74,0,0,0-.36.32c-.24-.3-.45-.62-.69-.92C131,64.14,131.05,63.65,131.33,63.73Z"/><path class="cls-7" d="M109.46,55c-.2-.86.36-.48.39-.81.59-.06,1.29-.12,2-.2s1.36-.12,1.9-.23a18.61,18.61,0,0,1,2.07-.21c0-.39.36-.23.34-.62.9,0,1.74,0,2.53,0a5.08,5.08,0,0,0,2.29-.3,15.8,15.8,0,0,0,4.07-.4c.63.87,1.51-.58,1.91.49.49-1.06,1.66,1,1.71-.88a12.48,12.48,0,0,0,3.37-.37c0-.68.53.07.76-.27.47.09.84-.38,1.46-.17.88-.22,1.55.4,2.56.49.17-.71.87-.43,1.09-.9,1,.07.36.76.84,1.23a4,4,0,0,0,.69.13,1.6,1.6,0,0,1-.44.66c0,.41,0,.84,0,1.24.2.14-.11.52-.19.78-.62-.26-1.28-.49-1.95-.73,0-.39-.13-.59,0-.83-.57-.2-.85.09-1.42.08-1.28-.7-2.15.19-3.43-.4,0,1-.76.24-1.1.64-1.14-.68-2.18,0-3.25-.05-.36.25-1-.23-1.44.35-.38-.17-.91-.47-1.29.08-.81.12-1.95,0-2.94,0-.29-.11-.58-.17-.86-.25s-.61-.34-.78.26l-1-.07c-.21-.15-.62-.34-.74.23-.53,0-1,.11-1.54.13-.22-.16-.43-.17-.88.31a4,4,0,0,0-.5.15c-.65-.23-1.3-.38-2-.59-.13.27-.59.06-.71.67l-.51,0c-.23-.13-.65-.26-.74.34l-.23,0Z"/><path class="cls-10" d="M133.62,55.34c.27-.07.2-.65.82-.2C133.82,54.69,133.89,55.27,133.62,55.34Z"/><path class="cls-10" d="M136.66,54.55l.12.06c0,.35-.05.65-.1,1l-.9-.11-.22-.08.14-.09C136.05,55,136.33,54.8,136.66,54.55Z"/><path class="cls-10" d="M136.67,56.27l.18.95-.66-.32Z"/><path class="cls-12" d="M126.48,63.16a6.92,6.92,0,0,0,.77-1.08,2.18,2.18,0,0,1,.43,0c0-.05.1-.07.13-.12a5.15,5.15,0,0,1,.46.47c.2.09.56,0,.58.3l-.14.77c-.21,0-.53-.26-.61,0-.31.22-.68-.08-1.06.19l-.49-.11A1.54,1.54,0,0,0,126.48,63.16Z"/><path class="cls-12" d="M131.7,56.8l1.17.22h.76l.12.36a2.15,2.15,0,0,0,.51,0l.25,1.79-1-.44c-.4.26-.78-.49-1,.12l-1.2-.4c-.18-.41-.36-.81-.57-1.19C131.06,57.13,131.38,57,131.7,56.8Z"/><path class="cls-11" d="M128.85,62.68l.72-.42.15-.77.51.18,1,0,.1,0a7.74,7.74,0,0,1,.57.69c.15-.23.27-.44.4-.67a4.1,4.1,0,0,0,0-.48,8.14,8.14,0,0,1,.87,0l-.17.59L132.67,63a3.59,3.59,0,0,1,0,.47c.61.25,1.15.46,1.52.2l.78.23.24,1-.27.73c-.22,0-.4-.36-.64-.16a7.64,7.64,0,0,1-1.56-.45c-.27-.3-.46.14-.93.1,0-.34.05-.65.06-1l-.51-.37c-.28-.08-.37.41-.6.76l-.08,0-.56-.22a3.27,3.27,0,0,1,0-.35,13,13,0,0,0-1.24-.42l-.11,0Z"/><path class="cls-12" d="M131.29,61.75c.28.07.4-.42,1-.46a4.1,4.1,0,0,1,0,.48c-.13.23-.25.44-.4.67A7.74,7.74,0,0,0,131.29,61.75Z"/><path class="cls-12" d="M133,61.91l.17-.59a4.55,4.55,0,0,1,.55-.26l.38.83c.31-.08.47-.28.78-.3a3.07,3.07,0,0,1,0,.53l-.69,1a4.18,4.18,0,0,1-.06.51c-.37.26-.91,0-1.52-.2a3.59,3.59,0,0,0,0-.47Z"/><path class="cls-11" d="M73.89,86.34l-.49.72Z"/><path class="cls-11" d="M74.93,85.31l.45.43c-.16.3-.22.49-.4.62q-.39-.17-.75-.36Z"/><path class="cls-11" d="M99.63,62.28l.25-.07c.22-.06.46-.14.69-.19.18.22.34.45.5.67-.37.18-.72.4-1.08.6l-.56-.14Z"/><path class="cls-11" d="M109.5,60.16c0-.32.18-.9,1.13-.45,1.18-.63,1.7-1.09,2.75-1.14L114,59c-.11.06-.2.42-.29.62L111,60.3a.87.87,0,0,0-.14-.12c-.42,0-.85.18-1.28.27Z"/><path class="cls-11" d="M114.34,58.55l1.07,0c0-.61.64-.08.81-.47.28.11.56.21.84.35-.51.21-.47,1-1.59.77a.83.83,0,0,1-.58.14l-.62-.28A4,4,0,0,0,114.34,58.55Z"/><path class="cls-11" d="M119.28,55.83a7,7,0,0,0,.72-.27c0,.17.1.34.13.5s-.26.56-.84.22Z"/><path class="cls-11" d="M133.7,61.06l.74-.53a5.65,5.65,0,0,1,.53.76l-.11.3c-.31,0-.47.22-.78.3Z"/><path class="cls-7" d="M79.7,72.61c.08,0,.18,0,.29-.06C79.88,72.59,79.78,72.58,79.7,72.61Z"/><path class="cls-7" d="M98.32,66a1.67,1.67,0,0,0-.23-.23A1.67,1.67,0,0,1,98.32,66Z"/><path class="cls-7" d="M104,56.6c0-.79.61-.55.7-.9,0-.19.63-.52.7.16.21-.19.37-.35.55-.54s.64,0,.75-.27c-.09-.28.33-.15.48-.23.14.57.65.1,1,.35.09.31-.42.51-.52.69-.32.18-.61.38-.92.59a.81.81,0,0,0-.1.18l-1.17-.45Z"/><path class="cls-10" d="M74.84,83.38a5.23,5.23,0,0,0-1-.5c-.09.09-.18.18-.77.3L72.84,83a7.22,7.22,0,0,1,.4-.84L74.29,82Z"/><path class="cls-10" d="M75,83.5l-.12-.12Z"/><path class="cls-10" d="M135.09,59.26a1.37,1.37,0,0,0,.2-.22A1.37,1.37,0,0,1,135.09,59.26Z"/><path class="cls-11" d="M120.28,65.54l1.21.16c-.12.56-.28.61-.49.55C120.66,66.49,120.49,65.64,120.28,65.54Z"/><path class="cls-7" d="M108.17,55.17c.34-.72.87-.51,1.29-.16-.09.14-.14.66-.57.51A5.94,5.94,0,0,0,108.17,55.17Z"/></g></g></g></g></g></g></svg>