<?xml version="1.0" standalone="no"?>
<!DOCTYPE svg PUBLIC "-//W3C//DTD SVG 1.1//EN"
"http://www.w3.org/Graphics/SVG/1.1/DTD/svg11.dtd">

<svg width="426" height="397" view_box="0 0 426 397"
xmlns="http://www.w3.org/2000/svg"
xmlns:link="http://www.w3.org/1999/xlink">\n\n<desc>Généré par Mocodo 2.3.7 le Thu, 27 Feb 2020 08:23:48</desc>

<rect id="frame" x="0" y="0" width="426" height="397" fill="#ffffff" stroke="none" stroke-width="0"/>

<!-- Association CREATES -->
<line x1="268" y1="329" x2="268" y2="186" stroke="#878787" stroke-width="2"/>
<text x="273.0" y="262" fill="#b2182b" font-family="Verdana" font-size="12">1,1</text>
<line x1="133" y1="186" x2="268" y2="186" stroke="#878787" stroke-width="2"/>
<text x="173" y="203.0" fill="#b2182b" font-family="Verdana" font-size="12">0,N</text>
<g id="association-CREATES">
	<path d="M 290 161 a 14 14 90 0 1 14 14 V 186 h -72 V 175 a 14 14 90 0 1 14 -14" fill="#bababa" stroke="#bababa" stroke-width="0"/>
	<path d="M 304 186.0 v 11 a 14 14 90 0 1 -14 14 H 246 a 14 14 90 0 1 -14 -14 V 186.0 H 72" fill="#e0e0e0" stroke="#e0e0e0" stroke-width="0"/>
	<rect x="232" y="161" width="72" height="50" fill="none" rx="14" stroke="#878787" stroke-width="2"/>
	<line x1="232" y1="186" x2="304" y2="186" stroke="#878787" stroke-width="1"/>
	<text x="239" y="178.7" fill="#000000" font-family="Verdana" font-size="12">CREATES</text>
</g>

<!-- Association HAS -->
<line x1="268" y1="329" x2="380" y2="329" stroke="#878787" stroke-width="2"/>
<text x="333" y="346.0" fill="#b2182b" font-family="Verdana" font-size="12">1,N</text>
<line x1="380" y1="186" x2="380" y2="329" stroke="#878787" stroke-width="2"/>
<text x="385.0" y="245" fill="#b2182b" font-family="Verdana" font-size="12">0,N</text>
<g id="association-HAS">
	<path d="M 386 304 a 14 14 90 0 1 14 14 V 329 h -40 V 318 a 14 14 90 0 1 14 -14" fill="#bababa" stroke="#bababa" stroke-width="0"/>
	<path d="M 400 329.0 v 11 a 14 14 90 0 1 -14 14 H 374 a 14 14 90 0 1 -14 -14 V 329.0 H 40" fill="#e0e0e0" stroke="#e0e0e0" stroke-width="0"/>
	<rect x="360" y="304" width="40" height="50" fill="none" rx="14" stroke="#878787" stroke-width="2"/>
	<line x1="360" y1="329" x2="400" y2="329" stroke="#878787" stroke-width="1"/>
	<text x="367" y="321.7" fill="#000000" font-family="Verdana" font-size="12">HAS</text>
</g>

<!-- Association GETS -->
<line x1="133" y1="186" x2="33" y2="186" stroke="#878787" stroke-width="2"/>
<text x="72" y="203.0" fill="#b2182b" font-family="Verdana" font-size="12">1,1</text>
<line x1="33" y1="329" x2="33" y2="186" stroke="#878787" stroke-width="2"/>
<text x="38.0" y="296" fill="#b2182b" font-family="Verdana" font-size="12">0,N</text>
<g id="association-GETS">
	<path d="M 43 161 a 14 14 90 0 1 14 14 V 186 h -48 V 175 a 14 14 90 0 1 14 -14" fill="#bababa" stroke="#bababa" stroke-width="0"/>
	<path d="M 57 186.0 v 11 a 14 14 90 0 1 -14 14 H 23 a 14 14 90 0 1 -14 -14 V 186.0 H 48" fill="#e0e0e0" stroke="#e0e0e0" stroke-width="0"/>
	<rect x="9" y="161" width="48" height="50" fill="none" rx="14" stroke="#878787" stroke-width="2"/>
	<line x1="9" y1="186" x2="57" y2="186" stroke="#878787" stroke-width="1"/>
	<text x="16" y="178.7" fill="#000000" font-family="Verdana" font-size="12">GETS</text>
</g>

<!-- Association POSSESSES -->
<line x1="133" y1="186" x2="133" y2="43" stroke="#878787" stroke-width="2"/>
<text x="138.0" y="85" fill="#b2182b" font-family="Verdana" font-size="12">1,1</text>
<line x1="33" y1="43" x2="133" y2="43" stroke="#878787" stroke-width="2"/>
<text x="62" y="60.0" fill="#b2182b" font-family="Verdana" font-size="12">0,N</text>
<g id="association-POSSESSES">
	<path d="M 163 18 a 14 14 90 0 1 14 14 V 43 h -88 V 32 a 14 14 90 0 1 14 -14" fill="#bababa" stroke="#bababa" stroke-width="0"/>
	<path d="M 177 43.0 v 11 a 14 14 90 0 1 -14 14 H 103 a 14 14 90 0 1 -14 -14 V 43.0 H 88" fill="#e0e0e0" stroke="#e0e0e0" stroke-width="0"/>
	<rect x="89" y="18" width="88" height="50" fill="none" rx="14" stroke="#878787" stroke-width="2"/>
	<line x1="89" y1="43" x2="177" y2="43" stroke="#878787" stroke-width="1"/>
	<text x="96" y="35.7" fill="#000000" font-family="Verdana" font-size="12">POSSESSES</text>
</g>

<!-- Association COMMENTS -->
<line x1="133" y1="186" x2="133" y2="329" stroke="#878787" stroke-width="2"/>
<text x="138.0" y="296" fill="#b2182b" font-family="Verdana" font-size="12">0,N</text>
<line x1="268" y1="329" x2="133" y2="329" stroke="#878787" stroke-width="2"/>
<text x="181" y="346.0" fill="#b2182b" font-family="Verdana" font-size="12">0,N</text>
<g id="association-COMMENTS">
	<path d="M 162 304 a 14 14 90 0 1 14 14 V 329 h -86 V 318 a 14 14 90 0 1 14 -14" fill="#bababa" stroke="#bababa" stroke-width="0"/>
	<path d="M 176 329.0 v 11 a 14 14 90 0 1 -14 14 H 104 a 14 14 90 0 1 -14 -14 V 329.0 H 86" fill="#e0e0e0" stroke="#e0e0e0" stroke-width="0"/>
	<rect x="90" y="304" width="86" height="50" fill="none" rx="14" stroke="#878787" stroke-width="2"/>
	<line x1="90" y1="329" x2="176" y2="329" stroke="#878787" stroke-width="1"/>
	<text x="97" y="321.7" fill="#000000" font-family="Verdana" font-size="12">COMMENTS</text>
	<text x="97" y="346.8" fill="#000000" font-family="Verdana" font-size="12">body</text>
</g>

<!-- Entity PROPERTY -->
<g id="entity-PROPERTY">
	<g id="frame-PROPERTY">
		<rect x="343" y="144" width="74" height="25" fill="#f4a582" stroke="#f4a582" stroke-width="0"/>
		<rect x="343" y="169.0" width="74" height="59" fill="#fddbc7" stroke="#fddbc7" stroke-width="0"/>
		<rect x="343" y="144" width="74" height="84" fill="none" stroke="#d6604d" stroke-width="2"/>
		<line x1="343" y1="169" x2="417" y2="169" stroke="#d6604d" stroke-width="1"/>
	</g>
	<text x="348" y="161.7" fill="#000000" font-family="Verdana" font-size="12">PROPERTY</text>
	<text x="348" y="186.8" fill="#000000" font-family="Verdana" font-size="12">name</text>
	<line x1="348" y1="189" x2="383" y2="189" stroke="#000000" stroke-width="1"/>
	<text x="348" y="203.8" fill="#000000" font-family="Verdana" font-size="12">unit</text>
	<text x="348" y="220.8" fill="#000000" font-family="Verdana" font-size="12">value</text>
</g>

<!-- Entity ROLE -->
<g id="entity-ROLE">
	<g id="frame-ROLE">
		<rect x="10" y="304" width="46" height="25" fill="#f4a582" stroke="#f4a582" stroke-width="0"/>
		<rect x="10" y="329.0" width="46" height="25" fill="#fddbc7" stroke="#fddbc7" stroke-width="0"/>
		<rect x="10" y="304" width="46" height="50" fill="none" stroke="#d6604d" stroke-width="2"/>
		<line x1="10" y1="329" x2="56" y2="329" stroke="#d6604d" stroke-width="1"/>
	</g>
	<text x="16" y="321.7" fill="#000000" font-family="Verdana" font-size="12">ROLE</text>
	<text x="15" y="346.8" fill="#000000" font-family="Verdana" font-size="12">name</text>
	<line x1="15" y1="349" x2="50" y2="349" stroke="#000000" stroke-width="1"/>
</g>

<!-- Entity USER -->
<g id="entity-USER">
	<g id="frame-USER">
		<rect x="98" y="93" width="70" height="25" fill="#f4a582" stroke="#f4a582" stroke-width="0"/>
		<rect x="98" y="118.0" width="70" height="161" fill="#fddbc7" stroke="#fddbc7" stroke-width="0"/>
		<rect x="98" y="93" width="70" height="186" fill="none" stroke="#d6604d" stroke-width="2"/>
		<line x1="98" y1="118" x2="168" y2="118" stroke="#d6604d" stroke-width="1"/>
	</g>
	<text x="116" y="110.7" fill="#000000" font-family="Verdana" font-size="12">USER</text>
	<text x="103" y="135.7" fill="#000000" font-family="Verdana" font-size="12">nickname</text>
	<line x1="103" y1="138" x2="162" y2="138" stroke="#000000" stroke-width="1"/>
	<text x="103" y="152.7" fill="#000000" font-family="Verdana" font-size="12">slug</text>
	<text x="103" y="169.7" fill="#000000" font-family="Verdana" font-size="12">email</text>
	<text x="103" y="186.8" fill="#000000" font-family="Verdana" font-size="12">password</text>
	<text x="103" y="203.8" fill="#000000" font-family="Verdana" font-size="12">avatar</text>
	<text x="103" y="220.8" fill="#000000" font-family="Verdana" font-size="12">firstname</text>
	<text x="103" y="237.8" fill="#000000" font-family="Verdana" font-size="12">birthday</text>
	<text x="103" y="254.8" fill="#000000" font-family="Verdana" font-size="12">bio</text>
	<text x="103" y="271.8" fill="#000000" font-family="Verdana" font-size="12">status</text>
</g>

<!-- Entity RANK -->
<g id="entity-RANK">
	<g id="frame-RANK">
		<rect x="9" y="9" width="48" height="25" fill="#f4a582" stroke="#f4a582" stroke-width="0"/>
		<rect x="9" y="34.0" width="48" height="43" fill="#fddbc7" stroke="#fddbc7" stroke-width="0"/>
		<rect x="9" y="9" width="48" height="68" fill="none" stroke="#d6604d" stroke-width="2"/>
		<line x1="9" y1="34" x2="57" y2="34" stroke="#d6604d" stroke-width="1"/>
	</g>
	<text x="15" y="26.7" fill="#000000" font-family="Verdana" font-size="12">RANK</text>
	<text x="14" y="51.8" fill="#000000" font-family="Verdana" font-size="12">name</text>
	<line x1="14" y1="54" x2="49" y2="54" stroke="#000000" stroke-width="1"/>
	<text x="14" y="68.8" fill="#000000" font-family="Verdana" font-size="12">badge</text>
</g>

<!-- Entity CELESTIAL_BODY -->
<g id="entity-CELESTIAL_BODY">
	<g id="frame-CELESTIAL_BODY">
		<rect x="208" y="270" width="120" height="25" fill="#f4a582" stroke="#f4a582" stroke-width="0"/>
		<rect x="208" y="295.0" width="120" height="93" fill="#fddbc7" stroke="#fddbc7" stroke-width="0"/>
		<rect x="208" y="270" width="120" height="118" fill="none" stroke="#d6604d" stroke-width="2"/>
		<line x1="208" y1="295" x2="328" y2="295" stroke="#d6604d" stroke-width="1"/>
	</g>
	<text x="213" y="287.7" fill="#000000" font-family="Verdana" font-size="12">CELESTIAL_BODY</text>
	<text x="213" y="312.7" fill="#000000" font-family="Verdana" font-size="12">name</text>
	<line x1="213" y1="315" x2="248" y2="315" stroke="#000000" stroke-width="1"/>
	<text x="213" y="329.8" fill="#000000" font-family="Verdana" font-size="12">slug</text>
	<text x="213" y="346.8" fill="#000000" font-family="Verdana" font-size="12">picture</text>
	<text x="213" y="363.8" fill="#000000" font-family="Verdana" font-size="12">nb_stars</text>
	<text x="213" y="380.8" fill="#000000" font-family="Verdana" font-size="12">description</text>
</g>
</svg>