<?xml version="1.0" standalone="no"?>
<!DOCTYPE svg PUBLIC "-//W3C//DTD SVG 1.1//EN"
"http://www.w3.org/Graphics/SVG/1.1/DTD/svg11.dtd">

<svg width="614" height="517" view_box="0 0 614 517"
xmlns="http://www.w3.org/2000/svg"
xmlns:link="http://www.w3.org/1999/xlink">\n\n<desc>Généré par Mocodo 2.3.7 le Thu, 27 Feb 2020 02:03:11</desc>

<rect id="frame" x="0" y="0" width="614" height="517" fill="#ffffff" stroke="none" stroke-width="0"/>

<!-- Association GETS -->
<line x1="53" y1="263" x2="53" y2="77" stroke="#878787" stroke-width="2"/>
<text x="58.0" y="119" fill="#b2182b" font-family="Verdana" font-size="12">1,1</text>
<path d="M 53.0 102.0 L 59.0 114.0 L 53.0 110.0 L 47.0 114.0 Z" fill="#878787" stroke-width="0"/>
<line x1="171" y1="77" x2="53" y2="77" stroke="#878787" stroke-width="2"/>
<text x="104" y="94.0" fill="#b2182b" font-family="Verdana" font-size="12">0,N</text>
<path d="M 131.0 77.0 L 119.0 83.0 L 123.0 77.0 L 119.0 71.0 Z" fill="#878787" stroke-width="0"/>
<g id="association-GETS">
	<path d="M 63 52 a 14 14 90 0 1 14 14 V 77 h -48 V 66 a 14 14 90 0 1 14 -14" fill="#bababa" stroke="#bababa" stroke-width="0"/>
	<path d="M 77 77.0 v 11 a 14 14 90 0 1 -14 14 H 43 a 14 14 90 0 1 -14 -14 V 77.0 H 48" fill="#e0e0e0" stroke="#e0e0e0" stroke-width="0"/>
	<rect x="29" y="52" width="48" height="50" fill="none" rx="14" stroke="#878787" stroke-width="2"/>
	<line x1="29" y1="77" x2="77" y2="77" stroke="#878787" stroke-width="1"/>
	<text x="36" y="69.7" fill="#000000" font-family="Verdana" font-size="12">GETS</text>
</g>

<!-- Association BELONGS TO -->
<line x1="291" y1="263" x2="291" y2="449" stroke="#878787" stroke-width="2"/>
<text x="296.0" y="390" fill="#b2182b" font-family="Verdana" font-size="12">1,1</text>
<path d="M 291.0 424.0 L 285.0 412.0 L 291.0 416.0 L 297.0 412.0 Z" fill="#878787" stroke-width="0"/>
<line x1="428" y1="449" x2="291" y2="449" stroke="#878787" stroke-width="2"/>
<text x="361" y="466.0" fill="#b2182b" font-family="Verdana" font-size="12">0,N</text>
<path d="M 388.0 449.0 L 376.0 455.0 L 380.0 449.0 L 376.0 443.0 Z" fill="#878787" stroke-width="0"/>
<g id="association-BELONGS TO">
	<path d="M 325 424 a 14 14 90 0 1 14 14 V 449 h -96 V 438 a 14 14 90 0 1 14 -14" fill="#bababa" stroke="#bababa" stroke-width="0"/>
	<path d="M 339 449.0 v 11 a 14 14 90 0 1 -14 14 H 257 a 14 14 90 0 1 -14 -14 V 449.0 H 96" fill="#e0e0e0" stroke="#e0e0e0" stroke-width="0"/>
	<rect x="243" y="424" width="96" height="50" fill="none" rx="14" stroke="#878787" stroke-width="2"/>
	<line x1="243" y1="449" x2="339" y2="449" stroke="#878787" stroke-width="1"/>
	<text x="250" y="441.7" fill="#000000" font-family="Verdana" font-size="12">BELONGS TO</text>
</g>

<!-- Association CORRESPONDS TO -->
<line x1="291" y1="263" x2="428" y2="263" stroke="#878787" stroke-width="2"/>
<text x="336" y="280.0" fill="#b2182b" font-family="Verdana" font-size="12">1,1</text>
<path d="M 363.0 263.0 L 351.0 269.0 L 355.0 263.0 L 351.0 257.0 Z" fill="#878787" stroke-width="0"/>
<line x1="565" y1="263" x2="428" y2="263" stroke="#878787" stroke-width="2"/>
<text x="498" y="280.0" fill="#b2182b" font-family="Verdana" font-size="12">0,N</text>
<path d="M 525.0 263.0 L 513.0 269.0 L 517.0 263.0 L 513.0 257.0 Z" fill="#878787" stroke-width="0"/>
<g id="association-CORRESPONDS TO">
	<path d="M 479 238 a 14 14 90 0 1 14 14 V 263 h -130 V 252 a 14 14 90 0 1 14 -14" fill="#bababa" stroke="#bababa" stroke-width="0"/>
	<path d="M 493 263.0 v 11 a 14 14 90 0 1 -14 14 H 377 a 14 14 90 0 1 -14 -14 V 263.0 H 130" fill="#e0e0e0" stroke="#e0e0e0" stroke-width="0"/>
	<rect x="363" y="238" width="130" height="50" fill="none" rx="14" stroke="#878787" stroke-width="2"/>
	<line x1="363" y1="263" x2="493" y2="263" stroke="#878787" stroke-width="1"/>
	<text x="370" y="255.7" fill="#000000" font-family="Verdana" font-size="12">CORRESPONDS TO</text>
</g>

<!-- Association CONTAINS -->
<line x1="428" y1="449" x2="565" y2="449" stroke="#878787" stroke-width="2"/>
<text x="473" y="466.0" fill="#b2182b" font-family="Verdana" font-size="12">1,N</text>
<path d="M 525.0 449.0 L 513.0 455.0 L 517.0 449.0 L 513.0 443.0 Z" fill="#878787" stroke-width="0"/>
<line x1="565" y1="263" x2="565" y2="449" stroke="#878787" stroke-width="2"/>
<text x="570.0" y="339" fill="#b2182b" font-family="Verdana" font-size="12">1,1</text>
<path d="M 565.0 322.0 L 571.0 334.0 L 565.0 330.0 L 559.0 334.0 Z" fill="#878787" stroke-width="0"/>
<g id="association-CONTAINS">
	<path d="M 591 424 a 14 14 90 0 1 14 14 V 449 h -80 V 438 a 14 14 90 0 1 14 -14" fill="#bababa" stroke="#bababa" stroke-width="0"/>
	<path d="M 605 449.0 v 11 a 14 14 90 0 1 -14 14 H 539 a 14 14 90 0 1 -14 -14 V 449.0 H 80" fill="#e0e0e0" stroke="#e0e0e0" stroke-width="0"/>
	<rect x="525" y="424" width="80" height="50" fill="none" rx="14" stroke="#878787" stroke-width="2"/>
	<line x1="525" y1="449" x2="605" y2="449" stroke="#878787" stroke-width="1"/>
	<text x="532" y="441.7" fill="#000000" font-family="Verdana" font-size="12">CONTAINS</text>
</g>

<!-- Association CREATED BY -->
<line x1="291" y1="263" x2="171" y2="263" stroke="#878787" stroke-width="2"/>
<text x="225" y="280.0" fill="#b2182b" font-family="Verdana" font-size="12">1,1</text>
<path d="M 217.0 263.0 L 229.0 257.0 L 225.0 263.0 L 229.0 269.0 Z" fill="#878787" stroke-width="0"/>
<line x1="53" y1="263" x2="171" y2="263" stroke="#878787" stroke-width="2"/>
<text x="98" y="280.0" fill="#b2182b" font-family="Verdana" font-size="12">0,N</text>
<path d="M 93.0 263.0 L 105.0 257.0 L 101.0 263.0 L 105.0 269.0 Z" fill="#878787" stroke-width="0"/>
<g id="association-CREATED BY">
	<path d="M 203 238 a 14 14 90 0 1 14 14 V 263 h -92 V 252 a 14 14 90 0 1 14 -14" fill="#bababa" stroke="#bababa" stroke-width="0"/>
	<path d="M 217 263.0 v 11 a 14 14 90 0 1 -14 14 H 139 a 14 14 90 0 1 -14 -14 V 263.0 H 92" fill="#e0e0e0" stroke="#e0e0e0" stroke-width="0"/>
	<rect x="125" y="238" width="92" height="50" fill="none" rx="14" stroke="#878787" stroke-width="2"/>
	<line x1="125" y1="263" x2="217" y2="263" stroke="#878787" stroke-width="1"/>
	<text x="132" y="255.7" fill="#000000" font-family="Verdana" font-size="12">CREATED BY</text>
</g>

<!-- Association HAS -->
<line x1="291" y1="263" x2="291" y2="77" stroke="#878787" stroke-width="2"/>
<text x="296.0" y="145" fill="#b2182b" font-family="Verdana" font-size="12">0,N</text>
<path d="M 291.0 102.0 L 297.0 114.0 L 291.0 110.0 L 285.0 114.0 Z" fill="#878787" stroke-width="0"/>
<line x1="428" y1="77" x2="291" y2="77" stroke="#878787" stroke-width="2"/>
<text x="362" y="94.0" fill="#b2182b" font-family="Verdana" font-size="12">1,1</text>
<path d="M 388.0 77.0 L 376.0 83.0 L 380.0 77.0 L 376.0 71.0 Z" fill="#878787" stroke-width="0"/>
<g id="association-HAS">
	<path d="M 297 52 a 14 14 90 0 1 14 14 V 77 h -40 V 66 a 14 14 90 0 1 14 -14" fill="#bababa" stroke="#bababa" stroke-width="0"/>
	<path d="M 311 77.0 v 11 a 14 14 90 0 1 -14 14 H 285 a 14 14 90 0 1 -14 -14 V 77.0 H 40" fill="#e0e0e0" stroke="#e0e0e0" stroke-width="0"/>
	<rect x="271" y="52" width="40" height="50" fill="none" rx="14" stroke="#878787" stroke-width="2"/>
	<line x1="271" y1="77" x2="311" y2="77" stroke="#878787" stroke-width="1"/>
	<text x="278" y="69.7" fill="#000000" font-family="Verdana" font-size="12">HAS</text>
</g>

<!-- Association POSSESSES -->
<line x1="53" y1="263" x2="53" y2="449" stroke="#878787" stroke-width="2"/>
<text x="58.0" y="416" fill="#b2182b" font-family="Verdana" font-size="12">1,1</text>
<path d="M 53.0 424.0 L 47.0 412.0 L 53.0 416.0 L 59.0 412.0 Z" fill="#878787" stroke-width="0"/>
<line x1="171" y1="449" x2="53" y2="449" stroke="#878787" stroke-width="2"/>
<text x="104" y="466.0" fill="#b2182b" font-family="Verdana" font-size="12">0,N</text>
<path d="M 131.0 449.0 L 119.0 455.0 L 123.0 449.0 L 119.0 443.0 Z" fill="#878787" stroke-width="0"/>
<g id="association-POSSESSES">
	<path d="M 83 424 a 14 14 90 0 1 14 14 V 449 h -88 V 438 a 14 14 90 0 1 14 -14" fill="#bababa" stroke="#bababa" stroke-width="0"/>
	<path d="M 97 449.0 v 11 a 14 14 90 0 1 -14 14 H 23 a 14 14 90 0 1 -14 -14 V 449.0 H 88" fill="#e0e0e0" stroke="#e0e0e0" stroke-width="0"/>
	<rect x="9" y="424" width="88" height="50" fill="none" rx="14" stroke="#878787" stroke-width="2"/>
	<line x1="9" y1="449" x2="97" y2="449" stroke="#878787" stroke-width="1"/>
	<text x="16" y="441.7" fill="#000000" font-family="Verdana" font-size="12">POSSESSES</text>
</g>

<!-- Entity COMMENT -->
<g id="entity-COMMENT">
	<g id="frame-COMMENT">
		<rect x="388" y="9" width="80" height="25" fill="#f4a582" stroke="#f4a582" stroke-width="0"/>
		<rect x="388" y="34.0" width="80" height="111" fill="#fddbc7" stroke="#fddbc7" stroke-width="0"/>
		<rect x="388" y="9" width="80" height="136" fill="none" stroke="#d6604d" stroke-width="2"/>
		<line x1="388" y1="34" x2="468" y2="34" stroke="#d6604d" stroke-width="1"/>
	</g>
	<text x="396" y="26.7" fill="#000000" font-family="Verdana" font-size="12">COMMENT</text>
	<text x="393" y="51.7" fill="#000000" font-family="Verdana" font-size="12">id</text>
	<line x1="393" y1="54" x2="405" y2="54" stroke="#000000" stroke-width="1"/>
	<text x="393" y="68.7" fill="#000000" font-family="Verdana" font-size="12">user_id</text>
	<text x="393" y="85.8" fill="#000000" font-family="Verdana" font-size="12">star_id</text>
	<text x="393" y="102.8" fill="#000000" font-family="Verdana" font-size="12">body</text>
	<text x="393" y="119.8" fill="#000000" font-family="Verdana" font-size="12">created_at</text>
	<text x="393" y="136.8" fill="#000000" font-family="Verdana" font-size="12">updated_at</text>
</g>

<!-- Entity STAR -->
<g id="entity-STAR">
	<g id="frame-STAR">
		<rect x="251" y="153" width="80" height="25" fill="#f4a582" stroke="#f4a582" stroke-width="0"/>
		<rect x="251" y="178.0" width="80" height="195" fill="#fddbc7" stroke="#fddbc7" stroke-width="0"/>
		<rect x="251" y="153" width="80" height="220" fill="none" stroke="#d6604d" stroke-width="2"/>
		<line x1="251" y1="178" x2="331" y2="178" stroke="#d6604d" stroke-width="1"/>
	</g>
	<text x="274" y="170.7" fill="#000000" font-family="Verdana" font-size="12">STAR</text>
	<text x="256" y="195.7" fill="#000000" font-family="Verdana" font-size="12">id</text>
	<line x1="256" y1="198" x2="268" y2="198" stroke="#000000" stroke-width="1"/>
	<text x="256" y="212.7" fill="#000000" font-family="Verdana" font-size="12">user_id</text>
	<text x="256" y="229.7" fill="#000000" font-family="Verdana" font-size="12">type_id</text>
	<text x="256" y="246.7" fill="#000000" font-family="Verdana" font-size="12">subtype_id</text>
	<text x="256" y="263.8" fill="#000000" font-family="Verdana" font-size="12">name</text>
	<text x="256" y="280.8" fill="#000000" font-family="Verdana" font-size="12">slug</text>
	<text x="256" y="297.8" fill="#000000" font-family="Verdana" font-size="12">picture</text>
	<text x="256" y="314.8" fill="#000000" font-family="Verdana" font-size="12">nb_stars</text>
	<text x="256" y="331.8" fill="#000000" font-family="Verdana" font-size="12">description</text>
	<text x="256" y="348.8" fill="#000000" font-family="Verdana" font-size="12">created_at</text>
	<text x="256" y="365.8" fill="#000000" font-family="Verdana" font-size="12">updated_at</text>
</g>

<!-- Entity RANK -->
<g id="entity-RANK">
	<g id="frame-RANK">
		<rect x="131" y="390" width="80" height="25" fill="#f4a582" stroke="#f4a582" stroke-width="0"/>
		<rect x="131" y="415.0" width="80" height="93" fill="#fddbc7" stroke="#fddbc7" stroke-width="0"/>
		<rect x="131" y="390" width="80" height="118" fill="none" stroke="#d6604d" stroke-width="2"/>
		<line x1="131" y1="415" x2="211" y2="415" stroke="#d6604d" stroke-width="1"/>
	</g>
	<text x="153" y="407.7" fill="#000000" font-family="Verdana" font-size="12">RANK</text>
	<text x="136" y="432.7" fill="#000000" font-family="Verdana" font-size="12">id</text>
	<line x1="136" y1="435" x2="148" y2="435" stroke="#000000" stroke-width="1"/>
	<text x="136" y="449.8" fill="#000000" font-family="Verdana" font-size="12">name</text>
	<text x="136" y="466.8" fill="#000000" font-family="Verdana" font-size="12">badge</text>
	<text x="136" y="483.8" fill="#000000" font-family="Verdana" font-size="12">created_at</text>
	<text x="136" y="500.8" fill="#000000" font-family="Verdana" font-size="12">updated_at</text>
</g>

<!-- Entity SUBTYPE -->
<g id="entity-SUBTYPE">
	<g id="frame-SUBTYPE">
		<rect x="525" y="204" width="80" height="25" fill="#f4a582" stroke="#f4a582" stroke-width="0"/>
		<rect x="525" y="229.0" width="80" height="93" fill="#fddbc7" stroke="#fddbc7" stroke-width="0"/>
		<rect x="525" y="204" width="80" height="118" fill="none" stroke="#d6604d" stroke-width="2"/>
		<line x1="525" y1="229" x2="605" y2="229" stroke="#d6604d" stroke-width="1"/>
	</g>
	<text x="537" y="221.7" fill="#000000" font-family="Verdana" font-size="12">SUBTYPE</text>
	<text x="530" y="246.7" fill="#000000" font-family="Verdana" font-size="12">id</text>
	<line x1="530" y1="249" x2="542" y2="249" stroke="#000000" stroke-width="1"/>
	<text x="530" y="263.8" fill="#000000" font-family="Verdana" font-size="12">type_id</text>
	<text x="530" y="280.8" fill="#000000" font-family="Verdana" font-size="12">name</text>
	<text x="530" y="297.8" fill="#000000" font-family="Verdana" font-size="12">created_at</text>
	<text x="530" y="314.8" fill="#000000" font-family="Verdana" font-size="12">updated_at</text>
</g>

<!-- Entity ROLE -->
<g id="entity-ROLE">
	<g id="frame-ROLE">
		<rect x="131" y="26" width="80" height="25" fill="#f4a582" stroke="#f4a582" stroke-width="0"/>
		<rect x="131" y="51.0" width="80" height="77" fill="#fddbc7" stroke="#fddbc7" stroke-width="0"/>
		<rect x="131" y="26" width="80" height="102" fill="none" stroke="#d6604d" stroke-width="2"/>
		<line x1="131" y1="51" x2="211" y2="51" stroke="#d6604d" stroke-width="1"/>
	</g>
	<text x="154" y="43.7" fill="#000000" font-family="Verdana" font-size="12">ROLE</text>
	<text x="136" y="68.7" fill="#000000" font-family="Verdana" font-size="12">id</text>
	<line x1="136" y1="71" x2="148" y2="71" stroke="#000000" stroke-width="1"/>
	<text x="136" y="85.8" fill="#000000" font-family="Verdana" font-size="12">name</text>
	<text x="136" y="102.8" fill="#000000" font-family="Verdana" font-size="12">created_at</text>
	<text x="136" y="119.8" fill="#000000" font-family="Verdana" font-size="12">updated_at</text>
</g>

<!-- Entity USER -->
<g id="entity-USER">
	<g id="frame-USER">
		<rect x="13" y="127" width="80" height="25" fill="#f4a582" stroke="#f4a582" stroke-width="0"/>
		<rect x="13" y="152.0" width="80" height="247" fill="#fddbc7" stroke="#fddbc7" stroke-width="0"/>
		<rect x="13" y="127" width="80" height="272" fill="none" stroke="#d6604d" stroke-width="2"/>
		<line x1="13" y1="152" x2="93" y2="152" stroke="#d6604d" stroke-width="1"/>
	</g>
	<text x="36" y="144.7" fill="#000000" font-family="Verdana" font-size="12">USER</text>
	<text x="18" y="169.7" fill="#000000" font-family="Verdana" font-size="12">id</text>
	<line x1="18" y1="172" x2="30" y2="172" stroke="#000000" stroke-width="1"/>
	<text x="18" y="186.7" fill="#000000" font-family="Verdana" font-size="12">role_id</text>
	<text x="18" y="203.7" fill="#000000" font-family="Verdana" font-size="12">rank_id</text>
	<text x="18" y="220.7" fill="#000000" font-family="Verdana" font-size="12">nickname</text>
	<text x="18" y="237.7" fill="#000000" font-family="Verdana" font-size="12">slug</text>
	<text x="18" y="254.7" fill="#000000" font-family="Verdana" font-size="12">email</text>
	<text x="18" y="271.8" fill="#000000" font-family="Verdana" font-size="12">password</text>
	<text x="18" y="288.8" fill="#000000" font-family="Verdana" font-size="12">avatar</text>
	<text x="18" y="305.8" fill="#000000" font-family="Verdana" font-size="12">firstname</text>
	<text x="18" y="322.8" fill="#000000" font-family="Verdana" font-size="12">birthday</text>
	<text x="18" y="339.8" fill="#000000" font-family="Verdana" font-size="12">bio</text>
	<text x="18" y="356.8" fill="#000000" font-family="Verdana" font-size="12">status</text>
	<text x="18" y="373.8" fill="#000000" font-family="Verdana" font-size="12">created_at</text>
	<text x="18" y="390.8" fill="#000000" font-family="Verdana" font-size="12">updated_at</text>
</g>

<!-- Entity TYPE -->
<g id="entity-TYPE">
	<g id="frame-TYPE">
		<rect x="388" y="398" width="80" height="25" fill="#f4a582" stroke="#f4a582" stroke-width="0"/>
		<rect x="388" y="423.0" width="80" height="77" fill="#fddbc7" stroke="#fddbc7" stroke-width="0"/>
		<rect x="388" y="398" width="80" height="102" fill="none" stroke="#d6604d" stroke-width="2"/>
		<line x1="388" y1="423" x2="468" y2="423" stroke="#d6604d" stroke-width="1"/>
	</g>
	<text x="412" y="415.7" fill="#000000" font-family="Verdana" font-size="12">TYPE</text>
	<text x="393" y="440.7" fill="#000000" font-family="Verdana" font-size="12">id</text>
	<line x1="393" y1="443" x2="405" y2="443" stroke="#000000" stroke-width="1"/>
	<text x="393" y="457.8" fill="#000000" font-family="Verdana" font-size="12">name</text>
	<text x="393" y="474.8" fill="#000000" font-family="Verdana" font-size="12">created_at</text>
	<text x="393" y="491.8" fill="#000000" font-family="Verdana" font-size="12">updated_at</text>
</g>
</svg>